<?xml version="1.0" standalone="no"?>
<!DOCTYPE svg PUBLIC "-//W3C//DTD SVG 1.1//EN" "http://www.w3.org/Graphics/SVG/1.1/DTD/svg11.dtd" >
<svg>
<metadata>
Created by FontForge 20090622 at Thu Sep  5 04:09:49 2019
 By deploy user
Copyright (c) 2008 by Jos Buivenga/exljbris. All rights reserved.
</metadata>
<defs>
<font id="Museo300-Regular" horiz-adv-x="606" >
  <font-face 
    font-family="Museo 300"
    font-weight="400"
    font-stretch="normal"
    units-per-em="1000"
    panose-1="2 0 0 0 0 0 0 0 0 0"
    ascent="750"
    descent="-250"
    x-height="503"
    cap-height="703"
    bbox="-53 -237 1092 883"
    underline-thickness="50"
    underline-position="-50"
    unicode-range="U+0020-U+FB04"
  />
<missing-glyph horiz-adv-x="510" 
d="M5 0v700h500v-700h-500zM255 395l170 255h-340zM285 350l170 -255v510zM55 95l170 255l-170 255v-510zM85 50h340l-170 255z" />
    <glyph glyph-name="f_f" unicode="ff" horiz-adv-x="600" 
d="M88 0v446h-63v57h63v18q0 58 18.5 98.5t48 58t55 24t51.5 6.5l31 -2v-61q-9 2 -24 2q-18 0 -34 -4.5t-35.5 -16.5t-31 -39t-11.5 -67v-17h227v18q0 58 18.5 98.5t48 58t55 24t51.5 6.5l31 -2v-61q-9 2 -24 2q-18 0 -34 -4.5t-35.5 -16.5t-31 -39t-11.5 -67v-17h128v-57
h-128v-446h-68v446h-227v-446h-68z" />
    <glyph glyph-name="fi" unicode="fi" horiz-adv-x="546" 
d="M88 0v446h-63v57h63v18q0 58 18.5 98.5t48 58t55 24t51.5 6.5l31 -2v-61q-10 2 -25 2q-18 0 -34 -4.5t-35 -16t-30.5 -39t-11.5 -66.5v-18h238q32 0 46.5 -14.5t14.5 -46.5v-361q0 -22 22 -22h42v-59h-71q-32 0 -46.5 14.5t-14.5 46.5v363q0 22 -22 22h-209v-446h-68z
M385 617v86h66v-86h-66z" />
    <glyph glyph-name="fl" unicode="fl" horiz-adv-x="540" 
d="M261 703h127q32 0 46.5 -14.5t14.5 -46.5v-561q0 -22 22 -22h42v-59h-71q-32 0 -46.5 14.5t-14.5 46.5v561q0 22 -22 22h-91q-112 0 -112 -123v-18h128v-57h-128v-446h-68v446h-63v57h63v18q0 47 13 82.5t31.5 53.5t44 29.5t44.5 14t40 2.5z" />
    <glyph glyph-name="f_f_i" unicode="ffi" horiz-adv-x="841" 
d="M88 0v446h-63v57h63v18q0 58 18.5 98.5t48 58t55 24t51.5 6.5l31 -2v-61q-10 2 -24 2q-18 0 -34.5 -4.5t-35.5 -16.5t-30.5 -39t-11.5 -67v-17h227v18q0 58 18.5 98.5t48 58t55 24t51.5 6.5l31 -2v-61q-10 2 -24 2q-18 0 -34.5 -4.5t-35.5 -16.5t-30.5 -39t-11.5 -67v-17
h238q32 0 46.5 -14.5t14.5 -46.5v-361q0 -22 22 -22h42v-59h-71q-32 0 -46.5 14.5t-14.5 46.5v363q0 22 -22 22h-209v-446h-68v446h-227v-446h-68zM680 617v86h66v-86h-66z" />
    <glyph glyph-name="f_f_l" unicode="ffl" horiz-adv-x="834" 
d="M556 703h127q32 0 46.5 -14.5t14.5 -46.5v-561q0 -22 22 -22h42v-59h-71q-32 0 -46.5 14.5t-14.5 46.5v561q0 22 -22 22h-91q-112 0 -112 -123v-18h128v-57h-128v-446h-68v446h-227v-446h-68v446h-63v57h63v21q0 57 17.5 96.5t47 57t54.5 24t52 6.5l33 -2v-61
q-11 2 -26 2q-18 0 -34.5 -4.5t-35 -16.5t-29.5 -38.5t-11 -64.5v-20h227v18q0 47 13 82.5t31.5 53.5t44 29.5t44.5 14t40 2.5z" />
    <glyph glyph-name="f_j" unicode="fj" horiz-adv-x="568" 
d="M88 0v446h-63v57h63v18q0 58 18.5 98.5t48 58t55 24t51.5 6.5l31 -2v-61q-10 2 -24 2q-18 0 -34.5 -4.5t-35.5 -16.5t-30.5 -39t-11.5 -67v-17h261q32 0 46.5 -14.5t14.5 -46.5v-461q0 -59 -18.5 -99t-48.5 -57.5t-55.5 -24t-52.5 -6.5l-29 3v59q9 -1 22 -1
q18 0 34.5 4.5t36 16.5t31.5 40t12 68v440q0 22 -22 22h-232v-446h-68zM409 617v86h66v-86h-66z" />
    <glyph glyph-name=".notdef" horiz-adv-x="510" 
d="M5 0v700h500v-700h-500zM255 395l170 255h-340zM285 350l170 -255v510zM55 95l170 255l-170 255v-510zM85 50h340l-170 255z" />
    <glyph glyph-name=".null" horiz-adv-x="0" 
 />
    <glyph glyph-name="nonmarkingreturn" horiz-adv-x="333" 
 />
    <glyph glyph-name="space" unicode=" " horiz-adv-x="272" 
 />
    <glyph glyph-name="space" unicode="&#xa0;" horiz-adv-x="272" 
 />
    <glyph glyph-name="exclam" unicode="!" horiz-adv-x="297" 
d="M116 184l-3 519h70l-3 -519h-64zM111 0v77h77v-77h-77z" />
    <glyph glyph-name="quotedbl" unicode="&#x22;" horiz-adv-x="312" 
d="M187 544v169h59v-169h-59zM66 544v169h59v-169h-59z" />
    <glyph glyph-name="numbersign" unicode="#" horiz-adv-x="713" 
d="M149 0l34 195h-142l10 56h141l35 196h-141l9 56h142l35 200h61l-35 -200h173l35 200h61l-35 -200h140l-10 -56h-140l-34 -196h139l-9 -56h-140l-34 -195h-61l34 195h-173l-34 -195h-61zM254 251h172l35 196h-173z" />
    <glyph glyph-name="dollar" unicode="$" horiz-adv-x="532" 
d="M46 120l52 42q2 -4 7 -11.5t21.5 -26.5t35 -33t49.5 -26t65 -12q62 0 100.5 36t38.5 89q0 35 -19 62.5t-49.5 46t-68 35.5t-74.5 36t-67.5 42t-49.5 58.5t-19 81.5q0 66 49 114t130 58v95h57v-93q63 -6 113.5 -35t50.5 -85v-50h-66v33q0 31 -34.5 52t-83.5 21
q-66 0 -105 -31.5t-39 -77.5q0 -39 25.5 -68.5t64.5 -47t83.5 -39.5t83.5 -44.5t64.5 -64t25.5 -96.5q0 -73 -50.5 -128t-132.5 -63v-93h-57v93q-39 4 -74 19t-57 33t-39 36t-24 30z" />
    <glyph glyph-name="percent" unicode="%" horiz-adv-x="743" 
d="M202 437q-58 0 -99 40.5t-41 98.5q0 57 41 98t99 41t99.5 -41t41.5 -98q0 -58 -41 -98.5t-100 -40.5zM68 0l536 703h71l-535 -703h-72zM202 493q34 0 58 24t24 59q0 34 -24 58.5t-58 24.5t-57.5 -24.5t-23.5 -58.5q0 -35 23.5 -59t57.5 -24zM400 126q0 58 41 99t99 41
t99.5 -41t41.5 -99q0 -57 -41.5 -97.5t-99.5 -40.5t-99 40.5t-41 97.5zM460 127q0 -35 23 -59t57 -24t58 24t24 59q0 34 -24 58.5t-58 24.5t-57 -24.5t-23 -58.5z" />
    <glyph glyph-name="ampersand" unicode="&#x26;" horiz-adv-x="624" 
d="M46 196q0 62 33.5 114t93.5 69v2q-4 1 -10.5 4t-23 15t-29.5 28t-23.5 45t-10.5 64q0 79 56.5 128.5t151.5 49.5q17 0 37.5 -2.5t32.5 -5.5l12 -3l-20 -57q-33 7 -58 7q-61 0 -100.5 -33.5t-39.5 -87.5q0 -21 5.5 -40t20 -40.5t47 -34t78.5 -12.5h146v97h69v-97h93v-62
h-93v-103q0 -123 -61.5 -188t-169.5 -65q-104 0 -170.5 59.5t-66.5 148.5zM117 198q0 -62 45 -103.5t121 -41.5t119 46.5t43 143.5v101h-144q-90 0 -137 -39t-47 -107z" />
    <glyph glyph-name="quotesingle" unicode="'" horiz-adv-x="191" 
d="M66 544v169h59v-169h-59z" />
    <glyph glyph-name="parenleft" unicode="(" horiz-adv-x="309" 
d="M85 332q0 225 108 398h64q-109 -184 -109 -393q0 -231 115 -432h-63q-115 188 -115 427z" />
    <glyph glyph-name="parenright" unicode=")" horiz-adv-x="309" 
d="M46 -95q115 201 115 432q0 209 -109 393h64q108 -176 108 -398q0 -239 -115 -427h-63z" />
    <glyph glyph-name="asterisk" unicode="*" horiz-adv-x="477" 
d="M152 337l-53 38l94 120v2l-147 42l20 63l144 -53l-6 154h68l-7 -154l146 52l20 -61l-148 -43v-2l94 -120l-52 -39l-86 127h-2z" />
    <glyph glyph-name="plus" unicode="+" 
d="M42 255v58h231v255h61v-255h230v-58h-230v-255h-61v255h-231z" />
    <glyph glyph-name="comma" unicode="," horiz-adv-x="215" 
d="M80 82h73l-73 -179h-57z" />
    <glyph glyph-name="hyphen" unicode="-" horiz-adv-x="432" 
d="M74 253v62h284v-62h-284z" />
    <glyph glyph-name="hyphen" unicode="&#xad;" horiz-adv-x="432" 
d="M74 253v62h284v-62h-284z" />
    <glyph glyph-name="period" unicode="." horiz-adv-x="215" 
d="M69 0v80h77v-80h-77z" />
    <glyph glyph-name="slash" unicode="/" horiz-adv-x="325" 
d="M3 -42l254 784h63l-253 -784h-64z" />
    <glyph glyph-name="zero" unicode="0" horiz-adv-x="602" 
d="M301 -12q-242 0 -242 364q0 363 242 363q88 0 144 -50t77.5 -128t21.5 -185q0 -364 -243 -364zM301 53q171 0 171 299q0 298 -171 298t-171 -298q0 -299 171 -299z" />
    <glyph glyph-name="one" unicode="1" horiz-adv-x="476" 
d="M64 0v62h157v516l1 39h-2q-7 -15 -35 -42l-75 -75l-44 45l159 158h66v-641h154v-62h-381z" />
    <glyph glyph-name="two" unicode="2" horiz-adv-x="564" 
d="M42 69q0 72 38.5 125.5t93 86l109 63t93 73.5t38.5 100t-39.5 94.5t-104.5 37.5q-52 0 -88.5 -23t-36.5 -53v-33h-66v52q0 32 19.5 56.5t50 38.5t62.5 21t61 7q98 0 156 -56.5t58 -140.5q0 -68 -38.5 -120t-93 -85l-109 -63.5t-93 -72.5t-38.5 -95q0 -20 23 -20h294
q22 0 22 22v47h65v-70q0 -32 -14.5 -46.5t-46.5 -14.5h-352q-35 0 -49 16t-14 53z" />
    <glyph glyph-name="three" unicode="3" horiz-adv-x="528" 
d="M26 86l42 52q3 -3 8.5 -9t24 -20.5t38.5 -25.5t51 -20t62 -9q64 0 111.5 43t47.5 109q0 68 -50 108t-121 40h-49l-16 41l173 208q8 10 17 20t14 15l5 4v2q-20 -3 -57 -3h-183q-22 0 -22 -22v-47h-65v70q0 33 13.5 47t45.5 14h357v-46l-207 -243q36 -2 71.5 -13.5
t69.5 -34.5t55 -64t21 -95q0 -90 -66.5 -154.5t-165.5 -64.5q-39 0 -76.5 10t-63 24.5t-46 29t-29.5 24.5z" />
    <glyph glyph-name="four" unicode="4" horiz-adv-x="562" 
d="M15 194v46l342 463h75v-447h112v-62h-112v-194h-70v194h-347zM363 256v287l3 68h-2q-17 -29 -36 -54l-195 -258l-37 -44v-2q28 3 58 3h209z" />
    <glyph glyph-name="five" unicode="5" horiz-adv-x="569" 
d="M54 88l44 49q2 -3 6.5 -9t19.5 -20t32 -25t45.5 -20t59.5 -9q75 0 125 47t50 117q0 72 -52.5 118.5t-129.5 46.5q-35 0 -69 -9.5t-50 -19.5l-16 -10l-36 15l30 283q3 33 16.5 47t44.5 14h231q32 0 46 -14.5t14 -46.5v-70h-65v47q0 22 -22 22h-178q-19 0 -22 -22l-18 -159
l-6 -40h2q44 26 106 26q106 0 176 -66.5t70 -162.5q0 -95 -70.5 -162t-176.5 -67q-39 0 -75 10.5t-59 25t-40.5 29t-24.5 25.5z" />
    <glyph glyph-name="six" unicode="6" horiz-adv-x="560" 
d="M297 -12q-113 0 -183.5 90.5t-70.5 230.5q0 55 11 111t35.5 109.5t59.5 94.5t87.5 66t115.5 25q34 0 66.5 -7.5t47.5 -14.5l15 -7l-26 -61q-44 25 -102 25q-70 0 -122.5 -43.5t-79 -107t-33.5 -138.5h2q24 40 73 62.5t106 22.5q96 0 157.5 -62.5t61.5 -160.5
q0 -107 -63 -171t-158 -64zM118 264q0 -75 52 -143t126 -68q70 0 110.5 47.5t40.5 121.5q0 73 -43.5 117.5t-115.5 44.5q-68 0 -119 -38t-51 -82z" />
    <glyph glyph-name="seven" unicode="7" horiz-adv-x="512" 
d="M79 0l306 576l39 65v2q-18 -2 -53 -2h-253q-22 0 -22 -22v-47h-66v70q0 32 14 46.5t46 14.5h415v-48l-348 -655h-78z" />
    <glyph glyph-name="eight" unicode="8" horiz-adv-x="570" 
d="M47 198q0 34 13 66t31.5 53t36.5 37t31 23l13 7v2l-10.5 5.5t-23 16.5t-29 28.5t-23 41t-10.5 53.5q0 77 57 130.5t155 53.5t156.5 -52t58.5 -135q0 -30 -9.5 -59t-23.5 -49t-28 -35.5t-24 -22.5l-9 -8v-2q55 -28 84 -65.5t29 -95.5q0 -83 -68.5 -143t-167.5 -60
q-98 0 -168.5 57t-70.5 153zM281 403q51 -19 63 -19q22 0 55.5 46t33.5 96q0 56 -40.5 90t-104.5 34q-65 0 -103.5 -34t-38.5 -85q0 -50 33.5 -76.5t101.5 -51.5zM119 201q0 -66 49.5 -107t117.5 -41q65 0 114.5 39.5t49.5 99.5q0 50 -33 77.5t-101 54.5q-66 28 -82 28
q-27 0 -71 -46.5t-44 -104.5z" />
    <glyph glyph-name="nine" unicode="9" horiz-adv-x="560" 
d="M79 17l26 61q44 -25 102 -25q70 0 123 44t79.5 107.5t32.5 138.5h-2q-24 -40 -73.5 -63t-105.5 -23q-96 0 -157 62.5t-61 160.5q0 107 62.5 171t157.5 64q113 0 183.5 -90.5t70.5 -230.5q0 -70 -18.5 -139.5t-54 -130.5t-97 -98.5t-139.5 -37.5q-34 0 -66.5 7t-47.5 15z
M272 319q68 0 119 38t51 82q0 75 -52 143t-126 68q-70 0 -110.5 -47.5t-40.5 -121.5q0 -73 43.5 -117.5t115.5 -44.5z" />
    <glyph glyph-name="colon" unicode=":" horiz-adv-x="283" 
d="M103 423v80h77v-80h-77zM103 0v80h77v-80h-77z" />
    <glyph glyph-name="semicolon" unicode=";" horiz-adv-x="283" 
d="M103 423v80h77v-80h-77zM54 -97l48 179h73l-64 -179h-57z" />
    <glyph glyph-name="less" unicode="&#x3c;" 
d="M69 259v50l452 202v-67l-367 -159v-2l367 -159v-67z" />
    <glyph glyph-name="equal" unicode="=" 
d="M70 342v58h466v-58h-466zM70 168v58h466v-58h-466z" />
    <glyph glyph-name="greater" unicode="&#x3e;" 
d="M77 57v67l367 159v2l-367 159v67l452 -202v-50z" />
    <glyph glyph-name="question" unicode="?" horiz-adv-x="431" 
d="M153 184v45q0 44 18 80t44 61l51.5 48.5t43.5 53.5t18 64q0 49 -37 82t-94 33q-30 0 -60.5 -10.5t-45.5 -21.5l-15 -11l-37 51q7 6 20 15.5t55 25.5t86 16q86 0 143 -50t57 -127q0 -46 -18.5 -83t-45 -61.5l-52.5 -47.5t-44.5 -53.5t-18.5 -66.5v-43h-68zM149 0v77h77
v-77h-77z" />
    <glyph glyph-name="at" unicode="@" horiz-adv-x="739" 
d="M41 242q0 153 104.5 260t251.5 107q126 0 185.5 -54t59.5 -135v-315h71v-56h-269q-85 0 -142.5 56.5t-57.5 135.5t57 135.5t143 56.5h130q-2 50 -45 83.5t-127 33.5q-122 0 -206.5 -90.5t-84.5 -217.5q0 -129 84.5 -217.5t211.5 -88.5v-60q-155 0 -260.5 106.5
t-105.5 259.5zM314 242q0 -57 39.5 -97t96.5 -40h124v275h-122q-59 0 -98.5 -40.5t-39.5 -97.5z" />
    <glyph glyph-name="A" unicode="A" horiz-adv-x="657" 
d="M12 0v62h13q28 0 36 22l230 619h75l230 -619q8 -22 36 -22h12v-62h-32q-38 0 -54 11t-29 47l-61 166h-279l-62 -166q-14 -36 -29.5 -47t-52.5 -11h-33zM208 285h241l-93 251l-27 91h-2q-15 -58 -27 -91z" />
    <glyph glyph-name="B" unicode="B" 
d="M105 61v580h-65v62h299q84 0 137 -48t53 -129q0 -109 -90 -153v-2q54 -15 86 -62.5t32 -111.5q0 -91 -59.5 -144t-150.5 -53h-181q-32 0 -46.5 14.5t-14.5 46.5zM175 398h163q53 0 86 34t33 89q0 54 -32.5 87t-87.5 33h-162v-243zM175 84q0 -22 22 -22h150q64 0 100.5 37
t36.5 100t-38 101t-100 38h-171v-254z" />
    <glyph glyph-name="C" unicode="C" horiz-adv-x="694" 
d="M38 357q0 152 99.5 255t247.5 103q40 0 83.5 -8.5t85 -25.5t68 -47t26.5 -68v-58h-66v39q0 46 -63 74t-132 28q-118 0 -197 -82.5t-79 -209.5t80 -215t199 -88q64 0 121.5 25t82.5 49l26 25l40 -51q-4 -5 -11.5 -12.5t-33.5 -27t-55.5 -34.5t-75.5 -27.5t-95 -12.5
q-153 0 -252 106.5t-99 262.5z" />
    <glyph glyph-name="D" unicode="D" horiz-adv-x="715" 
d="M107 61v580h-65v62h282q161 0 257 -93.5t96 -257.5q0 -166 -96 -259t-257 -93h-156q-32 0 -46.5 14.5t-14.5 46.5zM177 84q0 -22 22 -22h118q132 0 209.5 75.5t77.5 214.5q0 138 -77.5 213.5t-209.5 75.5h-140v-557z" />
    <glyph glyph-name="E" unicode="E" horiz-adv-x="558" 
d="M107 61v580h-65v62h402q32 0 46.5 -14.5t14.5 -46.5v-70h-66v47q0 22 -22 22h-240v-256h264v-62h-264v-239q0 -22 22 -22h247q22 0 22 22v47h65v-70q0 -32 -14.5 -46.5t-46.5 -14.5h-304q-32 0 -46.5 14.5t-14.5 46.5z" />
    <glyph glyph-name="F" unicode="F" horiz-adv-x="499" 
d="M107 0v641h-65v62h374q32 0 46 -14.5t14 -46.5v-70h-65v47q0 22 -22 22h-212v-264h255v-62h-255v-315h-70z" />
    <glyph glyph-name="G" unicode="G" horiz-adv-x="730" 
d="M39 353q0 152 101 257t250 105q72 0 133.5 -21.5t86.5 -43.5l26 -21l-41 -52q-9 8 -25.5 20t-69.5 32t-109 20q-119 0 -199 -84.5t-80 -211.5q0 -129 79 -214t199 -85q39 0 76 10.5t62.5 26t45 30.5t28.5 25l10 11v87q0 22 -22 22h-43v62h70q32 0 46.5 -14.5t14.5 -46.5
v-267h-64v53l1 30h-2q-3 -4 -9.5 -10.5t-28.5 -22.5t-47 -28.5t-64.5 -23t-80.5 -10.5q-145 0 -244.5 104t-99.5 261z" />
    <glyph glyph-name="H" unicode="H" horiz-adv-x="757" 
d="M107 0v619q0 22 -22 22h-43v62h74q32 0 46.5 -14.5t14.5 -46.5v-259h404v259q0 32 14 46.5t46 14.5h75v-62h-43q-22 0 -22 -22v-619h-70v321h-404v-321h-70z" />
    <glyph glyph-name="I" unicode="I" horiz-adv-x="293" 
d="M46 0v62h66v579h-66v62h201v-62h-67v-579h67v-62h-201z" />
    <glyph glyph-name="J" unicode="J" horiz-adv-x="505" 
d="M24 197v28h70v-24q0 -77 37.5 -112t91.5 -35q53 0 90 35t37 110v420q0 22 -22 22h-174v62h205q32 0 46.5 -14.5t14.5 -46.5v-445q0 -106 -58 -157.5t-140 -51.5t-140 52t-58 157z" />
    <glyph glyph-name="K" unicode="K" horiz-adv-x="590" 
d="M107 0v619q0 22 -22 22h-43v62h74q32 0 46.5 -14.5t14.5 -46.5v-244h84q44 0 59 25l170 280h80l-181 -295q-8 -13 -17 -22.5t-14 -13.5l-5 -3v-2q17 -6 34 -40l122 -242q7 -15 18 -19t33 -4h20v-62h-37q-44 0 -62 9.5t-35 43.5l-128 257q-12 26 -64 26h-77v-336h-70z" />
    <glyph glyph-name="L" unicode="L" horiz-adv-x="530" 
d="M107 61v558q0 22 -22 22h-43v62h74q32 0 46.5 -14.5t14.5 -46.5v-558q0 -22 22 -22h233q22 0 22 22v47h66v-70q0 -32 -14.5 -46.5t-46.5 -14.5h-291q-32 0 -46.5 14.5t-14.5 46.5z" />
    <glyph glyph-name="M" unicode="M" horiz-adv-x="845" 
d="M22 0v62h37q21 0 22 22l49 619h71l186 -409l35 -83h2q18 47 34 83l186 409h71l49 -619q1 -22 22 -22h38v-62h-68q-32 0 -45.5 14t-15.5 47l-33 427l-3 98h-2q-19 -62 -36 -98l-167 -357h-63l-166 357l-37 100h-2q0 -62 -3 -100l-33 -427q-2 -33 -15.5 -47t-45.5 -14h-67z
" />
    <glyph glyph-name="N" unicode="N" horiz-adv-x="760" 
d="M42 0v62h43q22 0 22 22v619h64l359 -501l57 -92h2q-5 55 -5 92v440q0 32 14.5 46.5t46.5 14.5h74v-62h-43q-22 0 -22 -22v-619h-64l-359 501l-58 91h-2q6 -54 6 -91v-440q0 -32 -14.5 -46.5t-46.5 -14.5h-74z" />
    <glyph glyph-name="O" unicode="O" horiz-adv-x="791" 
d="M38 356q0 151 104 255t254 104t254 -104t104 -255q0 -154 -104.5 -261t-253.5 -107q-150 0 -254 107t-104 261zM111 356q0 -127 83 -214.5t202 -87.5q118 0 201.5 87.5t83.5 214.5q0 124 -83 208.5t-202 84.5t-202 -84.5t-83 -208.5z" />
    <glyph glyph-name="P" unicode="P" horiz-adv-x="579" 
d="M107 0v641h-65v62h297q95 0 156 -58t61 -154q0 -97 -61 -156t-156 -59h-162v-276h-70zM177 338h153q70 0 112 41t42 112q0 70 -41.5 110t-111.5 40h-154v-303z" />
    <glyph glyph-name="Q" unicode="Q" horiz-adv-x="791" 
d="M38 356q0 151 103.5 255t252.5 104q152 0 256 -104t104 -255q0 -138 -88 -242l86 -86l-43 -45l-86 87q-96 -82 -229 -82q-149 0 -252.5 107t-103.5 261zM111 356q0 -127 82 -214.5t201 -87.5q49 0 94 16t66 32l20 16l-84 85l43 45l83 -86q65 83 65 194q0 124 -82.5 208
t-204.5 84q-120 0 -201.5 -84t-81.5 -208z" />
    <glyph glyph-name="R" unicode="R" horiz-adv-x="605" 
d="M107 0v641h-65v62h298q89 0 145.5 -54.5t56.5 -145.5q0 -77 -40 -126.5t-96 -61.5v-2q14 -8 24 -28l101 -200q7 -15 18 -19t32 -4h14v-62h-31q-44 0 -62 9.5t-35 43.5l-101 201q-14 27 -27.5 34.5t-43.5 7.5h-118v-296h-70zM177 358h156q63 0 99.5 38.5t36.5 104.5
q0 65 -36.5 102.5t-98.5 37.5h-157v-283z" />
    <glyph glyph-name="S" unicode="S" horiz-adv-x="518" 
d="M37 88l43 51q3 -3 8.5 -9t23.5 -21t38 -26t50.5 -20.5t61.5 -9.5q59 0 99 35t40 90q0 48 -35.5 82t-86.5 57l-102.5 47.5t-87 67.5t-35.5 103q0 75 60 127.5t155 52.5q40 0 80.5 -10t75 -39t34.5 -72v-50h-66v33q0 31 -36.5 52t-86.5 21q-66 0 -105 -33t-39 -80
q0 -29 15 -52.5t39.5 -39t55.5 -31.5t63.5 -29t63.5 -32t55.5 -40.5t39.5 -55t15 -75.5q0 -82 -58.5 -138t-154.5 -56q-40 0 -78 10.5t-63 25t-44.5 29t-28.5 25.5z" />
    <glyph glyph-name="T" unicode="T" horiz-adv-x="620" 
d="M275 0v641h-174q-22 0 -22 -22v-47h-64v74q0 32 12.5 44.5t44.5 12.5h476q32 0 44.5 -12.5t12.5 -44.5v-74h-65v47q0 22 -22 22h-173v-641h-70z" />
    <glyph glyph-name="U" unicode="U" horiz-adv-x="717" 
d="M99 241v378q0 22 -22 22h-43v62h74q32 0 46.5 -14.5t14.5 -46.5v-398q0 -88 51.5 -139t137.5 -51q87 0 138.5 51.5t51.5 140.5v396q0 32 14.5 46.5t46.5 14.5h74v-62h-43q-22 0 -22 -22v-378q0 -114 -71.5 -183.5t-187.5 -69.5t-188 69.5t-72 183.5z" />
    <glyph glyph-name="V" unicode="V" horiz-adv-x="653" 
d="M289 0l-231 619q-8 22 -36 22h-10v62h31q38 0 53.5 -11t28.5 -47l173 -473l27 -91h2q14 55 27 91l173 473q13 36 29 47t54 11h30v-62h-9q-28 0 -36 -22l-231 -619h-75z" />
    <glyph glyph-name="W" unicode="W" horiz-adv-x="945" 
d="M227 0l-161 619q-6 22 -37 22h-12v62h31q40 0 58 -11.5t27 -46.5l122 -485l15 -75h2q9 39 19 75l155 540h69l141 -540l16 -75h2q7 39 16 75l122 485q9 35 27 46.5t58 11.5h31v-62h-11q-31 0 -37 -22l-162 -619h-83l-131 489l-23 104h-2q-12 -58 -25 -103l-144 -490h-83z
" />
    <glyph glyph-name="X" unicode="X" horiz-adv-x="570" 
d="M15 0l224 367l-152 248q-16 26 -50 26h-21v62h37q38 0 57 -11t40 -45l90 -151l45 -80h2q21 44 43 80l90 151q21 34 40 45t57 11h37v-62h-21q-34 0 -50 -26l-153 -248l225 -367h-80l-146 242l-45 77h-2q-20 -42 -42 -78l-145 -241h-80z" />
    <glyph glyph-name="Y" unicode="Y" horiz-adv-x="592" 
d="M261 0v306l-188 309q-16 26 -47 26h-16v62h27q37 0 55.5 -10t40.5 -46l119 -199l43 -79h2q21 42 43 79l119 199q22 36 40.5 46t55.5 10h27v-62h-16q-31 0 -46 -26l-189 -309v-306h-70z" />
    <glyph glyph-name="Z" unicode="Z" horiz-adv-x="575" 
d="M19 0v49l377 528l24.5 32t19.5 24l7 8v2q-17 -2 -51 -2h-280q-22 0 -22 -22v-47h-65v70q0 32 14.5 46.5t46.5 14.5h443v-49l-376 -528l-25 -32l-20 -24l-7 -8v-2q17 2 52 2h303q22 0 22 22v47h65v-70q0 -32 -14.5 -46.5t-46.5 -14.5h-467z" />
    <glyph glyph-name="bracketleft" unicode="[" horiz-adv-x="303" 
d="M101 -34v703q0 32 14.5 46.5t46.5 14.5h74v-56h-50q-22 0 -22 -22v-669q0 -22 22 -22h50v-56h-74q-32 0 -46.5 14.5t-14.5 46.5z" />
    <glyph glyph-name="backslash" unicode="\" horiz-adv-x="317" 
d="M259 -42l-254 784h64l253 -784h-63z" />
    <glyph glyph-name="bracketright" unicode="]" horiz-adv-x="303" 
d="M67 -39h50q22 0 22 22v669q0 22 -22 22h-50v56h74q32 0 46.5 -14.5t14.5 -46.5v-703q0 -32 -14.5 -46.5t-46.5 -14.5h-74v56z" />
    <glyph glyph-name="asciicircum" unicode="^" 
d="M73 250l198 453h47l198 -453h-65l-156 370l-156 -370h-66z" />
    <glyph glyph-name="underscore" unicode="_" horiz-adv-x="526" 
d="M5 0h516v-58h-516v58z" />
    <glyph glyph-name="grave" unicode="`" horiz-adv-x="360" 
d="M180 752l-87 119h76l70 -119h-59z" />
    <glyph glyph-name="a" unicode="a" horiz-adv-x="529" 
d="M40 137q0 173 308 173h28v6q0 78 -30 110t-100 32q-31 0 -64.5 -10t-33.5 -34v-32h-65v48q0 24 19 42.5t47.5 27t53 12t44.5 3.5q111 0 154 -51t43 -142v-241q0 -22 22 -22h42v-59h-69q-32 0 -46 14.5t-14 45.5l1 37h-2q1 0 -4.5 -11t-18 -27.5t-30.5 -32.5t-48.5 -27
t-65.5 -11q-69 0 -120 39t-51 110zM110 141q0 -38 29.5 -66.5t82.5 -28.5q68 0 111 58t43 129v23h-29q-27 0 -45.5 -1t-50 -4t-53 -10.5t-43.5 -19.5t-33.5 -32.5t-11.5 -47.5z" />
    <glyph glyph-name="b" unicode="b" horiz-adv-x="584" 
d="M84 0v622q0 22 -22 22h-42v59h71q32 0 46.5 -14.5t14.5 -46.5v-182l-2 -41h2l5.5 10.5t17.5 23t32 29t49 23t67 10.5q100 0 159.5 -73t59.5 -191t-63.5 -190.5t-163.5 -72.5q-34 0 -63 10t-47 24t-31 28.5t-18 24.5l-6 10h-2q2 -17 2 -41v-44h-66zM150 250q0 -82 42 -142
t118 -60q69 0 115.5 55t46.5 148q0 91 -44.5 146.5t-114.5 55.5q-69 0 -116 -51t-47 -152z" />
    <glyph glyph-name="c" unicode="c" horiz-adv-x="528" 
d="M40 251q0 115 76 189.5t189 74.5q24 0 52.5 -5.5t58 -16.5t49 -33.5t19.5 -51.5v-45h-64v29q0 29 -38.5 45.5t-76.5 16.5q-83 0 -139 -56.5t-56 -146.5t57.5 -145.5t139.5 -55.5q46 0 86.5 18t58.5 36l17 17l32 -51q-3 -3 -8 -8.5t-24 -20t-40 -25t-55 -19.5t-70 -9
q-114 0 -189 73.5t-75 189.5z" />
    <glyph glyph-name="d" unicode="d" horiz-adv-x="588" 
d="M42 252q0 118 63 190.5t163 72.5q34 0 63.5 -9.5t47 -23.5t30.5 -28t18 -24l5 -9h2q-2 17 -2 38v163q0 22 -22 22h-42v59h71q32 0 46.5 -14.5t14.5 -46.5v-561q0 -22 22 -22h42v-59h-70q-60 0 -60 56l2 32h-2l-5.5 -11t-17.5 -24t-32 -30t-49.5 -24t-68.5 -11
q-100 0 -159.5 73t-59.5 191zM271 49q69 0 116 51t47 152q0 83 -42 142.5t-118 59.5q-69 0 -115.5 -55t-46.5 -147t44 -147.5t115 -55.5z" />
    <glyph glyph-name="e" unicode="e" horiz-adv-x="548" 
d="M40 251q0 120 71.5 192t176.5 72q100 0 155.5 -66.5t55.5 -165.5l-2 -34h-386q1 -92 57.5 -146t137.5 -54q41 0 78.5 15.5t55.5 31.5l17 15l33 -51q-8 -8 -23.5 -20t-64 -32t-99.5 -20q-113 0 -188 74t-75 189zM114 303h315q-3 75 -43 115t-99 40q-65 0 -113 -41
t-60 -114z" />
    <glyph glyph-name="f" unicode="f" horiz-adv-x="305" 
d="M88 0v446h-63v57h63v18q0 58 18.5 98.5t48 58t55 24t51.5 6.5l31 -2v-61q-9 2 -24 2q-18 0 -34 -4.5t-35.5 -16t-31 -39t-11.5 -66.5v-18h128v-57h-128v-446h-68z" />
    <glyph glyph-name="g" unicode="g" horiz-adv-x="579" 
d="M42 261q0 114 59 184t159 70q38 0 69 -9t48.5 -21.5t29.5 -25t16 -21.5l4 -9h2v19q0 55 57 55h70v-59h-41q-22 0 -22 -22v-410q0 -112 -69.5 -167t-172.5 -55q-86 0 -164 40l26 57q62 -35 136 -35q79 0 127.5 39t48.5 119v44l1 36h-2q-47 -87 -158 -87q-101 0 -162.5 72
t-61.5 186zM276 64q67 0 108.5 46.5t41.5 150.5q0 192 -159 192q-73 0 -114 -50.5t-41 -140.5t45 -144t119 -54z" />
    <glyph glyph-name="h" unicode="h" horiz-adv-x="605" 
d="M84 0v622q0 22 -22 22h-42v59h71q32 0 46.5 -14t14.5 -45v-213l-2 -41h2q18 45 70.5 85t128.5 40q91 0 130 -49t39 -146v-239q0 -22 22 -22h42v-59h-71q-32 0 -46.5 14.5t-14.5 46.5v241q0 34 -3.5 57.5t-14.5 46t-34 34t-58 11.5q-64 0 -114.5 -40t-67.5 -103
q-8 -27 -8 -67v-241h-68z" />
    <glyph glyph-name="i" unicode="i" horiz-adv-x="251" 
d="M90 617v86h66v-86h-66zM92 61v361q0 22 -22 22h-42v59h71q32 0 46.5 -14.5t14.5 -46.5v-361q0 -22 22 -22h42v-59h-71q-32 0 -46.5 14.5t-14.5 46.5z" />
    <glyph glyph-name="j" unicode="j" horiz-adv-x="268" 
d="M114 617v86h65v-86h-65zM-21 -144q9 -1 22 -1q18 0 35 4.5t36.5 16.5t31 40t11.5 68v438q0 22 -22 22h-42v59h71q32 0 46.5 -14.5t14.5 -46.5v-461q0 -59 -18.5 -99t-48.5 -57.5t-55.5 -24t-52.5 -6.5l-29 3v59z" />
    <glyph glyph-name="k" unicode="k" horiz-adv-x="498" 
d="M84 0v622q0 22 -22 22h-42v59h71q33 0 47 -13t14 -45v-334h52q38 0 57 24l129 168h83l-145 -184q-11 -14 -20.5 -23t-13.5 -11l-4 -2v-2q15 -7 31 -37l91 -163q7 -13 16.5 -17.5t29.5 -4.5h27v-59h-47q-38 0 -54 9.5t-33 40.5l-100 180q-12 22 -53 22h-46v-252h-68z" />
    <glyph glyph-name="l" unicode="l" horiz-adv-x="245" 
d="M86 61v561q0 22 -22 22h-42v59h71q32 0 46.5 -14.5t14.5 -46.5v-561q0 -22 22 -22h42v-59h-71q-32 0 -46.5 14.5t-14.5 46.5z" />
    <glyph glyph-name="m" unicode="m" horiz-adv-x="931" 
d="M87 0v422q0 22 -22 22h-42v59h70q61 0 61 -56v-23l-2 -36h2q19 52 71.5 89.5t110.5 37.5q133 0 156 -126h2q21 53 72 89.5t113 36.5q89 0 128 -49t39 -146v-239q0 -22 22 -22h42v-59h-71q-32 0 -46.5 14.5t-14.5 46.5v242q0 71 -23 110.5t-86 39.5q-55 0 -99 -42
t-60 -100q-9 -28 -9 -73v-238h-68v303q0 33 -3.5 56t-13.5 46.5t-32.5 35.5t-56.5 12q-59 0 -103 -43t-61 -105q-8 -28 -8 -67v-238h-68z" />
    <glyph glyph-name="n" unicode="n" horiz-adv-x="608" 
d="M87 0v422q0 22 -22 22h-42v59h70q61 0 61 -56v-23l-2 -36h2q18 46 69.5 86.5t130.5 40.5q91 0 130 -49t39 -146v-239q0 -22 22 -22h42v-59h-71q-32 0 -46.5 14.5t-14.5 46.5v241q0 71 -21.5 110t-87.5 39q-64 0 -115 -39.5t-68 -102.5q-8 -28 -8 -68v-241h-68z" />
    <glyph glyph-name="o" unicode="o" horiz-adv-x="611" 
d="M40 254q0 111 77.5 186t187.5 75q111 0 188.5 -75t77.5 -186q0 -113 -77.5 -189.5t-187.5 -76.5q-111 0 -188.5 76.5t-77.5 189.5zM110 254q0 -87 57 -146t139 -59q81 0 138 59t57 146q0 85 -57 142t-138 57q-82 0 -139 -57t-57 -142z" />
    <glyph glyph-name="p" unicode="p" horiz-adv-x="587" 
d="M87 -200v622q0 22 -22 22h-42v59h69q60 0 60 -53l-1 -34h2l5.5 10.5t17.5 24t31.5 30.5t49.5 23.5t69 10.5q100 0 159.5 -73t59.5 -191t-63 -190.5t-162 -72.5q-34 0 -64 10t-47.5 24t-30.5 27.5t-18 23.5l-5 10h-2q2 -18 2 -44v-239h-68zM153 250q0 -82 42.5 -142
t117.5 -60q69 0 115.5 55t46.5 148q0 92 -44 147t-115 55q-69 0 -116 -51t-47 -152z" />
    <glyph glyph-name="q" unicode="q" horiz-adv-x="588" 
d="M43 252q0 118 63 190.5t163 72.5q34 0 64 -10t48 -24.5t31 -28.5t18 -24l5 -10h2q-1 14 -1 33q0 52 60 52h69v-59h-42q-22 0 -22 -22v-622h-68v241l2 44h-2l-5.5 -10.5t-17.5 -23t-32 -29.5t-49 -23.5t-67 -10.5q-100 0 -159.5 73t-59.5 191zM272 49q69 0 116 51t47 152
q0 83 -42 142.5t-118 59.5q-69 0 -116 -55t-47 -147t44.5 -147.5t115.5 -55.5z" />
    <glyph glyph-name="r" unicode="r" horiz-adv-x="362" 
d="M87 0v422q0 22 -22 22h-42v59h70q61 0 61 -57v-34l-2 -38h2q19 60 60.5 97t98.5 37l27 -3v-67q-12 2 -25 2q-52 0 -90.5 -36t-55.5 -94q-14 -45 -14 -98v-212h-68z" />
    <glyph glyph-name="s" unicode="s" horiz-adv-x="440" 
d="M29 76l39 47q2 -3 6.5 -8t19.5 -18.5t31.5 -23.5t43 -18t54.5 -8q45 0 75.5 21t30.5 59q0 30 -29 52t-70.5 38t-83 34t-70.5 50.5t-29 77.5q0 66 50 101t129 35q22 0 46 -4.5t49 -14t41.5 -28.5t16.5 -44v-43h-64v24q0 25 -28 38t-59 13q-112 0 -112 -73q0 -31 29 -53
t70.5 -37.5t83 -33.5t70.5 -51t29 -79q0 -62 -50 -101.5t-126 -39.5q-37 0 -70 9t-54.5 22t-38 26t-23.5 22z" />
    <glyph glyph-name="t" unicode="t" horiz-adv-x="335" 
d="M93 183v263h-66v57h67v139h67v-139h126v-57h-126v-256q0 -34 8.5 -59t20.5 -39t28 -22t29 -10.5t27 -2.5l23 2v-61q-12 -2 -29 -2q-21 0 -41 3t-45.5 14.5t-44 30.5t-31.5 55t-13 84z" />
    <glyph glyph-name="u" unicode="u" horiz-adv-x="603" 
d="M85 183v239q0 22 -22 22h-42v59h71q32 0 46.5 -14t14.5 -45v-243q0 -71 22 -110t88 -39q82 0 133.5 62.5t51.5 147.5v241h68v-422q0 -22 22 -22h42v-59h-69q-61 0 -61 56v23l2 36h-2q-19 -46 -70.5 -86.5t-125.5 -40.5q-88 0 -128.5 48t-40.5 147z" />
    <glyph glyph-name="v" unicode="v" horiz-adv-x="518" 
d="M222 0l-164 421q-9 23 -35 23h-9v59h27q36 0 51.5 -10.5t28.5 -44.5l121 -314l17 -59h2q8 34 17 59l121 314q13 34 28.5 44.5t50.5 10.5h26v-59h-9q-27 0 -35 -23l-164 -421h-74z" />
    <glyph glyph-name="w" unicode="w" horiz-adv-x="834" 
d="M202 0l-144 421q-8 23 -35 23h-13v59h35q37 0 52.5 -10.5t26.5 -45.5l103 -319l15 -54h2q8 30 16 54l123 373h68l123 -373l16 -54h2q6 29 14 54l104 319q11 35 26.5 45.5t52.5 10.5h35v-59h-14q-27 0 -35 -23l-144 -421h-75l-123 358l-15 54h-2q-7 -29 -16 -54l-122 -358
h-76z" />
    <glyph glyph-name="x" unicode="x" horiz-adv-x="477" 
d="M19 0l175 262l-109 161q-15 21 -46 21h-21v59h37q38 0 54.5 -10t39.5 -45l72 -112l17 -30h2l16 30l73 112q23 35 39.5 45t54.5 10h36v-59h-20q-34 0 -47 -20l-109 -162l176 -262h-80l-123 187l-16 28h-2q-8 -14 -17 -28l-123 -187h-79z" />
    <glyph glyph-name="y" unicode="y" horiz-adv-x="539" 
d="M40 -111q0 -2 9 -10.5t28 -18t38 -9.5q59 0 93 82l30 69l-177 419q-10 23 -35 23h-10v59h31q34 0 48.5 -10.5t28.5 -44.5l129 -314l18 -54h2q7 29 17 54l124 314q13 34 28 44.5t50 10.5h31v-59h-10q-26 0 -35 -23l-217 -526q-20 -49 -57.5 -77t-86.5 -28q-31 0 -58.5 12
t-38.5 24l-12 13z" />
    <glyph glyph-name="z" unicode="z" horiz-adv-x="499" 
d="M39 0v44l283 353l40 46v2q-17 -2 -50 -2h-184q-22 0 -22 -22v-39h-64v60q0 32 14.5 46.5t46.5 14.5h349v-45l-282 -352l-42 -46v-2q18 2 51 2h208q22 0 22 22v39h64v-60q0 -32 -14.5 -46.5t-46.5 -14.5h-373z" />
    <glyph glyph-name="braceleft" unicode="{" horiz-adv-x="326" 
d="M118 83v95q0 29 -9 51.5t-21 34t-24.5 18.5t-21.5 8l-9 2v62q3 0 9 1.5t20.5 9t26 18.5t20.5 34t9 52v82q0 47 12 82t28.5 53t39 28.5t38 13t31.5 2.5h15v-56h-9q-13 0 -25.5 -3.5t-29.5 -15t-27 -38.5t-10 -68v-98q0 -27 -8 -50.5t-20 -37t-24 -23t-20 -12.5l-8 -4v-2
q3 -1 8.5 -3.5t19.5 -12t24.5 -22.5t19 -36.5t8.5 -52.5v-110q0 -40 10.5 -67.5t27 -38.5t29 -15t25.5 -4h9v-56q-6 -1 -15 -1q-16 0 -31.5 2.5t-38 13.5t-39 29t-28.5 53t-12 82z" />
    <glyph glyph-name="bar" unicode="|" horiz-adv-x="285" 
d="M111 -157v945h63v-945h-63z" />
    <glyph glyph-name="braceright" unicode="}" horiz-adv-x="326" 
d="M44 -40h10q12 0 24.5 4t29 15t27 38.5t10.5 67.5v110q0 29 8 52.5t20 36.5t24 22.5t20 12.5l8 3v2q-3 1 -8.5 3.5t-19.5 13t-24.5 23.5t-19 36.5t-8.5 50.5v98q0 41 -10 68t-27 38.5t-29 15t-25 3.5h-10v56h16q15 0 30.5 -2.5t38 -13.5t39 -28.5t28.5 -52.5t12 -82v-82
q0 -29 9 -52t21 -34t24.5 -18.5t21.5 -8.5l9 -2v-62q-3 0 -9 -1.5t-20.5 -9t-26 -18.5t-20.5 -33.5t-9 -51.5v-95q0 -47 -12 -82t-28.5 -53t-39 -29t-38 -13.5t-30.5 -2.5l-16 1v56z" />
    <glyph glyph-name="asciitilde" unicode="~" 
d="M67 209q0 79 34 117t93 38q30 0 54 -10.5t39.5 -26l30 -31t33.5 -26t42 -10.5q40 0 55.5 31t15.5 69h59q0 -79 -34 -117t-93 -38q-37 0 -65.5 16.5t-43.5 35.5t-38.5 35.5t-51.5 16.5q-40 0 -55.5 -31t-15.5 -69h-59z" />
    <glyph glyph-name="exclamdown" unicode="&#xa1;" horiz-adv-x="297" 
d="M109 426v77h77v-77h-77zM113 -200l3 519h64l3 -519h-70z" />
    <glyph glyph-name="cent" unicode="&#xa2;" horiz-adv-x="545" 
d="M256 -39v111q-95 11 -148 89t-53 191t53 190.5t148 88.5v111h57v-111q121 -14 179 -148l-64 -24q-46 108 -140 108q-79 0 -120.5 -60t-41.5 -155q0 -96 41 -155.5t121 -59.5q94 0 140 108l64 -25q-61 -137 -179 -148v-111h-57z" />
    <glyph glyph-name="sterling" unicode="&#xa3;" horiz-adv-x="582" 
d="M54 0v62h63v264h-45v55h45v149q0 79 58.5 132t147.5 53q42 0 81.5 -14.5t57.5 -28.5l18 -14l-43 -50q-48 42 -114 42q-63 0 -99.5 -35.5t-36.5 -88.5v-145h191v-55h-191v-264h263q22 0 22 22v47h65v-70q0 -32 -14.5 -46.5t-46.5 -14.5h-422z" />
    <glyph glyph-name="yen" unicode="&#xa5;" horiz-adv-x="607" 
d="M107 213v52h162v41l-29 46h-137v51h105v2l-131 214q-13 22 -48 22h-12v62h24q38 0 58 -10.5t41 -45.5l119 -199l43 -78h2q21 41 43 78l120 199q20 35 40.5 45.5t58.5 10.5h23v-62h-12q-35 0 -48 -22l-130 -214v-2h100v-51h-133l-27 -46v-41h160v-52h-160v-213h-70v213
h-162z" />
    <glyph glyph-name="section" unicode="&#xa7;" horiz-adv-x="415" 
d="M145 85l-68 434q-4 16 -4 35q0 70 47.5 115.5t124.5 45.5q31 0 60 -10.5t43 -20.5l13 -11l-35 -47q-34 29 -81 29t-78.5 -28.5t-31.5 -78.5q0 -16 4 -31l66 -432h-60zM60 -20l35 48q35 -30 82 -30t78 29.5t31 79.5q0 17 -4 32l-65 429h60l68 -434q4 -26 4 -35
q0 -70 -48 -115.5t-125 -45.5q-31 0 -60 10.5t-42 21.5z" />
    <glyph glyph-name="dieresis" unicode="&#xa8;" horiz-adv-x="493" 
d="M307 785v86h59v-86h-59zM157 785v86h59v-86h-59z" />
    <glyph glyph-name="copyright" unicode="&#xa9;" horiz-adv-x="793" 
d="M41 352q0 151 103.5 257t249.5 106q149 0 253.5 -106t104.5 -257q0 -153 -104 -258.5t-254 -105.5q-147 0 -250 106t-103 258zM100 352q0 -131 85 -220.5t209 -89.5q127 0 213.5 89.5t86.5 220.5q0 130 -86.5 219.5t-213.5 89.5q-124 0 -209 -89.5t-85 -219.5zM198 350
q0 84 56 145t150 61q31 0 59 -9.5t46 -23.5t32 -27.5t20 -23.5l6 -9l-46 -31l-5 7.5t-14 16.5t-23.5 21t-32 16.5t-40.5 7.5q-69 0 -109 -44t-40 -106t39.5 -106t109.5 -44q33 0 62 17.5t41 34.5l12 17l46 -31q-2 -4 -6.5 -10t-19.5 -22t-32.5 -28.5t-45.5 -22.5t-59 -10
q-95 0 -150.5 60.5t-55.5 143.5z" />
    <glyph glyph-name="ordfeminine" unicode="&#xaa;" horiz-adv-x="414" 
d="M170 382q-45 0 -77.5 26t-32.5 70q0 110 190 110h13q-1 42 -17 59.5t-54 17.5q-52 0 -52 -20v-24h-53v39q0 20 22 33t43.5 16.5t40.5 3.5q70 0 97.5 -32.5t27.5 -90.5v-142q0 -9 9 -9h29v-51h-47q-41 0 -42 39v12h-2q-3 -6 -9 -15.5t-30.5 -25.5t-55.5 -16zM177 430
q39 0 62 33.5t25 80.5h-12q-135 0 -135 -63q0 -21 16 -36t44 -15zM58 264v47h303v-47h-303z" />
    <glyph glyph-name="guillemotleft" unicode="&#xab;" horiz-adv-x="522" 
d="M217 282l164 206h74l-164 -206l164 -205h-74zM202 77l-164 205l164 206h73l-164 -206l164 -205h-73z" />
    <glyph glyph-name="logicalnot" unicode="&#xac;" 
d="M70 342v58h466v-242h-61v184h-405z" />
    <glyph glyph-name="registered" unicode="&#xae;" horiz-adv-x="793" 
d="M41 352q0 151 103.5 257t249.5 106q149 0 253.5 -106t104.5 -257q0 -153 -104 -258.5t-254 -105.5q-147 0 -250 106t-103 258zM100 352q0 -131 85 -220.5t209 -89.5q127 0 213.5 89.5t86.5 220.5q0 130 -86.5 219.5t-213.5 89.5q-124 0 -209 -89.5t-85 -219.5zM276 157
v343h-36v47h175q52 0 84.5 -32t32.5 -84q0 -41 -21.5 -68.5t-51.5 -34.5v-2q11 -4 20 -21l45 -90q6 -13 27 -13h10v-45h-29q-23 0 -34.5 5.5t-21.5 24.5l-54 106q-12 22 -36 22h-54v-158h-56zM332 359h73q32 0 50.5 19t18.5 53q0 33 -18.5 51t-50.5 18h-73v-141z" />
    <glyph glyph-name="macron" unicode="&#xaf;" horiz-adv-x="461" 
d="M112 785v54h246v-54h-246z" />
    <glyph glyph-name="macron" unicode="&#x2c9;" horiz-adv-x="461" 
d="M112 785v54h246v-54h-246z" />
    <glyph glyph-name="degree" unicode="&#xb0;" horiz-adv-x="383" 
d="M191 436q-58 0 -99 40.5t-41 98.5q0 57 41 98t99 41t99.5 -41t41.5 -98q0 -58 -41 -98.5t-100 -40.5zM191 492q34 0 58 24t24 59q0 34 -24 58.5t-58 24.5t-57 -24.5t-23 -58.5q0 -35 23 -59t57 -24z" />
    <glyph glyph-name="plusminus" unicode="&#xb1;" 
d="M42 255v58h231v255h61v-255h230v-58h-230v-255h-61v255h-231zM60 -104h486v-58h-486v58z" />
    <glyph glyph-name="twosuperior" unicode="&#xb2;" horiz-adv-x="409" 
d="M96 265q-25 0 -35 11t-10 39q0 31 10 55.5t31.5 44.5t37.5 30.5t47 28.5q32 18 49 29.5t33 33.5t16 48q0 31 -21.5 51.5t-57.5 20.5q-28 0 -48 -12t-20 -28v-26h-54v39q0 39 40.5 60t81.5 21q64 0 100.5 -35.5t36.5 -90.5q0 -30 -10 -53.5t-33.5 -43.5t-37.5 -29t-47 -28
t-49 -30t-32 -32.5t-16 -45.5q0 -6 9 -6h175q6 0 6 7v35h54v-50q0 -23 -10.5 -33.5t-33.5 -10.5h-212z" />
    <glyph glyph-name="threesuperior" unicode="&#xb3;" horiz-adv-x="409" 
d="M198 257q-39 0 -76 18t-54 36l-18 18l40 39q5 -6 14.5 -15.5t38 -25.5t56.5 -16q35 0 61.5 24.5t26.5 61.5t-27.5 59t-66.5 22h-35l-10 34l96 117l23 24v2q-17 -3 -36 -3h-95q-10 0 -10 -11v-28h-54v43q0 26 10 36.5t37 10.5h221v-39l-118 -138q47 -4 85 -38.5t38 -91.5
q0 -60 -43.5 -99.5t-103.5 -39.5z" />
    <glyph glyph-name="acute" unicode="&#xb4;" horiz-adv-x="371" 
d="M115 752l70 119h76l-87 -119h-59z" />
    <glyph glyph-name="mu" unicode="&#xb5;" horiz-adv-x="603" 
d="M21 444v59h71q32 0 46.5 -14t14.5 -45v-243q0 -71 22 -110t88 -39q82 0 133.5 62.5t51.5 147.5v241h68v-422q0 -22 22 -22h42v-59h-69q-61 0 -61 56v23l2 36h-3q-2 -5 -6 -13.5t-20.5 -30.5t-36.5 -39t-55.5 -30.5t-76.5 -13.5q-37 0 -65 10.5t-37 21.5l-9 10h-2
q7 -51 7 -76v-154h-63v622q0 22 -22 22h-42z" />
    <glyph glyph-name="mu" unicode="&#x3bc;" horiz-adv-x="603" 
d="M21 444v59h71q32 0 46.5 -14t14.5 -45v-243q0 -71 22 -110t88 -39q82 0 133.5 62.5t51.5 147.5v241h68v-422q0 -22 22 -22h42v-59h-69q-61 0 -61 56v23l2 36h-3q-2 -5 -6 -13.5t-20.5 -30.5t-36.5 -39t-55.5 -30.5t-76.5 -13.5q-37 0 -65 10.5t-37 21.5l-9 10h-2
q7 -51 7 -76v-154h-63v622q0 22 -22 22h-42z" />
    <glyph glyph-name="paragraph" unicode="&#xb6;" horiz-adv-x="574" 
d="M282 -50v291q-98 0 -168.5 67.5t-70.5 164.5t70 163.5t168 66.5h239v-62h-181v-691h-57zM401 -50v631h58v-631h-58z" />
    <glyph glyph-name="periodcentered" unicode="&#xb7;" horiz-adv-x="215" 
d="M69 248v80h77v-80h-77z" />
    <glyph glyph-name="periodcentered" unicode="&#x2219;" horiz-adv-x="215" 
d="M69 248v80h77v-80h-77z" />
    <glyph glyph-name="cedilla" unicode="&#xb8;" horiz-adv-x="413" 
d="M158 20l40 -7v-8l-12 -60q32 -5 51.5 -23.5t19.5 -47.5q0 -40 -28 -59.5t-69 -19.5l-49 5v48q19 -6 42 -6q51 0 51 34t-57 34l-15 -1z" />
    <glyph glyph-name="onesuperior" unicode="&#xb9;" horiz-adv-x="409" 
d="M80 265v52h94v275l1 34h-2q-5 -10 -13 -18l-45 -44l-36 37l102 102h51v-386h93v-52h-245z" />
    <glyph glyph-name="ordmasculine" unicode="&#xba;" horiz-adv-x="456" 
d="M228 383q-70 0 -118.5 48t-48.5 119q0 69 49 116.5t118 47.5t118 -47.5t49 -116.5q0 -71 -48.5 -119t-118.5 -48zM228 434q47 0 79.5 33t32.5 83q0 49 -32.5 81.5t-79.5 32.5t-79.5 -32.5t-32.5 -81.5q0 -50 32.5 -83t79.5 -33zM78 264v47h303v-47h-303z" />
    <glyph glyph-name="guillemotright" unicode="&#xbb;" horiz-adv-x="522" 
d="M246 77l164 205l-164 206h74l164 -206l-164 -205h-74zM66 77l164 205l-164 206h74l164 -206l-164 -205h-74z" />
    <glyph glyph-name="onequarter" unicode="&#xbc;" horiz-adv-x="890" 
d="M269 0l297 703h62l-296 -703h-63zM78 265v52h94v275l1 34h-2q-5 -10 -13 -18l-45 -44l-36 37l102 102h50v-386h92v-52h-243zM496 117v37l208 284h60v-269h67v-52h-67v-117h-57v117h-211zM564 168q14 1 21 1h123v153l1 39h-2q-7 -14 -16 -27l-113 -149l-14 -16v-1z" />
    <glyph glyph-name="onehalf" unicode="&#xbd;" horiz-adv-x="890" 
d="M258 0l297 703h62l-296 -703h-63zM78 265v52h94v275l1 34h-2q-5 -10 -13 -18l-45 -44l-36 37l102 102h50v-386h92v-52h-243zM519 50q0 31 10 56t31.5 44.5t38 30.5t46.5 28q32 18 49 29.5t33 33.5t16 48q0 31 -21.5 51.5t-57.5 20.5q-28 0 -48 -12t-20 -28v-25h-54v38
q0 40 40.5 60.5t81.5 20.5q64 0 100.5 -35.5t36.5 -90.5q0 -30 -10 -53.5t-33 -43t-38 -29.5t-47 -28q-24 -14 -36.5 -22.5t-29 -22.5t-23.5 -29t-7 -33q0 -7 8 -7h175q6 0 6 7v35h54v-50q0 -44 -44 -44h-212q-25 0 -35 11t-10 39z" />
    <glyph glyph-name="threequarters" unicode="&#xbe;" horiz-adv-x="890" 
d="M268 0l297 703h62l-296 -703h-63zM210 257q-39 0 -76 18t-54 36l-18 18l40 39q5 -6 14.5 -15.5t38 -25.5t56.5 -16q35 0 61.5 24.5t26.5 61.5t-27.5 59t-66.5 22h-35l-10 34l96 117l23 24v2q-17 -3 -36 -3h-95q-10 0 -10 -11v-28h-54v43q0 26 10 36.5t37 10.5h221v-39
l-118 -138q47 -4 85 -38.5t38 -91.5q0 -60 -43.5 -99.5t-103.5 -39.5zM496 117v37l208 284h60v-269h67v-52h-67v-117h-57v117h-211zM564 168q14 1 21 1h123v153l1 39h-2q-7 -14 -16 -27l-113 -149l-14 -16v-1z" />
    <glyph glyph-name="questiondown" unicode="&#xbf;" horiz-adv-x="431" 
d="M205 426v77h77v-77h-77zM31 -33q0 46 18.5 82.5t44.5 61.5t52.5 48t45 53.5t18.5 66.5v40h67v-43q0 -44 -18 -80t-43.5 -60.5l-51 -48t-43.5 -53.5t-18 -64q0 -49 37 -82t94 -33q30 0 60.5 10.5t45.5 20.5l15 11l37 -50q-7 -6 -20 -15.5t-55 -25.5t-86 -16q-86 0 -143 50
t-57 127z" />
    <glyph glyph-name="Agrave" unicode="&#xc0;" horiz-adv-x="657" 
d="M12 0v62h13q28 0 36 22l230 619h75l230 -619q8 -22 36 -22h12v-62h-32q-38 0 -54 11t-29 47l-61 166h-279l-62 -166q-14 -36 -29.5 -47t-52.5 -11h-33zM208 285h241l-93 251l-27 91h-2q-15 -58 -27 -91zM299 752l-87 119h76l70 -119h-59z" />
    <glyph glyph-name="Aacute" unicode="&#xc1;" horiz-adv-x="657" 
d="M12 0v62h13q28 0 36 22l230 619h75l230 -619q8 -22 36 -22h12v-62h-32q-38 0 -54 11t-29 47l-61 166h-279l-62 -166q-14 -36 -29.5 -47t-52.5 -11h-33zM208 285h241l-93 251l-27 91h-2q-15 -58 -27 -91zM299 752l70 119h76l-87 -119h-59z" />
    <glyph glyph-name="Acircumflex" unicode="&#xc2;" horiz-adv-x="657" 
d="M12 0v62h13q28 0 36 22l230 619h75l230 -619q8 -22 36 -22h12v-62h-32q-38 0 -54 11t-29 47l-61 166h-279l-62 -166q-14 -36 -29.5 -47t-52.5 -11h-33zM208 285h241l-93 251l-27 91h-2q-15 -58 -27 -91zM211 752l83 119h70l83 -119h-63l-54 81h-2l-54 -81h-63z" />
    <glyph glyph-name="Atilde" unicode="&#xc3;" horiz-adv-x="657" 
d="M12 0v62h13q28 0 36 22l230 619h75l230 -619q8 -22 36 -22h12v-62h-32q-38 0 -54 11t-29 47l-61 166h-279l-62 -166q-14 -36 -29.5 -47t-52.5 -11h-33zM208 285h241l-93 251l-27 91h-2q-15 -58 -27 -91zM171 755q0 117 93 117q29 0 50.5 -18t39.5 -36t36 -18q40 0 40 69
h53q0 -117 -93 -117q-29 0 -51 18t-39.5 35.5t-36.5 17.5q-40 0 -40 -68h-52z" />
    <glyph glyph-name="Adieresis" unicode="&#xc4;" horiz-adv-x="657" 
d="M12 0v62h13q28 0 36 22l230 619h75l230 -619q8 -22 36 -22h12v-62h-32q-38 0 -54 11t-29 47l-61 166h-279l-62 -166q-14 -36 -29.5 -47t-52.5 -11h-33zM208 285h241l-93 251l-27 91h-2q-15 -58 -27 -91zM375 785v86h59v-86h-59zM225 785v86h59v-86h-59z" />
    <glyph glyph-name="Aring" unicode="&#xc5;" horiz-adv-x="657" 
d="M12 0v62h13q28 0 36 22l230 619h75l230 -619q8 -22 36 -22h12v-62h-32q-38 0 -54 11t-29 47l-61 166h-279l-62 -166q-14 -36 -29.5 -47t-52.5 -11h-33zM208 285h241l-93 251l-27 91h-2q-15 -58 -27 -91zM329 741q-31 0 -52.5 20t-21.5 51t21.5 51t52.5 20t52.5 -20
t21.5 -51t-21.5 -51t-52.5 -20zM329 779q14 0 23.5 9.5t9.5 23.5q0 15 -9.5 24.5t-23.5 9.5t-23.5 -9.5t-9.5 -24.5q0 -14 9 -23.5t24 -9.5z" />
    <glyph glyph-name="AE" unicode="&#xc6;" horiz-adv-x="823" 
d="M12 0v62h9q28 0 36 22l238 619h414q32 0 46.5 -14.5t14.5 -46.5v-70h-66v47q0 22 -22 22h-232v-256h256v-62h-256v-239q0 -13 6.5 -17.5t21.5 -4.5h233q22 0 22 22v47h66v-70q0 -32 -14.5 -46.5t-46.5 -14.5h-288q-39 0 -54.5 12.5t-15.5 48.5v262h-159l-100 -265
q-13 -36 -28.5 -47t-53.5 -11h-27zM244 385h136v256h-40z" />
    <glyph glyph-name="Ccedilla" unicode="&#xc7;" horiz-adv-x="694" 
d="M38 357q0 152 99.5 255t247.5 103q40 0 83.5 -8.5t85 -25.5t68 -47t26.5 -68v-58h-66v39q0 46 -63 74t-132 28q-118 0 -197 -82.5t-79 -209.5t78.5 -215t197.5 -88q41 0 79.5 10t65.5 24.5t47.5 29t30.5 24.5l10 10l40 -50l-11.5 -11.5t-33 -27t-54 -34t-74 -27.5
t-93.5 -14l-9 -43q32 -5 51 -23.5t19 -47.5q0 -41 -27.5 -60t-68.5 -19l-49 5v48q19 -6 42 -6q50 0 50 34t-57 34l-14 -1l19 81q-139 13 -225.5 116.5t-86.5 250.5z" />
    <glyph glyph-name="Egrave" unicode="&#xc8;" horiz-adv-x="558" 
d="M107 61v580h-65v62h402q32 0 46.5 -14.5t14.5 -46.5v-70h-66v47q0 22 -22 22h-240v-256h264v-62h-264v-239q0 -22 22 -22h247q22 0 22 22v47h65v-70q0 -32 -14.5 -46.5t-46.5 -14.5h-304q-32 0 -46.5 14.5t-14.5 46.5zM264 752l-87 119h76l70 -119h-59z" />
    <glyph glyph-name="Eacute" unicode="&#xc9;" horiz-adv-x="558" 
d="M107 61v580h-65v62h402q32 0 46.5 -14.5t14.5 -46.5v-70h-66v47q0 22 -22 22h-240v-256h264v-62h-264v-239q0 -22 22 -22h247q22 0 22 22v47h65v-70q0 -32 -14.5 -46.5t-46.5 -14.5h-304q-32 0 -46.5 14.5t-14.5 46.5zM264 752l70 119h76l-87 -119h-59z" />
    <glyph glyph-name="Ecircumflex" unicode="&#xca;" horiz-adv-x="558" 
d="M107 61v580h-65v62h402q32 0 46.5 -14.5t14.5 -46.5v-70h-66v47q0 22 -22 22h-240v-256h264v-62h-264v-239q0 -22 22 -22h247q22 0 22 22v47h65v-70q0 -32 -14.5 -46.5t-46.5 -14.5h-304q-32 0 -46.5 14.5t-14.5 46.5zM176 752l83 119h70l83 -119h-63l-54 81h-2l-54 -81
h-63z" />
    <glyph glyph-name="Edieresis" unicode="&#xcb;" horiz-adv-x="558" 
d="M107 61v580h-65v62h402q32 0 46.5 -14.5t14.5 -46.5v-70h-66v47q0 22 -22 22h-240v-256h264v-62h-264v-239q0 -22 22 -22h247q22 0 22 22v47h65v-70q0 -32 -14.5 -46.5t-46.5 -14.5h-304q-32 0 -46.5 14.5t-14.5 46.5zM340 785v86h59v-86h-59zM190 785v86h59v-86h-59z
" />
    <glyph glyph-name="Igrave" unicode="&#xcc;" horiz-adv-x="293" 
d="M46 0v62h66v579h-66v62h201v-62h-67v-579h67v-62h-201zM116 752l-87 119h76l70 -119h-59z" />
    <glyph glyph-name="Iacute" unicode="&#xcd;" horiz-adv-x="293" 
d="M46 0v62h66v579h-66v62h201v-62h-67v-579h67v-62h-201zM116 752l70 119h76l-87 -119h-59z" />
    <glyph glyph-name="Icircumflex" unicode="&#xce;" horiz-adv-x="293" 
d="M46 0v62h66v579h-66v62h201v-62h-67v-579h67v-62h-201zM28 752l83 119h70l83 -119h-63l-54 81h-2l-54 -81h-63z" />
    <glyph glyph-name="Idieresis" unicode="&#xcf;" horiz-adv-x="293" 
d="M46 0v62h66v579h-66v62h201v-62h-67v-579h67v-62h-201zM192 785v86h59v-86h-59zM42 785v86h59v-86h-59z" />
    <glyph glyph-name="Eth" unicode="&#xd0;" horiz-adv-x="715" 
d="M107 61v262h-50v60h50v258h-65v62h282q161 0 257 -93.5t96 -257.5q0 -166 -96 -259t-257 -93h-156q-32 0 -46.5 14.5t-14.5 46.5zM177 84q0 -22 22 -22h118q132 0 209.5 75.5t77.5 214.5q0 138 -77.5 213.5t-209.5 75.5h-140v-258h164v-60h-164v-239z" />
    <glyph glyph-name="Ntilde" unicode="&#xd1;" horiz-adv-x="760" 
d="M42 0v62h43q22 0 22 22v619h64l359 -501l57 -92h2q-5 55 -5 92v440q0 32 14.5 46.5t46.5 14.5h74v-62h-43q-22 0 -22 -22v-619h-64l-359 501l-58 91h-2q6 -54 6 -91v-440q0 -32 -14.5 -46.5t-46.5 -14.5h-74zM233 755q0 117 93 117q29 0 50.5 -18t39.5 -36t36 -18
q40 0 40 69h53q0 -117 -93 -117q-29 0 -51 18t-39.5 35.5t-36.5 17.5q-40 0 -40 -68h-52z" />
    <glyph glyph-name="Ograve" unicode="&#xd2;" horiz-adv-x="791" 
d="M38 356q0 151 104 255t254 104t254 -104t104 -255q0 -154 -104.5 -261t-253.5 -107q-150 0 -254 107t-104 261zM111 356q0 -127 83 -214.5t202 -87.5q118 0 201.5 87.5t83.5 214.5q0 124 -83 208.5t-202 84.5t-202 -84.5t-83 -208.5zM363 752l-87 119h76l70 -119h-59z
" />
    <glyph glyph-name="Oacute" unicode="&#xd3;" horiz-adv-x="791" 
d="M38 356q0 151 104 255t254 104t254 -104t104 -255q0 -154 -104.5 -261t-253.5 -107q-150 0 -254 107t-104 261zM111 356q0 -127 83 -214.5t202 -87.5q118 0 201.5 87.5t83.5 214.5q0 124 -83 208.5t-202 84.5t-202 -84.5t-83 -208.5zM363 752l70 119h76l-87 -119h-59z
" />
    <glyph glyph-name="Ocircumflex" unicode="&#xd4;" horiz-adv-x="791" 
d="M38 356q0 151 104 255t254 104t254 -104t104 -255q0 -154 -104.5 -261t-253.5 -107q-150 0 -254 107t-104 261zM111 356q0 -127 83 -214.5t202 -87.5q118 0 201.5 87.5t83.5 214.5q0 124 -83 208.5t-202 84.5t-202 -84.5t-83 -208.5zM275 752l83 119h70l83 -119h-63
l-54 81h-2l-54 -81h-63z" />
    <glyph glyph-name="Otilde" unicode="&#xd5;" horiz-adv-x="791" 
d="M38 356q0 151 104 255t254 104t254 -104t104 -255q0 -154 -104.5 -261t-253.5 -107q-150 0 -254 107t-104 261zM111 356q0 -127 83 -214.5t202 -87.5q118 0 201.5 87.5t83.5 214.5q0 124 -83 208.5t-202 84.5t-202 -84.5t-83 -208.5zM235 755q0 117 93 117q29 0 50.5 -18
t39.5 -36t36 -18q40 0 40 69h53q0 -117 -93 -117q-29 0 -51 18t-39.5 35.5t-36.5 17.5q-40 0 -40 -68h-52z" />
    <glyph glyph-name="Odieresis" unicode="&#xd6;" horiz-adv-x="791" 
d="M38 356q0 151 104 255t254 104t254 -104t104 -255q0 -154 -104.5 -261t-253.5 -107q-150 0 -254 107t-104 261zM111 356q0 -127 83 -214.5t202 -87.5q118 0 201.5 87.5t83.5 214.5q0 124 -83 208.5t-202 84.5t-202 -84.5t-83 -208.5zM439 785v86h59v-86h-59zM289 785v86
h59v-86h-59z" />
    <glyph glyph-name="multiply" unicode="&#xd7;" 
d="M48 41l216 243l-216 243l41 41l214 -241l214 241l41 -41l-217 -243l217 -243l-41 -41l-214 241l-214 -241z" />
    <glyph glyph-name="Oslash" unicode="&#xd8;" horiz-adv-x="794" 
d="M116 5l49 69q-59 51 -92.5 124.5t-33.5 157.5q0 151 104 255t254 104q102 0 189 -54l48 67l41 -30l-47 -66q127 -109 127 -276q0 -154 -104.5 -261t-253.5 -107q-105 0 -191 56l-48 -68zM207 131l340 475q-70 43 -150 43q-119 0 -202 -84.5t-83 -208.5q0 -138 95 -225z
M246 99q71 -45 151 -45q119 0 202 87.5t83 214.5q0 133 -96 218z" />
    <glyph glyph-name="Ugrave" unicode="&#xd9;" horiz-adv-x="717" 
d="M99 241v378q0 22 -22 22h-43v62h74q32 0 46.5 -14.5t14.5 -46.5v-398q0 -88 51.5 -139t137.5 -51q87 0 138.5 51.5t51.5 140.5v396q0 32 14.5 46.5t46.5 14.5h74v-62h-43q-22 0 -22 -22v-378q0 -114 -71.5 -183.5t-187.5 -69.5t-188 69.5t-72 183.5zM330 752l-87 119h76
l70 -119h-59z" />
    <glyph glyph-name="Uacute" unicode="&#xda;" horiz-adv-x="717" 
d="M99 241v378q0 22 -22 22h-43v62h74q32 0 46.5 -14.5t14.5 -46.5v-398q0 -88 51.5 -139t137.5 -51q87 0 138.5 51.5t51.5 140.5v396q0 32 14.5 46.5t46.5 14.5h74v-62h-43q-22 0 -22 -22v-378q0 -114 -71.5 -183.5t-187.5 -69.5t-188 69.5t-72 183.5zM330 752l70 119h76
l-87 -119h-59z" />
    <glyph glyph-name="Ucircumflex" unicode="&#xdb;" horiz-adv-x="717" 
d="M99 241v378q0 22 -22 22h-43v62h74q32 0 46.5 -14.5t14.5 -46.5v-398q0 -88 51.5 -139t137.5 -51q87 0 138.5 51.5t51.5 140.5v396q0 32 14.5 46.5t46.5 14.5h74v-62h-43q-22 0 -22 -22v-378q0 -114 -71.5 -183.5t-187.5 -69.5t-188 69.5t-72 183.5zM242 752l83 119h70
l83 -119h-63l-54 81h-2l-54 -81h-63z" />
    <glyph glyph-name="Udieresis" unicode="&#xdc;" horiz-adv-x="717" 
d="M99 241v378q0 22 -22 22h-43v62h74q32 0 46.5 -14.5t14.5 -46.5v-398q0 -88 51.5 -139t137.5 -51q87 0 138.5 51.5t51.5 140.5v396q0 32 14.5 46.5t46.5 14.5h74v-62h-43q-22 0 -22 -22v-378q0 -114 -71.5 -183.5t-187.5 -69.5t-188 69.5t-72 183.5zM406 785v86h59v-86
h-59zM256 785v86h59v-86h-59z" />
    <glyph glyph-name="Yacute" unicode="&#xdd;" horiz-adv-x="592" 
d="M261 0v306l-188 309q-16 26 -47 26h-16v62h27q37 0 55.5 -10t40.5 -46l119 -199l43 -79h2q21 42 43 79l119 199q22 36 40.5 46t55.5 10h27v-62h-16q-31 0 -46 -26l-189 -309v-306h-70zM267 752l70 119h76l-87 -119h-59z" />
    <glyph glyph-name="Thorn" unicode="&#xde;" horiz-adv-x="584" 
d="M107 0v619q0 22 -22 22h-43v62h74q32 0 46.5 -14.5t14.5 -46.5v-64h162q95 0 156 -58t61 -155q0 -96 -61.5 -155t-157.5 -59h-160v-151h-70zM177 213h153q70 0 112 40.5t42 111.5t-41.5 111t-111.5 40h-154v-303z" />
    <glyph glyph-name="germandbls" unicode="&#xdf;" horiz-adv-x="558" 
d="M20 0v59h41q22 0 22 22v450q0 85 60 134.5t141 49.5q78 0 126.5 -44t48.5 -105q0 -33 -17.5 -62.5t-38 -46.5t-38 -38.5t-17.5 -41.5q0 -24 30.5 -50.5t67 -49t67 -61.5t30.5 -85q0 -68 -47 -105.5t-115 -37.5q-43 0 -81.5 14.5t-55.5 29.5l-18 14l25 53q6 -6 17 -14
t44 -22t64 -14q42 0 70 21t28 63q0 33 -30.5 64t-67.5 52.5t-67.5 55t-30.5 70.5q0 28 17.5 54t38 43.5t38 42t17.5 50.5q0 35 -28.5 61.5t-79.5 26.5q-52 0 -91 -34t-39 -93v-465q0 -32 -14.5 -46.5t-46.5 -14.5h-70z" />
    <glyph glyph-name="agrave" unicode="&#xe0;" horiz-adv-x="529" 
d="M40 137q0 173 308 173h28v6q0 78 -30 110t-100 32q-31 0 -64.5 -10t-33.5 -34v-32h-65v48q0 24 19 42.5t47.5 27t53 12t44.5 3.5q111 0 154 -51t43 -142v-241q0 -22 22 -22h42v-59h-69q-32 0 -46 14.5t-14 45.5l1 37h-2q1 0 -4.5 -11t-18 -27.5t-30.5 -32.5t-48.5 -27
t-65.5 -11q-69 0 -120 39t-51 110zM110 141q0 -38 29.5 -66.5t82.5 -28.5q68 0 111 58t43 129v23h-29q-27 0 -45.5 -1t-50 -4t-53 -10.5t-43.5 -19.5t-33.5 -32.5t-11.5 -47.5zM230 584l-87 119h76l70 -119h-59z" />
    <glyph glyph-name="aacute" unicode="&#xe1;" horiz-adv-x="529" 
d="M40 137q0 173 308 173h28v6q0 78 -30 110t-100 32q-31 0 -64.5 -10t-33.5 -34v-32h-65v48q0 24 19 42.5t47.5 27t53 12t44.5 3.5q111 0 154 -51t43 -142v-241q0 -22 22 -22h42v-59h-69q-32 0 -46 14.5t-14 45.5l1 37h-2q1 0 -4.5 -11t-18 -27.5t-30.5 -32.5t-48.5 -27
t-65.5 -11q-69 0 -120 39t-51 110zM110 141q0 -38 29.5 -66.5t82.5 -28.5q68 0 111 58t43 129v23h-29q-27 0 -45.5 -1t-50 -4t-53 -10.5t-43.5 -19.5t-33.5 -32.5t-11.5 -47.5zM230 584l70 119h76l-87 -119h-59z" />
    <glyph glyph-name="acircumflex" unicode="&#xe2;" horiz-adv-x="529" 
d="M40 137q0 173 308 173h28v6q0 78 -30 110t-100 32q-31 0 -64.5 -10t-33.5 -34v-32h-65v48q0 24 19 42.5t47.5 27t53 12t44.5 3.5q111 0 154 -51t43 -142v-241q0 -22 22 -22h42v-59h-69q-32 0 -46 14.5t-14 45.5l1 37h-2q1 0 -4.5 -11t-18 -27.5t-30.5 -32.5t-48.5 -27
t-65.5 -11q-69 0 -120 39t-51 110zM110 141q0 -38 29.5 -66.5t82.5 -28.5q68 0 111 58t43 129v23h-29q-27 0 -45.5 -1t-50 -4t-53 -10.5t-43.5 -19.5t-33.5 -32.5t-11.5 -47.5zM142 584l83 119h70l83 -119h-63l-54 81h-2l-54 -81h-63z" />
    <glyph glyph-name="atilde" unicode="&#xe3;" horiz-adv-x="529" 
d="M40 137q0 173 308 173h28v6q0 78 -30 110t-100 32q-31 0 -64.5 -10t-33.5 -34v-32h-65v48q0 24 19 42.5t47.5 27t53 12t44.5 3.5q111 0 154 -51t43 -142v-241q0 -22 22 -22h42v-59h-69q-32 0 -46 14.5t-14 45.5l1 37h-2q1 0 -4.5 -11t-18 -27.5t-30.5 -32.5t-48.5 -27
t-65.5 -11q-69 0 -120 39t-51 110zM110 141q0 -38 29.5 -66.5t82.5 -28.5q68 0 111 58t43 129v23h-29q-27 0 -45.5 -1t-50 -4t-53 -10.5t-43.5 -19.5t-33.5 -32.5t-11.5 -47.5zM102 587q0 117 93 117q29 0 50.5 -18t39.5 -36t36 -18q40 0 40 69h53q0 -117 -93 -117
q-29 0 -51 18t-39.5 35.5t-36.5 17.5q-40 0 -40 -68h-52z" />
    <glyph glyph-name="adieresis" unicode="&#xe4;" horiz-adv-x="529" 
d="M40 137q0 173 308 173h28v6q0 78 -30 110t-100 32q-31 0 -64.5 -10t-33.5 -34v-32h-65v48q0 24 19 42.5t47.5 27t53 12t44.5 3.5q111 0 154 -51t43 -142v-241q0 -22 22 -22h42v-59h-69q-32 0 -46 14.5t-14 45.5l1 37h-2q1 0 -4.5 -11t-18 -27.5t-30.5 -32.5t-48.5 -27
t-65.5 -11q-69 0 -120 39t-51 110zM110 141q0 -38 29.5 -66.5t82.5 -28.5q68 0 111 58t43 129v23h-29q-27 0 -45.5 -1t-50 -4t-53 -10.5t-43.5 -19.5t-33.5 -32.5t-11.5 -47.5zM306 617v86h59v-86h-59zM156 617v86h59v-86h-59z" />
    <glyph glyph-name="aring" unicode="&#xe5;" horiz-adv-x="529" 
d="M40 137q0 173 308 173h28v6q0 78 -30 110t-100 32q-31 0 -64.5 -10t-33.5 -34v-32h-65v48q0 24 19 42.5t47.5 27t53 12t44.5 3.5q111 0 154 -51t43 -142v-241q0 -22 22 -22h42v-59h-69q-32 0 -46 14.5t-14 45.5l1 37h-2q1 0 -4.5 -11t-18 -27.5t-30.5 -32.5t-48.5 -27
t-65.5 -11q-69 0 -120 39t-51 110zM110 141q0 -38 29.5 -66.5t82.5 -28.5q68 0 111 58t43 129v23h-29q-27 0 -45.5 -1t-50 -4t-53 -10.5t-43.5 -19.5t-33.5 -32.5t-11.5 -47.5zM260 573q-31 0 -52.5 20t-21.5 51t21.5 51t52.5 20t52.5 -20t21.5 -51t-21.5 -51t-52.5 -20z
M260 611q14 0 23.5 9.5t9.5 23.5q0 15 -9.5 24.5t-23.5 9.5t-23.5 -9.5t-9.5 -24.5q0 -14 9 -23.5t24 -9.5z" />
    <glyph glyph-name="ae" unicode="&#xe6;" horiz-adv-x="871" 
d="M40 137q0 34 11.5 60.5t28.5 44t44 30t51.5 19t58.5 10t55.5 4t52.5 0.5h33v11q0 78 -30 110t-99 32q-32 0 -65 -10t-33 -34v-32h-65v48q0 42 51 63.5t113 21.5q141 0 174 -104h2q62 104 190 104q98 0 152.5 -64.5t54.5 -154.5l-2 -45h-377q2 -96 54.5 -149t133.5 -53
q40 0 78 15.5t55 31.5l18 15l32 -51q-8 -8 -23 -20t-63.5 -32t-99.5 -20q-77 0 -135 37t-86 103h-2q-3 -11 -9.5 -25t-22.5 -35.5t-35.5 -38t-52 -29t-70.5 -12.5q-73 0 -123 39.5t-50 109.5zM446 305h305q-3 74 -43.5 113t-97.5 39q-64 0 -108.5 -39.5t-55.5 -112.5z
M110 141q0 -39 30 -67t83 -28q68 0 110.5 58.5t42.5 129.5v17h-59q-40 0 -69.5 -3t-64.5 -13t-54 -34t-19 -60z" />
    <glyph glyph-name="ccedilla" unicode="&#xe7;" horiz-adv-x="528" 
d="M40 251q0 115 76 189.5t189 74.5q24 0 52.5 -5.5t58 -16.5t49 -33.5t19.5 -51.5v-45h-64v29q0 29 -38.5 45.5t-76.5 16.5q-83 0 -139 -56.5t-56 -146.5t57.5 -145.5t139.5 -55.5q46 0 86.5 18t58.5 36l17 17l32 -51q-3 -3 -8 -8.5t-24 -19.5t-40.5 -25t-55.5 -20t-71 -9
l-8 -43q32 -5 51 -23.5t19 -47.5q0 -41 -27.5 -60t-68.5 -19l-50 5v48q19 -6 42 -6q51 0 51 34t-57 34l-15 -1l19 83q-96 14 -157 84.5t-61 174.5z" />
    <glyph glyph-name="egrave" unicode="&#xe8;" horiz-adv-x="548" 
d="M40 251q0 120 71.5 192t176.5 72q100 0 155.5 -66.5t55.5 -165.5l-2 -34h-386q1 -92 57.5 -146t137.5 -54q41 0 78.5 15.5t55.5 31.5l17 15l33 -51q-8 -8 -23.5 -20t-64 -32t-99.5 -20q-113 0 -188 74t-75 189zM114 303h315q-3 75 -43 115t-99 40q-65 0 -113 -41
t-60 -114zM256 584l-87 119h76l70 -119h-59z" />
    <glyph glyph-name="eacute" unicode="&#xe9;" horiz-adv-x="548" 
d="M40 251q0 120 71.5 192t176.5 72q100 0 155.5 -66.5t55.5 -165.5l-2 -34h-386q1 -92 57.5 -146t137.5 -54q41 0 78.5 15.5t55.5 31.5l17 15l33 -51q-8 -8 -23.5 -20t-64 -32t-99.5 -20q-113 0 -188 74t-75 189zM114 303h315q-3 75 -43 115t-99 40q-65 0 -113 -41
t-60 -114zM256 584l70 119h76l-87 -119h-59z" />
    <glyph glyph-name="ecircumflex" unicode="&#xea;" horiz-adv-x="548" 
d="M40 251q0 120 71.5 192t176.5 72q100 0 155.5 -66.5t55.5 -165.5l-2 -34h-386q1 -92 57.5 -146t137.5 -54q41 0 78.5 15.5t55.5 31.5l17 15l33 -51q-8 -8 -23.5 -20t-64 -32t-99.5 -20q-113 0 -188 74t-75 189zM114 303h315q-3 75 -43 115t-99 40q-65 0 -113 -41
t-60 -114zM168 584l83 119h70l83 -119h-63l-54 81h-2l-54 -81h-63z" />
    <glyph glyph-name="edieresis" unicode="&#xeb;" horiz-adv-x="548" 
d="M40 251q0 120 71.5 192t176.5 72q100 0 155.5 -66.5t55.5 -165.5l-2 -34h-386q1 -92 57.5 -146t137.5 -54q41 0 78.5 15.5t55.5 31.5l17 15l33 -51q-8 -8 -23.5 -20t-64 -32t-99.5 -20q-113 0 -188 74t-75 189zM114 303h315q-3 75 -43 115t-99 40q-65 0 -113 -41
t-60 -114zM332 617v86h59v-86h-59zM182 617v86h59v-86h-59z" />
    <glyph glyph-name="igrave" unicode="&#xec;" horiz-adv-x="252" 
d="M93 61v361q0 22 -22 22h-42v59h71q32 0 46.5 -14.5t14.5 -46.5v-361q0 -22 22 -22h42v-59h-71q-32 0 -46.5 14.5t-14.5 46.5zM89 584l-86 119h76l69 -119h-59z" />
    <glyph glyph-name="iacute" unicode="&#xed;" horiz-adv-x="252" 
d="M93 61v361q0 22 -22 22h-42v59h71q32 0 46.5 -14.5t14.5 -46.5v-361q0 -22 22 -22h42v-59h-71q-32 0 -46.5 14.5t-14.5 46.5zM89 584l70 119h76l-87 -119h-59z" />
    <glyph glyph-name="icircumflex" unicode="&#xee;" horiz-adv-x="252" 
d="M93 61v361q0 22 -22 22h-42v59h71q32 0 46.5 -14.5t14.5 -46.5v-361q0 -22 22 -22h42v-59h-71q-32 0 -46.5 14.5t-14.5 46.5zM1 584l84 119h69l84 -119h-63l-54 81h-2l-55 -81h-63z" />
    <glyph glyph-name="idieresis" unicode="&#xef;" horiz-adv-x="252" 
d="M93 61v361q0 22 -22 22h-42v59h71q32 0 46.5 -14.5t14.5 -46.5v-361q0 -22 22 -22h42v-59h-71q-32 0 -46.5 14.5t-14.5 46.5zM151 617v86h59v-86h-59zM25 617v86h60v-86h-60z" />
    <glyph glyph-name="eth" unicode="&#xf0;" horiz-adv-x="565" 
d="M37 232q0 96 63.5 165.5t175.5 69.5q43 0 79 -13.5t51 -27.5l14 -13h2q-34 97 -124 159l-176 -80l-13 48l135 63q-64 33 -142 51l20 58q115 -29 196 -77l131 59l13 -48l-97 -45q151 -118 151 -328q0 -52 -14.5 -101t-43.5 -91t-78 -67.5t-112 -25.5q-105 0 -168 73
t-63 171zM107 231q0 -74 44 -128t119 -54q86 0 131 64.5t45 146.5q0 65 -45 107t-118 42q-85 0 -130.5 -52.5t-45.5 -125.5z" />
    <glyph glyph-name="ntilde" unicode="&#xf1;" horiz-adv-x="608" 
d="M87 0v422q0 22 -22 22h-42v59h70q61 0 61 -56v-23l-2 -36h2q18 46 69.5 86.5t130.5 40.5q91 0 130 -49t39 -146v-239q0 -22 22 -22h42v-59h-71q-32 0 -46.5 14.5t-14.5 46.5v241q0 71 -21.5 110t-87.5 39q-64 0 -115 -39.5t-68 -102.5q-8 -28 -8 -68v-241h-68zM159 587
q0 117 93 117q29 0 50.5 -18t39.5 -36t36 -18q40 0 40 69h53q0 -117 -93 -117q-29 0 -51 18t-39.5 35.5t-36.5 17.5q-40 0 -40 -68h-52z" />
    <glyph glyph-name="ograve" unicode="&#xf2;" horiz-adv-x="611" 
d="M40 254q0 111 77.5 186t187.5 75q111 0 188.5 -75t77.5 -186q0 -113 -77.5 -189.5t-187.5 -76.5q-111 0 -188.5 76.5t-77.5 189.5zM110 254q0 -87 57 -146t139 -59q81 0 138 59t57 146q0 85 -57 142t-138 57q-82 0 -139 -57t-57 -142zM276 584l-87 119h76l70 -119h-59z
" />
    <glyph glyph-name="oacute" unicode="&#xf3;" horiz-adv-x="611" 
d="M40 254q0 111 77.5 186t187.5 75q111 0 188.5 -75t77.5 -186q0 -113 -77.5 -189.5t-187.5 -76.5q-111 0 -188.5 76.5t-77.5 189.5zM110 254q0 -87 57 -146t139 -59q81 0 138 59t57 146q0 85 -57 142t-138 57q-82 0 -139 -57t-57 -142zM276 584l70 119h76l-87 -119h-59z
" />
    <glyph glyph-name="ocircumflex" unicode="&#xf4;" horiz-adv-x="611" 
d="M40 254q0 111 77.5 186t187.5 75q111 0 188.5 -75t77.5 -186q0 -113 -77.5 -189.5t-187.5 -76.5q-111 0 -188.5 76.5t-77.5 189.5zM110 254q0 -87 57 -146t139 -59q81 0 138 59t57 146q0 85 -57 142t-138 57q-82 0 -139 -57t-57 -142zM188 584l83 119h70l83 -119h-63
l-54 81h-2l-54 -81h-63z" />
    <glyph glyph-name="otilde" unicode="&#xf5;" horiz-adv-x="611" 
d="M40 254q0 111 77.5 186t187.5 75q111 0 188.5 -75t77.5 -186q0 -113 -77.5 -189.5t-187.5 -76.5q-111 0 -188.5 76.5t-77.5 189.5zM110 254q0 -87 57 -146t139 -59q81 0 138 59t57 146q0 85 -57 142t-138 57q-82 0 -139 -57t-57 -142zM148 587q0 117 93 117
q29 0 50.5 -18t39.5 -36t36 -18q40 0 40 69h53q0 -117 -93 -117q-29 0 -51 18t-39.5 35.5t-36.5 17.5q-40 0 -40 -68h-52z" />
    <glyph glyph-name="odieresis" unicode="&#xf6;" horiz-adv-x="611" 
d="M40 254q0 111 77.5 186t187.5 75q111 0 188.5 -75t77.5 -186q0 -113 -77.5 -189.5t-187.5 -76.5q-111 0 -188.5 76.5t-77.5 189.5zM110 254q0 -87 57 -146t139 -59q81 0 138 59t57 146q0 85 -57 142t-138 57q-82 0 -139 -57t-57 -142zM352 617v86h59v-86h-59zM202 617v86
h59v-86h-59z" />
    <glyph glyph-name="divide" unicode="&#xf7;" 
d="M257 433v74h75v-74h-75zM50 255v58h490v-58h-490zM257 61v74h75v-74h-75z" />
    <glyph glyph-name="oslash" unicode="&#xf8;" horiz-adv-x="611" 
d="M98 -3l37 51q-95 79 -95 206q0 111 77.5 186t187.5 75q75 0 137 -37l39 55l41 -30l-39 -54q88 -77 88 -195q0 -113 -77.5 -189.5t-187.5 -76.5q-71 0 -129 32l-38 -53zM173 102l232 324q-46 27 -99 27q-82 0 -139 -57t-57 -142q0 -91 63 -152zM214 73q43 -24 92 -24
q81 0 138 59t57 146q0 84 -58 140z" />
    <glyph glyph-name="ugrave" unicode="&#xf9;" horiz-adv-x="603" 
d="M85 183v239q0 22 -22 22h-42v59h71q32 0 46.5 -14t14.5 -45v-243q0 -71 22 -110t88 -39q82 0 133.5 62.5t51.5 147.5v241h68v-422q0 -22 22 -22h42v-59h-69q-61 0 -61 56v23l2 36h-2q-19 -46 -70.5 -86.5t-125.5 -40.5q-88 0 -128.5 48t-40.5 147zM265 584l-87 119h76
l70 -119h-59z" />
    <glyph glyph-name="uacute" unicode="&#xfa;" horiz-adv-x="603" 
d="M85 183v239q0 22 -22 22h-42v59h71q32 0 46.5 -14t14.5 -45v-243q0 -71 22 -110t88 -39q82 0 133.5 62.5t51.5 147.5v241h68v-422q0 -22 22 -22h42v-59h-69q-61 0 -61 56v23l2 36h-2q-19 -46 -70.5 -86.5t-125.5 -40.5q-88 0 -128.5 48t-40.5 147zM265 584l70 119h76
l-87 -119h-59z" />
    <glyph glyph-name="ucircumflex" unicode="&#xfb;" horiz-adv-x="603" 
d="M85 183v239q0 22 -22 22h-42v59h71q32 0 46.5 -14t14.5 -45v-243q0 -71 22 -110t88 -39q82 0 133.5 62.5t51.5 147.5v241h68v-422q0 -22 22 -22h42v-59h-69q-61 0 -61 56v23l2 36h-2q-19 -46 -70.5 -86.5t-125.5 -40.5q-88 0 -128.5 48t-40.5 147zM177 584l83 119h70
l83 -119h-63l-54 81h-2l-54 -81h-63z" />
    <glyph glyph-name="udieresis" unicode="&#xfc;" horiz-adv-x="603" 
d="M85 183v239q0 22 -22 22h-42v59h71q32 0 46.5 -14t14.5 -45v-243q0 -71 22 -110t88 -39q82 0 133.5 62.5t51.5 147.5v241h68v-422q0 -22 22 -22h42v-59h-69q-61 0 -61 56v23l2 36h-2q-19 -46 -70.5 -86.5t-125.5 -40.5q-88 0 -128.5 48t-40.5 147zM341 617v86h59v-86h-59
zM191 617v86h59v-86h-59z" />
    <glyph glyph-name="yacute" unicode="&#xfd;" horiz-adv-x="539" 
d="M40 -111q0 -2 9 -10.5t28 -18t38 -9.5q59 0 93 82l30 69l-177 419q-10 23 -35 23h-10v59h31q34 0 48.5 -10.5t28.5 -44.5l129 -314l18 -54h2q7 29 17 54l124 314q13 34 28 44.5t50 10.5h31v-59h-10q-26 0 -35 -23l-217 -526q-20 -49 -57.5 -77t-86.5 -28q-31 0 -58.5 12
t-38.5 24l-12 13zM238 584l70 119h76l-87 -119h-59z" />
    <glyph glyph-name="thorn" unicode="&#xfe;" horiz-adv-x="584" 
d="M84 -200v822q0 22 -22 22h-42v59h71q32 0 46.5 -14.5t14.5 -46.5v-179l-2 -44h2q49 96 169 96q102 0 161.5 -72.5t59.5 -190.5t-59.5 -191t-161.5 -73q-36 0 -66.5 9.5t-48.5 23.5t-31 28t-18 23l-5 10h-2q2 -18 2 -44v-238h-68zM150 251q0 -103 47 -152.5t117 -49.5
q71 0 114.5 55.5t43.5 147.5q0 91 -43.5 146t-114.5 55q-72 0 -118 -49t-46 -153z" />
    <glyph glyph-name="ydieresis" unicode="&#xff;" horiz-adv-x="539" 
d="M40 -111q0 -2 9 -10.5t28 -18t38 -9.5q59 0 93 82l30 69l-177 419q-10 23 -35 23h-10v59h31q34 0 48.5 -10.5t28.5 -44.5l129 -314l18 -54h2q7 29 17 54l124 314q13 34 28 44.5t50 10.5h31v-59h-10q-26 0 -35 -23l-217 -526q-20 -49 -57.5 -77t-86.5 -28q-31 0 -58.5 12
t-38.5 24l-12 13zM314 617v86h59v-86h-59zM164 617v86h59v-86h-59z" />
    <glyph glyph-name="Amacron" unicode="&#x100;" horiz-adv-x="657" 
d="M12 0v62h13q28 0 36 22l230 619h75l230 -619q8 -22 36 -22h12v-62h-32q-38 0 -54 11t-29 47l-61 166h-279l-62 -166q-14 -36 -29.5 -47t-52.5 -11h-33zM208 285h241l-93 251l-27 91h-2q-15 -58 -27 -91zM206 785v54h246v-54h-246z" />
    <glyph glyph-name="amacron" unicode="&#x101;" horiz-adv-x="529" 
d="M40 137q0 173 308 173h28v6q0 78 -30 110t-100 32q-31 0 -64.5 -10t-33.5 -34v-32h-65v48q0 24 19 42.5t47.5 27t53 12t44.5 3.5q111 0 154 -51t43 -142v-241q0 -22 22 -22h42v-59h-69q-32 0 -46 14.5t-14 45.5l1 37h-2q1 0 -4.5 -11t-18 -27.5t-30.5 -32.5t-48.5 -27
t-65.5 -11q-69 0 -120 39t-51 110zM110 141q0 -38 29.5 -66.5t82.5 -28.5q68 0 111 58t43 129v23h-29q-27 0 -45.5 -1t-50 -4t-53 -10.5t-43.5 -19.5t-33.5 -32.5t-11.5 -47.5zM137 617v54h246v-54h-246z" />
    <glyph glyph-name="Abreve" unicode="&#x102;" horiz-adv-x="657" 
d="M12 0v62h13q28 0 36 22l230 619h75l230 -619q8 -22 36 -22h12v-62h-32q-38 0 -54 11t-29 47l-61 166h-279l-62 -166q-14 -36 -29.5 -47t-52.5 -11h-33zM208 285h241l-93 251l-27 91h-2q-15 -58 -27 -91zM329 749q-46 0 -80 28.5t-34 78.5v15h52v-13q0 -31 17.5 -46.5
t44.5 -15.5q26 0 43.5 15.5t17.5 46.5v13h52v-15q0 -50 -33.5 -78.5t-79.5 -28.5z" />
    <glyph glyph-name="abreve" unicode="&#x103;" horiz-adv-x="529" 
d="M40 137q0 173 308 173h28v6q0 78 -30 110t-100 32q-31 0 -64.5 -10t-33.5 -34v-32h-65v48q0 24 19 42.5t47.5 27t53 12t44.5 3.5q111 0 154 -51t43 -142v-241q0 -22 22 -22h42v-59h-69q-32 0 -46 14.5t-14 45.5l1 37h-2q1 0 -4.5 -11t-18 -27.5t-30.5 -32.5t-48.5 -27
t-65.5 -11q-69 0 -120 39t-51 110zM110 141q0 -38 29.5 -66.5t82.5 -28.5q68 0 111 58t43 129v23h-29q-27 0 -45.5 -1t-50 -4t-53 -10.5t-43.5 -19.5t-33.5 -32.5t-11.5 -47.5zM260 581q-46 0 -80 28.5t-34 78.5v15h52v-13q0 -31 17.5 -46.5t44.5 -15.5q26 0 43.5 15.5
t17.5 46.5v13h52v-15q0 -50 -33.5 -78.5t-79.5 -28.5z" />
    <glyph glyph-name="Aogonek" unicode="&#x104;" horiz-adv-x="657" 
d="M12 0v62h13q28 0 36 22l230 619h75l230 -619q8 -22 36 -22h12v-62q-72 -58 -72 -99q0 -20 15.5 -32.5t30.5 -14.5l16 -3l-16 -56q-4 0 -11.5 1t-26.5 7t-33 15t-26 27t-12 42q0 63 69 115v2q-19 4 -29 15.5t-20 38.5l-61 166h-279l-62 -166q-14 -36 -29.5 -47t-52.5 -11
h-33zM208 285h241l-93 251l-27 91h-2q-15 -58 -27 -91z" />
    <glyph glyph-name="aogonek" unicode="&#x105;" horiz-adv-x="529" 
d="M40 137q0 173 308 173h28v6q0 77 -30 109.5t-100 32.5q-31 0 -64.5 -10.5t-33.5 -33.5v-32h-65v48q0 25 18.5 43t47 26.5t53 12t45.5 3.5q111 0 154 -51t43 -142v-241q0 -22 22 -22h42v-59q-73 -56 -73 -99q0 -20 15.5 -32.5t31.5 -14.5l15 -3l-15 -56q-4 0 -11.5 1
t-26.5 7t-33.5 15t-26.5 27t-12 42q0 62 66 111v2h-11q-49 0 -49 56v7l2 34h-2q-1 -4 -4.5 -11.5t-17 -26.5t-31 -33t-50 -26t-71.5 -12q-68 0 -116 41.5t-48 107.5zM110 141q0 -38 29.5 -66.5t82.5 -28.5q68 0 111 58t43 129v23h-29q-27 0 -45.5 -1t-50 -4t-53 -10.5
t-43.5 -19.5t-33.5 -32.5t-11.5 -47.5z" />
    <glyph glyph-name="Cacute" unicode="&#x106;" horiz-adv-x="694" 
d="M38 357q0 152 99.5 255t247.5 103q40 0 83.5 -8.5t85 -25.5t68 -47t26.5 -68v-58h-66v39q0 46 -63 74t-132 28q-118 0 -197 -82.5t-79 -209.5t80 -215t199 -88q64 0 121.5 25t82.5 49l26 25l40 -51q-4 -5 -11.5 -12.5t-33.5 -27t-55.5 -34.5t-75.5 -27.5t-95 -12.5
q-153 0 -252 106.5t-99 262.5zM353 752l70 119h76l-87 -119h-59z" />
    <glyph glyph-name="cacute" unicode="&#x107;" horiz-adv-x="528" 
d="M40 251q0 115 76 189.5t189 74.5q24 0 52.5 -5.5t58 -16.5t49 -33.5t19.5 -51.5v-45h-64v29q0 29 -38.5 45.5t-76.5 16.5q-83 0 -139 -56.5t-56 -146.5t57.5 -145.5t139.5 -55.5q46 0 86.5 18t58.5 36l17 17l32 -51q-3 -3 -8 -8.5t-24 -20t-40 -25t-55 -19.5t-70 -9
q-114 0 -189 73.5t-75 189.5zM261 584l70 119h76l-87 -119h-59z" />
    <glyph glyph-name="Ccircumflex" unicode="&#x108;" horiz-adv-x="694" 
d="M38 357q0 152 99.5 255t247.5 103q40 0 83.5 -8.5t85 -25.5t68 -47t26.5 -68v-58h-66v39q0 46 -63 74t-132 28q-118 0 -197 -82.5t-79 -209.5t80 -215t199 -88q64 0 121.5 25t82.5 49l26 25l40 -51q-4 -5 -11.5 -12.5t-33.5 -27t-55.5 -34.5t-75.5 -27.5t-95 -12.5
q-153 0 -252 106.5t-99 262.5zM265 752l83 119h70l83 -119h-63l-54 81h-2l-54 -81h-63z" />
    <glyph glyph-name="ccircumflex" unicode="&#x109;" horiz-adv-x="528" 
d="M40 251q0 115 76 189.5t189 74.5q24 0 52.5 -5.5t58 -16.5t49 -33.5t19.5 -51.5v-45h-64v29q0 29 -38.5 45.5t-76.5 16.5q-83 0 -139 -56.5t-56 -146.5t57.5 -145.5t139.5 -55.5q46 0 86.5 18t58.5 36l17 17l32 -51q-3 -3 -8 -8.5t-24 -20t-40 -25t-55 -19.5t-70 -9
q-114 0 -189 73.5t-75 189.5zM173 584l83 119h70l83 -119h-63l-54 81h-2l-54 -81h-63z" />
    <glyph glyph-name="Cdotaccent" unicode="&#x10a;" horiz-adv-x="694" 
d="M38 357q0 152 99.5 255t247.5 103q40 0 83.5 -8.5t85 -25.5t68 -47t26.5 -68v-58h-66v39q0 46 -63 74t-132 28q-118 0 -197 -82.5t-79 -209.5t80 -215t199 -88q64 0 121.5 25t82.5 49l26 25l40 -51q-4 -5 -11.5 -12.5t-33.5 -27t-55.5 -34.5t-75.5 -27.5t-95 -12.5
q-153 0 -252 106.5t-99 262.5zM350 785v86h66v-86h-66z" />
    <glyph glyph-name="cdotaccent" unicode="&#x10b;" horiz-adv-x="528" 
d="M40 251q0 115 76 189.5t189 74.5q24 0 52.5 -5.5t58 -16.5t49 -33.5t19.5 -51.5v-45h-64v29q0 29 -38.5 45.5t-76.5 16.5q-83 0 -139 -56.5t-56 -146.5t57.5 -145.5t139.5 -55.5q46 0 86.5 18t58.5 36l17 17l32 -51q-3 -3 -8 -8.5t-24 -20t-40 -25t-55 -19.5t-70 -9
q-114 0 -189 73.5t-75 189.5zM258 617v86h66v-86h-66z" />
    <glyph glyph-name="Ccaron" unicode="&#x10c;" horiz-adv-x="694" 
d="M38 357q0 152 99.5 255t247.5 103q40 0 83.5 -8.5t85 -25.5t68 -47t26.5 -68v-58h-66v39q0 46 -63 74t-132 28q-118 0 -197 -82.5t-79 -209.5t80 -215t199 -88q64 0 121.5 25t82.5 49l26 25l40 -51q-4 -5 -11.5 -12.5t-33.5 -27t-55.5 -34.5t-75.5 -27.5t-95 -12.5
q-153 0 -252 106.5t-99 262.5zM348 752l-84 119h64l54 -80h2l54 80h63l-84 -119h-69z" />
    <glyph glyph-name="ccaron" unicode="&#x10d;" horiz-adv-x="528" 
d="M40 251q0 115 76 189.5t189 74.5q24 0 52.5 -5.5t58 -16.5t49 -33.5t19.5 -51.5v-45h-64v29q0 29 -38.5 45.5t-76.5 16.5q-83 0 -139 -56.5t-56 -146.5t57.5 -145.5t139.5 -55.5q46 0 86.5 18t58.5 36l17 17l32 -51q-3 -3 -8 -8.5t-24 -20t-40 -25t-55 -19.5t-70 -9
q-114 0 -189 73.5t-75 189.5zM256 584l-84 119h64l54 -80h2l54 80h63l-84 -119h-69z" />
    <glyph glyph-name="Dcaron" unicode="&#x10e;" horiz-adv-x="715" 
d="M107 61v580h-65v62h282q161 0 257 -93.5t96 -257.5q0 -166 -96 -259t-257 -93h-156q-32 0 -46.5 14.5t-14.5 46.5zM177 84q0 -22 22 -22h118q132 0 209.5 75.5t77.5 214.5q0 138 -77.5 213.5t-209.5 75.5h-140v-557zM315 752l-84 119h64l54 -80h2l54 80h63l-84 -119h-69z
" />
    <glyph glyph-name="dcaron" unicode="&#x10f;" horiz-adv-x="664" 
d="M42 252q0 118 63 190.5t163 72.5q34 0 63.5 -9.5t47 -23.5t30.5 -28t18 -24l5 -9h2q-2 17 -2 38v163q0 22 -22 22h-42v59h71q32 0 46.5 -14.5t14.5 -46.5v-561q0 -22 22 -22h42v-59h-70q-60 0 -60 56l2 32h-2l-5.5 -11t-17.5 -24t-32 -30t-49.5 -24t-68.5 -11
q-100 0 -159.5 73t-59.5 191zM271 49q69 0 116 51t47 152q0 83 -42 142.5t-118 59.5q-69 0 -115.5 -55t-46.5 -147t44 -147.5t115 -55.5zM562 703h62q7 -24 7 -48q0 -36 -24 -89h-53q19 48 19 80q0 28 -11 57z" />
    <glyph glyph-name="Dcroat" unicode="&#x110;" horiz-adv-x="715" 
d="M107 61v262h-50v60h50v258h-65v62h282q161 0 257 -93.5t96 -257.5q0 -166 -96 -259t-257 -93h-156q-32 0 -46.5 14.5t-14.5 46.5zM177 84q0 -22 22 -22h118q132 0 209.5 75.5t77.5 214.5q0 138 -77.5 213.5t-209.5 75.5h-140v-258h164v-60h-164v-239z" />
    <glyph glyph-name="dcroat" unicode="&#x111;" horiz-adv-x="588" 
d="M261 -12q-100 0 -159.5 73t-59.5 191t63 190.5t163 72.5q34 0 63.5 -9.5t47 -23.5t30.5 -28t18 -24l5 -9h2q-2 17 -2 38v107h-131v51h131v86h68v-86h80v-51h-80v-485q0 -22 22 -22h42v-59h-70q-60 0 -60 56l2 32h-2l-5.5 -11t-17.5 -24t-32 -30t-49.5 -24t-68.5 -11z
M271 49q69 0 116 51t47 152q0 83 -42 142.5t-118 59.5q-69 0 -115.5 -55t-46.5 -147t44 -147.5t115 -55.5z" />
    <glyph glyph-name="Emacron" unicode="&#x112;" horiz-adv-x="558" 
d="M107 61v580h-65v62h402q32 0 46.5 -14.5t14.5 -46.5v-70h-66v47q0 22 -22 22h-240v-256h264v-62h-264v-239q0 -22 22 -22h247q22 0 22 22v47h65v-70q0 -32 -14.5 -46.5t-46.5 -14.5h-304q-32 0 -46.5 14.5t-14.5 46.5zM171 785v54h246v-54h-246z" />
    <glyph glyph-name="emacron" unicode="&#x113;" horiz-adv-x="548" 
d="M40 251q0 120 71.5 192t176.5 72q100 0 155.5 -66.5t55.5 -165.5l-2 -34h-386q1 -92 57.5 -146t137.5 -54q41 0 78.5 15.5t55.5 31.5l17 15l33 -51q-8 -8 -23.5 -20t-64 -32t-99.5 -20q-113 0 -188 74t-75 189zM114 303h315q-3 75 -43 115t-99 40q-65 0 -113 -41
t-60 -114zM163 617v54h246v-54h-246z" />
    <glyph glyph-name="Ebreve" unicode="&#x114;" horiz-adv-x="558" 
d="M107 61v580h-65v62h402q32 0 46.5 -14.5t14.5 -46.5v-70h-66v47q0 22 -22 22h-240v-256h264v-62h-264v-239q0 -22 22 -22h247q22 0 22 22v47h65v-70q0 -32 -14.5 -46.5t-46.5 -14.5h-304q-32 0 -46.5 14.5t-14.5 46.5zM295 749q-46 0 -80 28.5t-34 78.5v15h52v-13
q0 -31 17.5 -46.5t44.5 -15.5q26 0 43.5 15.5t17.5 46.5v13h52v-15q0 -50 -33.5 -78.5t-79.5 -28.5z" />
    <glyph glyph-name="ebreve" unicode="&#x115;" horiz-adv-x="548" 
d="M40 251q0 120 71.5 192t176.5 72q100 0 155.5 -66.5t55.5 -165.5l-2 -34h-386q1 -92 57.5 -146t137.5 -54q41 0 78.5 15.5t55.5 31.5l17 15l33 -51q-8 -8 -23.5 -20t-64 -32t-99.5 -20q-113 0 -188 74t-75 189zM114 303h315q-3 75 -43 115t-99 40q-65 0 -113 -41
t-60 -114zM286 581q-46 0 -80 28.5t-34 78.5v15h52v-13q0 -31 17.5 -46.5t44.5 -15.5q26 0 43.5 15.5t17.5 46.5v13h52v-15q0 -50 -33.5 -78.5t-79.5 -28.5z" />
    <glyph glyph-name="Edotaccent" unicode="&#x116;" horiz-adv-x="558" 
d="M107 61v580h-65v62h402q32 0 46.5 -14.5t14.5 -46.5v-70h-66v47q0 22 -22 22h-240v-256h264v-62h-264v-239q0 -22 22 -22h247q22 0 22 22v47h65v-70q0 -32 -14.5 -46.5t-46.5 -14.5h-304q-32 0 -46.5 14.5t-14.5 46.5zM261 785v86h66v-86h-66z" />
    <glyph glyph-name="edotaccent" unicode="&#x117;" horiz-adv-x="548" 
d="M40 251q0 120 71.5 192t176.5 72q100 0 155.5 -66.5t55.5 -165.5l-2 -34h-386q1 -92 57.5 -146t137.5 -54q41 0 78.5 15.5t55.5 31.5l17 15l33 -51q-8 -8 -23.5 -20t-64 -32t-99.5 -20q-113 0 -188 74t-75 189zM114 303h315q-3 75 -43 115t-99 40q-65 0 -113 -41
t-60 -114zM253 617v86h66v-86h-66z" />
    <glyph glyph-name="Eogonek" unicode="&#x118;" horiz-adv-x="558" 
d="M107 61v580h-65v62h402q32 0 46.5 -14.5t14.5 -46.5v-70h-66v47q0 22 -22 22h-240v-256h264v-62h-264v-239q0 -22 22 -22h247q22 0 22 22v47h65v-70q0 -34 -20 -52q-3 -2 -14.5 -11.5t-16.5 -14l-15.5 -13.5t-15.5 -16l-11.5 -16t-9 -18t-2.5 -19q0 -20 15.5 -32.5
t30.5 -14.5l16 -3l-15 -56q-4 0 -11.5 1t-26.5 7t-33.5 15t-26.5 27t-12 42q0 63 65 111v2h-262q-32 0 -46.5 14.5t-14.5 46.5z" />
    <glyph glyph-name="eogonek" unicode="&#x119;" horiz-adv-x="548" 
d="M40 251q0 120 71.5 192t176.5 72q100 0 155.5 -66.5t55.5 -165.5l-2 -34h-386q1 -91 57.5 -145.5t137.5 -54.5q41 0 78.5 15.5t55.5 31.5l17 15l33 -51q-10 -9 -53 -40t-67.5 -59.5t-24.5 -59.5q0 -20 15.5 -32.5t31.5 -14.5l15 -3l-15 -56q-4 0 -11.5 1t-26.5 7
t-33.5 15t-26.5 27t-12 42q0 52 54 102v2q-15 -3 -33 -3q-113 0 -188 74t-75 189zM114 303h315q-4 75 -43.5 115t-98.5 40q-65 0 -113 -41t-60 -114z" />
    <glyph glyph-name="Ecaron" unicode="&#x11a;" horiz-adv-x="558" 
d="M107 61v580h-65v62h402q32 0 46.5 -14.5t14.5 -46.5v-70h-66v47q0 22 -22 22h-240v-256h264v-62h-264v-239q0 -22 22 -22h247q22 0 22 22v47h65v-70q0 -32 -14.5 -46.5t-46.5 -14.5h-304q-32 0 -46.5 14.5t-14.5 46.5zM259 752l-84 119h64l54 -80h2l54 80h63l-84 -119
h-69z" />
    <glyph glyph-name="ecaron" unicode="&#x11b;" horiz-adv-x="548" 
d="M40 251q0 120 71.5 192t176.5 72q100 0 155.5 -66.5t55.5 -165.5l-2 -34h-386q1 -92 57.5 -146t137.5 -54q41 0 78.5 15.5t55.5 31.5l17 15l33 -51q-8 -8 -23.5 -20t-64 -32t-99.5 -20q-113 0 -188 74t-75 189zM114 303h315q-3 75 -43 115t-99 40q-65 0 -113 -41
t-60 -114zM251 584l-84 119h64l54 -80h2l54 80h63l-84 -119h-69z" />
    <glyph glyph-name="Gcircumflex" unicode="&#x11c;" horiz-adv-x="730" 
d="M39 353q0 152 101 257t250 105q72 0 133.5 -21.5t86.5 -43.5l26 -21l-41 -52q-9 8 -25.5 20t-69.5 32t-109 20q-119 0 -199 -84.5t-80 -211.5q0 -129 79 -214t199 -85q39 0 76 10.5t62.5 26t45 30.5t28.5 25l10 11v87q0 22 -22 22h-43v62h70q32 0 46.5 -14.5t14.5 -46.5
v-267h-64v53l1 30h-2q-3 -4 -9.5 -10.5t-28.5 -22.5t-47 -28.5t-64.5 -23t-80.5 -10.5q-145 0 -244.5 104t-99.5 261zM269 752l83 119h70l83 -119h-63l-54 81h-2l-54 -81h-63z" />
    <glyph glyph-name="gcircumflex" unicode="&#x11d;" horiz-adv-x="579" 
d="M42 261q0 114 59 184t159 70q38 0 69 -9t48.5 -21.5t29.5 -25t16 -21.5l4 -9h2v19q0 55 57 55h70v-59h-41q-22 0 -22 -22v-410q0 -112 -69.5 -167t-172.5 -55q-86 0 -164 40l26 57q62 -35 136 -35q79 0 127.5 39t48.5 119v44l1 36h-2q-47 -87 -158 -87q-101 0 -162.5 72
t-61.5 186zM276 64q67 0 108.5 46.5t41.5 150.5q0 192 -159 192q-73 0 -114 -50.5t-41 -140.5t45 -144t119 -54zM171 584l83 119h70l83 -119h-63l-54 81h-2l-54 -81h-63z" />
    <glyph glyph-name="Gbreve" unicode="&#x11e;" horiz-adv-x="730" 
d="M39 353q0 152 101 257t250 105q72 0 133.5 -21.5t86.5 -43.5l26 -21l-41 -52q-9 8 -25.5 20t-69.5 32t-109 20q-119 0 -199 -84.5t-80 -211.5q0 -129 79 -214t199 -85q39 0 76 10.5t62.5 26t45 30.5t28.5 25l10 11v87q0 22 -22 22h-43v62h70q32 0 46.5 -14.5t14.5 -46.5
v-267h-64v53l1 30h-2q-3 -4 -9.5 -10.5t-28.5 -22.5t-47 -28.5t-64.5 -23t-80.5 -10.5q-145 0 -244.5 104t-99.5 261zM388 749q-46 0 -80 28.5t-34 78.5v15h52v-13q0 -31 17.5 -46.5t44.5 -15.5q26 0 43.5 15.5t17.5 46.5v13h52v-15q0 -50 -33.5 -78.5t-79.5 -28.5z" />
    <glyph glyph-name="gbreve" unicode="&#x11f;" horiz-adv-x="579" 
d="M42 261q0 114 59 184t159 70q38 0 69 -9t48.5 -21.5t29.5 -25t16 -21.5l4 -9h2v19q0 55 57 55h70v-59h-41q-22 0 -22 -22v-410q0 -112 -69.5 -167t-172.5 -55q-86 0 -164 40l26 57q62 -35 136 -35q79 0 127.5 39t48.5 119v44l1 36h-2q-47 -87 -158 -87q-101 0 -162.5 72
t-61.5 186zM276 64q67 0 108.5 46.5t41.5 150.5q0 192 -159 192q-73 0 -114 -50.5t-41 -140.5t45 -144t119 -54zM290 581q-46 0 -80 28.5t-34 78.5v15h52v-13q0 -31 17.5 -46.5t44.5 -15.5q26 0 43.5 15.5t17.5 46.5v13h52v-15q0 -50 -33.5 -78.5t-79.5 -28.5z" />
    <glyph glyph-name="Gdotaccent" unicode="&#x120;" horiz-adv-x="730" 
d="M39 353q0 152 101 257t250 105q72 0 133.5 -21.5t86.5 -43.5l26 -21l-41 -52q-9 8 -25.5 20t-69.5 32t-109 20q-119 0 -199 -84.5t-80 -211.5q0 -129 79 -214t199 -85q39 0 76 10.5t62.5 26t45 30.5t28.5 25l10 11v87q0 22 -22 22h-43v62h70q32 0 46.5 -14.5t14.5 -46.5
v-267h-64v53l1 30h-2q-3 -4 -9.5 -10.5t-28.5 -22.5t-47 -28.5t-64.5 -23t-80.5 -10.5q-145 0 -244.5 104t-99.5 261zM355 785v86h66v-86h-66z" />
    <glyph glyph-name="gdotaccent" unicode="&#x121;" horiz-adv-x="579" 
d="M42 261q0 114 59 184t159 70q38 0 69 -9t48.5 -21.5t29.5 -25t16 -21.5l4 -9h2v19q0 55 57 55h70v-59h-41q-22 0 -22 -22v-410q0 -112 -69.5 -167t-172.5 -55q-86 0 -164 40l26 57q62 -35 136 -35q79 0 127.5 39t48.5 119v44l1 36h-2q-47 -87 -158 -87q-101 0 -162.5 72
t-61.5 186zM276 64q67 0 108.5 46.5t41.5 150.5q0 192 -159 192q-73 0 -114 -50.5t-41 -140.5t45 -144t119 -54zM256 617v86h66v-86h-66z" />
    <glyph glyph-name="Gcommaaccent" unicode="&#x122;" horiz-adv-x="730" 
d="M39 353q0 152 101 257t250 105q72 0 133.5 -21.5t86.5 -43.5l26 -21l-41 -52q-9 8 -25.5 20t-69.5 32t-109 20q-119 0 -199 -84.5t-80 -211.5q0 -129 79 -214t199 -85q39 0 76 10.5t62.5 26t45 30.5t28.5 25l10 11v87q0 22 -22 22h-43v62h70q32 0 46.5 -14.5t14.5 -46.5
v-267h-64v53l1 30h-2q-3 -4 -9.5 -10.5t-28.5 -22.5t-47 -28.5t-64.5 -23t-80.5 -10.5q-145 0 -244.5 104t-99.5 261zM347 -63h62q7 -24 7 -48q0 -36 -24 -89h-53q19 48 19 80q0 28 -11 57z" />
    <glyph glyph-name="gcommaaccent" unicode="&#x123;" horiz-adv-x="579" 
d="M42 261q0 114 59 184t159 70q38 0 69 -9t48.5 -21.5t29.5 -25t16 -21.5l4 -9h2v19q0 55 57 55h70v-59h-41q-22 0 -22 -22v-410q0 -112 -69.5 -167t-172.5 -55q-86 0 -164 40l26 57q62 -35 136 -35q79 0 127.5 39t48.5 119v44l1 36h-2q-47 -87 -158 -87q-101 0 -162.5 72
t-61.5 186zM276 64q67 0 108.5 46.5t41.5 150.5q0 192 -159 192q-73 0 -114 -50.5t-41 -140.5t45 -144t119 -54zM311 566h-62q-7 24 -7 48q0 36 24 89h53q-19 -47 -19 -80q0 -28 11 -57z" />
    <glyph glyph-name="Hcircumflex" unicode="&#x124;" horiz-adv-x="757" 
d="M107 0v619q0 22 -22 22h-43v62h74q32 0 46.5 -14.5t14.5 -46.5v-259h404v259q0 32 14 46.5t46 14.5h75v-62h-43q-22 0 -22 -22v-619h-70v321h-404v-321h-70zM261 752l83 119h70l83 -119h-63l-54 81h-2l-54 -81h-63z" />
    <glyph glyph-name="hcircumflex" unicode="&#x125;" horiz-adv-x="605" 
d="M84 0v622q0 22 -22 22h-42v59h71q32 0 46.5 -14t14.5 -45v-213l-2 -41h2q18 45 70.5 85t128.5 40q91 0 130 -49t39 -146v-239q0 -22 22 -22h42v-59h-71q-32 0 -46.5 14.5t-14.5 46.5v241q0 34 -3.5 57.5t-14.5 46t-34 34t-58 11.5q-64 0 -114.5 -40t-67.5 -103
q-8 -27 -8 -67v-241h-68zM200 752l83 119h70l83 -119h-63l-54 81h-2l-54 -81h-63z" />
    <glyph glyph-name="Hbar" unicode="&#x126;" horiz-adv-x="757" 
d="M107 0v512h-66v54h66v137h70v-137h404v137h70v-137h65v-54h-65v-512h-70v321h-404v-321h-70zM177 383h404v129h-404v-129z" />
    <glyph glyph-name="hbar" unicode="&#x127;" horiz-adv-x="605" 
d="M84 0v566h-79v51h79v86h68v-86h131v-51h-131v-135l-2 -41h2q6 16 20 35.5t37.5 40.5t61 35t80.5 14q91 0 130 -49t39 -146v-239q0 -22 22 -22h42v-59h-71q-32 0 -46.5 14.5t-14.5 46.5v241q0 34 -3.5 57t-14.5 46t-34 34.5t-58 11.5q-82 0 -136 -60.5t-54 -149.5v-241
h-68z" />
    <glyph glyph-name="Itilde" unicode="&#x128;" horiz-adv-x="293" 
d="M46 0v62h66v579h-66v62h201v-62h-67v-579h67v-62h-201zM-12 755q0 117 93 117q29 0 50.5 -18t39.5 -36t36 -18q40 0 40 69h53q0 -117 -93 -117q-29 0 -51 18t-39.5 35.5t-36.5 17.5q-40 0 -40 -68h-52z" />
    <glyph glyph-name="itilde" unicode="&#x129;" horiz-adv-x="252" 
d="M93 61v361q0 22 -22 22h-42v59h71q32 0 46.5 -14.5t14.5 -46.5v-361q0 -22 22 -22h42v-59h-71q-32 0 -46.5 14.5t-14.5 46.5zM-16 587q0 117 83 117q24 0 42.5 -17.5t32 -35t25.5 -17.5q34 0 34 67h50q0 -117 -83 -117q-24 0 -42.5 17.5t-32 35t-24.5 17.5q-34 0 -34 -67
h-51z" />
    <glyph glyph-name="Imacron" unicode="&#x12a;" horiz-adv-x="293" 
d="M46 0v62h66v579h-66v62h201v-62h-67v-579h67v-62h-201zM23 785v54h246v-54h-246z" />
    <glyph glyph-name="imacron" unicode="&#x12b;" horiz-adv-x="252" 
d="M93 61v361q0 22 -22 22h-42v59h71q32 0 46.5 -14.5t14.5 -46.5v-361q0 -22 22 -22h42v-59h-71q-32 0 -46.5 14.5t-14.5 46.5zM13 617v54h214v-54h-214z" />
    <glyph glyph-name="Ibreve" unicode="&#x12c;" horiz-adv-x="293" 
d="M46 0v62h66v579h-66v62h201v-62h-67v-579h67v-62h-201zM146 749q-46 0 -80 28.5t-34 78.5v15h52v-13q0 -31 17.5 -46.5t44.5 -15.5q26 0 43.5 15.5t17.5 46.5v13h52v-15q0 -50 -33.5 -78.5t-79.5 -28.5z" />
    <glyph glyph-name="ibreve" unicode="&#x12d;" horiz-adv-x="252" 
d="M93 61v361q0 22 -22 22h-42v59h71q32 0 46.5 -14.5t14.5 -46.5v-361q0 -22 22 -22h42v-59h-71q-32 0 -46.5 14.5t-14.5 46.5zM120 581q-46 0 -80 28.5t-34 78.5v15h52v-13q0 -31 17.5 -46.5t44.5 -15.5q26 0 43.5 15.5t17.5 46.5v13h52v-15q0 -50 -33.5 -78.5
t-79.5 -28.5z" />
    <glyph glyph-name="Iogonek" unicode="&#x12e;" horiz-adv-x="293" 
d="M46 0v62h66v579h-66v62h201v-62h-67v-579h67v-62q-73 -56 -73 -99q0 -20 15.5 -32.5t30.5 -14.5l16 -3l-15 -56q-4 0 -11.5 1t-26.5 7t-33.5 15t-26.5 27t-12 42q0 63 65 111v2h-130z" />
    <glyph glyph-name="iogonek" unicode="&#x12f;" horiz-adv-x="251" 
d="M90 617v86h66v-86h-66zM160 442v-361q0 -22 22 -22h42v-59q-72 -58 -72 -99q0 -20 15.5 -32.5t30.5 -14.5l16 -3l-16 -56q-4 0 -11.5 1t-26.5 7t-33 15t-26 27t-12 42q0 62 65 111v2h-11q-29 0 -40 21t-11 62v339q0 22 -22 22h-42v59h71q32 0 46.5 -14.5t14.5 -46.5z" />
    <glyph glyph-name="Idotaccent" unicode="&#x130;" horiz-adv-x="293" 
d="M46 0v62h66v579h-66v62h201v-62h-67v-579h67v-62h-201zM113 785v86h66v-86h-66z" />
    <glyph glyph-name="dotlessi" unicode="&#x131;" horiz-adv-x="252" 
d="M93 61v361q0 22 -22 22h-42v59h71q32 0 46.5 -14.5t14.5 -46.5v-361q0 -22 22 -22h42v-59h-71q-32 0 -46.5 14.5t-14.5 46.5z" />
    <glyph glyph-name="IJ" unicode="&#x132;" horiz-adv-x="642" 
d="M341 -5v65q147 0 147 168v391q0 22 -22 22h-119v62h150q32 0 46.5 -14.5t14.5 -46.5v-414q0 -233 -217 -233zM46 0v62h66v579h-66v62h201v-62h-67v-579h67v-62h-201z" />
    <glyph glyph-name="ij" unicode="&#x133;" horiz-adv-x="510" 
d="M90 617v86h66v-86h-66zM92 61v361q0 22 -22 22h-42v59h71q32 0 46.5 -14.5t14.5 -46.5v-361q0 -22 22 -22h42v-59h-71q-32 0 -46.5 14.5t-14.5 46.5zM355 617v86h66v-86h-66zM220 -144q9 -1 22 -1q18 0 35 4.5t36.5 16.5t31.5 40t12 68v438q0 22 -22 22h-42v59h71
q32 0 46.5 -14.5t14.5 -46.5v-461q0 -59 -18.5 -99t-49 -57.5t-56 -24t-52.5 -6.5l-29 3v59z" />
    <glyph glyph-name="Jcircumflex" unicode="&#x134;" horiz-adv-x="505" 
d="M24 197v28h70v-24q0 -77 37.5 -112t91.5 -35q53 0 90 35t37 110v420q0 22 -22 22h-174v62h205q32 0 46.5 -14.5t14.5 -46.5v-445q0 -106 -58 -157.5t-140 -51.5t-140 52t-58 157zM162 752l83 119h70l83 -119h-63l-54 81h-2l-54 -81h-63z" />
    <glyph glyph-name="jcircumflex" unicode="&#x135;" horiz-adv-x="267" 
d="M6 584l84 119h69l84 -119h-63l-56 82l-55 -82h-63zM-21 -144q9 -2 22 -2q18 0 35 4.5t36.5 16.5t31 40t11.5 68v440q0 22 -23 22h-41v58h70q33 0 47 -13t14 -45v-464q0 -48 -13 -83.5t-31.5 -54.5t-44 -31t-45 -15t-40.5 -3l-29 3v59z" />
    <glyph glyph-name="Kcommaaccent" unicode="&#x136;" horiz-adv-x="590" 
d="M107 0v619q0 22 -22 22h-43v62h74q32 0 46.5 -14.5t14.5 -46.5v-244h84q44 0 59 25l170 280h80l-181 -295q-8 -13 -17 -22.5t-14 -13.5l-5 -3v-2q17 -6 34 -40l122 -242q7 -15 18 -19t33 -4h20v-62h-37q-44 0 -62 9.5t-35 43.5l-128 257q-12 26 -64 26h-77v-336h-70z
M280 -63h62q7 -24 7 -48q0 -36 -24 -89h-53q19 48 19 80q0 28 -11 57z" />
    <glyph glyph-name="kcommaaccent" unicode="&#x137;" horiz-adv-x="498" 
d="M84 0v622q0 22 -22 22h-42v59h71q33 0 47 -13t14 -45v-334h52q38 0 57 24l129 168h83l-145 -184q-11 -14 -20.5 -23t-13.5 -11l-4 -2v-2q15 -7 31 -37l91 -163q7 -13 16.5 -17.5t29.5 -4.5h27v-59h-47q-38 0 -54 9.5t-33 40.5l-100 180q-12 22 -53 22h-46v-252h-68z
M231 -63h62q7 -24 7 -48q0 -36 -24 -89h-53q19 48 19 80q0 28 -11 57z" />
    <glyph glyph-name="kgreenlandic" unicode="&#x138;" horiz-adv-x="498" 
d="M84 0v422q0 22 -22 22h-42v59h71q33 0 47 -13t14 -45v-157h52q39 0 57 24l137 191h82l-153 -206q-11 -14 -20 -23t-13 -11l-3 -2v-2q13 -6 30 -37l79 -141q7 -13 16.5 -17.5t29.5 -4.5h32v-59h-52q-38 0 -54 9.5t-33 40.5l-88 157q-12 22 -53 22h-46v-229h-68z" />
    <glyph glyph-name="Lacute" unicode="&#x139;" horiz-adv-x="530" 
d="M107 61v558q0 22 -22 22h-43v62h74q32 0 46.5 -14.5t14.5 -46.5v-558q0 -22 22 -22h233q22 0 22 22v47h66v-70q0 -32 -14.5 -46.5t-46.5 -14.5h-291q-32 0 -46.5 14.5t-14.5 46.5zM115 752l70 119h76l-87 -119h-59z" />
    <glyph glyph-name="lacute" unicode="&#x13a;" horiz-adv-x="245" 
d="M86 61v561q0 22 -22 22h-42v59h71q32 0 46.5 -14.5t14.5 -46.5v-561q0 -22 22 -22h42v-59h-71q-32 0 -46.5 14.5t-14.5 46.5zM75 752l70 119h76l-87 -119h-59z" />
    <glyph glyph-name="Lcommaaccent" unicode="&#x13b;" horiz-adv-x="530" 
d="M107 61v558q0 22 -22 22h-43v62h74q32 0 46.5 -14.5t14.5 -46.5v-558q0 -22 22 -22h233q22 0 22 22v47h66v-70q0 -32 -14.5 -46.5t-46.5 -14.5h-291q-32 0 -46.5 14.5t-14.5 46.5zM279 -63h62q7 -24 7 -48q0 -36 -24 -89h-53q19 48 19 80q0 28 -11 57z" />
    <glyph glyph-name="lcommaaccent" unicode="&#x13c;" horiz-adv-x="245" 
d="M86 61v561q0 22 -22 22h-42v59h71q32 0 46.5 -14.5t14.5 -46.5v-561q0 -22 22 -22h42v-59h-71q-32 0 -46.5 14.5t-14.5 46.5zM103 -63h62q7 -24 7 -48q0 -36 -24 -89h-53q19 48 19 80q0 28 -11 57z" />
    <glyph glyph-name="Lcaron" unicode="&#x13d;" horiz-adv-x="530" 
d="M107 61v558q0 22 -22 22h-43v62h74q32 0 46.5 -14.5t14.5 -46.5v-558q0 -22 22 -22h233q22 0 22 22v47h66v-70q0 -32 -14.5 -46.5t-46.5 -14.5h-291q-32 0 -46.5 14.5t-14.5 46.5zM268 703h62q7 -24 7 -48q0 -36 -24 -89h-53q19 48 19 80q0 28 -11 57z" />
    <glyph glyph-name="lcaron" unicode="&#x13e;" horiz-adv-x="318" 
d="M86 61v561q0 22 -22 22h-42v59h71q32 0 46.5 -14.5t14.5 -46.5v-561q0 -22 22 -22h42v-59h-71q-32 0 -46.5 14.5t-14.5 46.5zM216 703h62q7 -24 7 -48q0 -36 -24 -89h-53q19 48 19 80q0 28 -11 57z" />
    <glyph glyph-name="Ldot" unicode="&#x13f;" horiz-adv-x="530" 
d="M107 61v558q0 22 -22 22h-43v62h74q32 0 46.5 -14.5t14.5 -46.5v-558q0 -22 22 -22h233q22 0 22 22v47h66v-70q0 -32 -14.5 -46.5t-46.5 -14.5h-291q-32 0 -46.5 14.5t-14.5 46.5zM301 332v80h77v-80h-77z" />
    <glyph glyph-name="ldot" unicode="&#x140;" horiz-adv-x="305" 
d="M86 61v561q0 22 -22 22h-42v59h71q32 0 46.5 -14.5t14.5 -46.5v-561q0 -22 22 -22h42v-59h-71q-32 0 -46.5 14.5t-14.5 46.5zM223 332v80h77v-80h-77z" />
    <glyph glyph-name="Lslash" unicode="&#x141;" horiz-adv-x="530" 
d="M107 61v277l-65 -36v70l65 37v210q0 22 -22 22h-43v62h74q32 0 46.5 -14.5t14.5 -46.5v-193l109 64v-72l-109 -63v-294q0 -22 22 -22h233q22 0 22 22v47h66v-70q0 -32 -14.5 -46.5t-46.5 -14.5h-291q-32 0 -46.5 14.5t-14.5 46.5z" />
    <glyph glyph-name="lslash" unicode="&#x142;" horiz-adv-x="267" 
d="M101 61v294l-85 -48v71l85 49v195q0 22 -22 22h-42v59h71q32 0 46.5 -14.5t14.5 -46.5v-176l83 48v-72l-83 -48v-313q0 -22 22 -22h42v-59h-71q-32 0 -46.5 14.5t-14.5 46.5z" />
    <glyph glyph-name="Nacute" unicode="&#x143;" horiz-adv-x="760" 
d="M42 0v62h43q22 0 22 22v619h64l359 -501l57 -92h2q-5 55 -5 92v440q0 32 14.5 46.5t46.5 14.5h74v-62h-43q-22 0 -22 -22v-619h-64l-359 501l-58 91h-2q6 -54 6 -91v-440q0 -32 -14.5 -46.5t-46.5 -14.5h-74zM361 752l70 119h76l-87 -119h-59z" />
    <glyph glyph-name="nacute" unicode="&#x144;" horiz-adv-x="608" 
d="M87 0v422q0 22 -22 22h-42v59h70q61 0 61 -56v-23l-2 -36h2q18 46 69.5 86.5t130.5 40.5q91 0 130 -49t39 -146v-239q0 -22 22 -22h42v-59h-71q-32 0 -46.5 14.5t-14.5 46.5v241q0 71 -21.5 110t-87.5 39q-64 0 -115 -39.5t-68 -102.5q-8 -28 -8 -68v-241h-68zM287 584
l70 119h76l-87 -119h-59z" />
    <glyph glyph-name="Ncommaaccent" unicode="&#x145;" horiz-adv-x="760" 
d="M42 0v62h43q22 0 22 22v619h64l359 -501l57 -92h2q-5 55 -5 92v440q0 32 14.5 46.5t46.5 14.5h74v-62h-43q-22 0 -22 -22v-619h-64l-359 501l-58 91h-2q6 -54 6 -91v-440q0 -32 -14.5 -46.5t-46.5 -14.5h-74zM344 -63h62q7 -24 7 -48q0 -36 -24 -89h-53q19 48 19 80
q0 28 -11 57z" />
    <glyph glyph-name="ncommaaccent" unicode="&#x146;" horiz-adv-x="608" 
d="M87 0v422q0 22 -22 22h-42v59h70q61 0 61 -56v-23l-2 -36h2q18 46 69.5 86.5t130.5 40.5q91 0 130 -49t39 -146v-239q0 -22 22 -22h42v-59h-71q-32 0 -46.5 14.5t-14.5 46.5v241q0 71 -21.5 110t-87.5 39q-64 0 -115 -39.5t-68 -102.5q-8 -28 -8 -68v-241h-68zM287 -63
h62q7 -24 7 -48q0 -36 -24 -89h-53q19 48 19 80q0 28 -11 57z" />
    <glyph glyph-name="Ncaron" unicode="&#x147;" horiz-adv-x="760" 
d="M42 0v62h43q22 0 22 22v619h64l359 -501l57 -92h2q-5 55 -5 92v440q0 32 14.5 46.5t46.5 14.5h74v-62h-43q-22 0 -22 -22v-619h-64l-359 501l-58 91h-2q6 -54 6 -91v-440q0 -32 -14.5 -46.5t-46.5 -14.5h-74zM356 752l-84 119h64l54 -80h2l54 80h63l-84 -119h-69z" />
    <glyph glyph-name="ncaron" unicode="&#x148;" horiz-adv-x="608" 
d="M87 0v422q0 22 -22 22h-42v59h70q61 0 61 -56v-23l-2 -36h2q18 46 69.5 86.5t130.5 40.5q91 0 130 -49t39 -146v-239q0 -22 22 -22h42v-59h-71q-32 0 -46.5 14.5t-14.5 46.5v241q0 71 -21.5 110t-87.5 39q-64 0 -115 -39.5t-68 -102.5q-8 -28 -8 -68v-241h-68zM282 584
l-84 119h64l54 -80h2l54 80h63l-84 -119h-69z" />
    <glyph glyph-name="napostrophe" unicode="&#x149;" horiz-adv-x="632" 
d="M111 0v422q0 22 -22 22h-42v59h70q61 0 61 -56v-23l-2 -36h2q18 46 69.5 86.5t130.5 40.5q91 0 130 -49t39 -146v-239q0 -22 22 -22h42v-59h-71q-32 0 -46.5 14.5t-14.5 46.5v241q0 71 -21.5 110t-87.5 39q-64 0 -115 -39.5t-68 -102.5q-8 -28 -8 -68v-241h-68zM-1 703
h62q7 -24 7 -48q0 -36 -24 -89h-53q19 48 19 80q0 28 -11 57z" />
    <glyph glyph-name="Eng" unicode="&#x14a;" horiz-adv-x="760" 
d="M42 0v62h43q22 0 22 22v619h64l359 -501l57 -92h2q-5 55 -5 92v440q0 32 14.5 46.5t46.5 14.5h74v-62h-43q-22 0 -22 -22v-607q0 -60 -18.5 -103.5t-49.5 -67.5t-66 -35t-75 -11v65q55 0 97 35t42 108v7l-353 491l-58 91h-2q6 -54 6 -91v-440q0 -32 -14.5 -46.5
t-46.5 -14.5h-74z" />
    <glyph glyph-name="eng" unicode="&#x14b;" horiz-adv-x="603" 
d="M87 0v422q0 22 -22 22h-42v59h70q61 0 61 -56v-23l-2 -36h2q18 46 69.5 86.5t130.5 40.5q91 0 130 -49t39 -146v-343q0 -59 -18.5 -99t-48.5 -57.5t-55.5 -24t-52.5 -6.5l-29 3v59q9 -1 22 -1q18 0 35 4.5t36.5 16.5t31 40t11.5 68v322q0 71 -21.5 110t-87.5 39
q-64 0 -115 -40t-68 -103q-8 -27 -8 -67v-241h-68z" />
    <glyph glyph-name="Omacron" unicode="&#x14c;" horiz-adv-x="791" 
d="M38 356q0 151 104 255t254 104t254 -104t104 -255q0 -154 -104.5 -261t-253.5 -107q-150 0 -254 107t-104 261zM111 356q0 -127 83 -214.5t202 -87.5q118 0 201.5 87.5t83.5 214.5q0 124 -83 208.5t-202 84.5t-202 -84.5t-83 -208.5zM270 785v54h246v-54h-246z" />
    <glyph glyph-name="omacron" unicode="&#x14d;" horiz-adv-x="611" 
d="M40 254q0 111 77.5 186t187.5 75q111 0 188.5 -75t77.5 -186q0 -113 -77.5 -189.5t-187.5 -76.5q-111 0 -188.5 76.5t-77.5 189.5zM110 254q0 -87 57 -146t139 -59q81 0 138 59t57 146q0 85 -57 142t-138 57q-82 0 -139 -57t-57 -142zM183 617v54h246v-54h-246z" />
    <glyph glyph-name="Obreve" unicode="&#x14e;" horiz-adv-x="791" 
d="M38 356q0 151 104 255t254 104t254 -104t104 -255q0 -154 -104.5 -261t-253.5 -107q-150 0 -254 107t-104 261zM111 356q0 -127 83 -214.5t202 -87.5q118 0 201.5 87.5t83.5 214.5q0 124 -83 208.5t-202 84.5t-202 -84.5t-83 -208.5zM393 749q-46 0 -80 28.5t-34 78.5v15
h52v-13q0 -31 17.5 -46.5t44.5 -15.5q26 0 43.5 15.5t17.5 46.5v13h52v-15q0 -50 -33.5 -78.5t-79.5 -28.5z" />
    <glyph glyph-name="obreve" unicode="&#x14f;" horiz-adv-x="611" 
d="M40 254q0 111 77.5 186t187.5 75q111 0 188.5 -75t77.5 -186q0 -113 -77.5 -189.5t-187.5 -76.5q-111 0 -188.5 76.5t-77.5 189.5zM110 254q0 -87 57 -146t139 -59q81 0 138 59t57 146q0 85 -57 142t-138 57q-82 0 -139 -57t-57 -142zM306 581q-46 0 -80 28.5t-34 78.5
v15h52v-13q0 -31 17.5 -46.5t44.5 -15.5q26 0 43.5 15.5t17.5 46.5v13h52v-15q0 -50 -33.5 -78.5t-79.5 -28.5z" />
    <glyph glyph-name="Ohungarumlaut" unicode="&#x150;" horiz-adv-x="791" 
d="M38 356q0 151 104 255t254 104t254 -104t104 -255q0 -154 -104.5 -261t-253.5 -107q-150 0 -254 107t-104 261zM111 356q0 -127 83 -214.5t202 -87.5q118 0 201.5 87.5t83.5 214.5q0 124 -83 208.5t-202 84.5t-202 -84.5t-83 -208.5zM428 752l70 119h76l-87 -119h-59z
M295 752l66 119h65l-67 -119h-64z" />
    <glyph glyph-name="ohungarumlaut" unicode="&#x151;" horiz-adv-x="611" 
d="M40 254q0 111 77.5 186t187.5 75q111 0 188.5 -75t77.5 -186q0 -113 -77.5 -189.5t-187.5 -76.5q-111 0 -188.5 76.5t-77.5 189.5zM110 254q0 -87 57 -146t139 -59q81 0 138 59t57 146q0 85 -57 142t-138 57q-82 0 -139 -57t-57 -142zM341 584l70 119h76l-87 -119h-59z
M208 584l66 119h65l-67 -119h-64z" />
    <glyph glyph-name="OE" unicode="&#x152;" horiz-adv-x="910" 
d="M38 352q0 153 96.5 257t242.5 104q25 0 75 -5t67 -5h276q32 0 46.5 -14.5t14.5 -46.5v-70h-65v47q0 22 -22 22h-233v-256h256v-62h-256v-261h262q22 0 22 22v47h65v-70q0 -61 -56 -61h-309q-17 0 -67.5 -5t-75.5 -5q-146 0 -242.5 104t-96.5 258zM111 352
q0 -128 73.5 -211.5t192.5 -83.5q58 0 89 7v574q-35 8 -89 8q-118 0 -192 -83.5t-74 -210.5z" />
    <glyph glyph-name="oe" unicode="&#x153;" horiz-adv-x="1010" 
d="M40 250q0 117 77 191t188 74q75 0 135 -36t93 -99h2q29 64 85.5 99.5t129.5 35.5q100 0 155.5 -66.5t55.5 -165.5l-2 -34h-386q4 -94 59.5 -147t135.5 -53q41 0 78.5 15.5t55.5 31.5l17 15l33 -51q-8 -8 -23.5 -20t-64 -32t-99.5 -20q-78 0 -138 36.5t-91 100.5h-2
q-32 -64 -92 -100.5t-137 -36.5q-111 0 -188 73t-77 189zM576 303h315q-4 75 -43.5 115t-98.5 40q-65 0 -113 -41t-60 -114zM110 250q0 -89 56.5 -145t138.5 -56t138.5 57t56.5 148q0 89 -57 144t-138 55q-82 0 -138.5 -56.5t-56.5 -146.5z" />
    <glyph glyph-name="Racute" unicode="&#x154;" horiz-adv-x="605" 
d="M107 0v641h-65v62h298q89 0 145.5 -54.5t56.5 -145.5q0 -77 -40 -126.5t-96 -61.5v-2q14 -8 24 -28l101 -200q7 -15 18 -19t32 -4h14v-62h-31q-44 0 -62 9.5t-35 43.5l-101 201q-14 27 -27.5 34.5t-43.5 7.5h-118v-296h-70zM177 358h156q63 0 99.5 38.5t36.5 104.5
q0 65 -36.5 102.5t-98.5 37.5h-157v-283zM253 752l70 119h76l-87 -119h-59z" />
    <glyph glyph-name="racute" unicode="&#x155;" horiz-adv-x="361" 
d="M87 0v422q0 22 -22 22h-42v59h70q61 0 61 -57v-34l-2 -38h2q19 60 60.5 97t98.5 37l27 -3v-67q-12 2 -25 2q-52 0 -90.5 -36t-55.5 -94q-14 -45 -14 -98v-212h-68zM155 584l70 119h76l-87 -119h-59z" />
    <glyph glyph-name="Rcommaaccent" unicode="&#x156;" horiz-adv-x="605" 
d="M107 0v641h-65v62h298q89 0 145.5 -54.5t56.5 -145.5q0 -77 -40 -126.5t-96 -61.5v-2q14 -8 24 -28l101 -200q7 -15 18 -19t32 -4h14v-62h-31q-44 0 -62 9.5t-35 43.5l-101 201q-14 27 -27.5 34.5t-43.5 7.5h-118v-296h-70zM177 358h156q63 0 99.5 38.5t36.5 104.5
q0 65 -36.5 102.5t-98.5 37.5h-157v-283zM298 -63h62q7 -24 7 -48q0 -36 -24 -89h-53q19 48 19 80q0 28 -11 57z" />
    <glyph glyph-name="rcommaaccent" unicode="&#x157;" horiz-adv-x="361" 
d="M87 0v422q0 22 -22 22h-42v59h70q61 0 61 -57v-34l-2 -38h2q19 60 60.5 97t98.5 37l27 -3v-67q-12 2 -25 2q-52 0 -90.5 -36t-55.5 -94q-14 -45 -14 -98v-212h-68zM93 -63h62q7 -24 7 -48q0 -36 -24 -89h-53q19 48 19 80q0 28 -11 57z" />
    <glyph glyph-name="Rcaron" unicode="&#x158;" horiz-adv-x="605" 
d="M107 0v641h-65v62h298q89 0 145.5 -54.5t56.5 -145.5q0 -77 -40 -126.5t-96 -61.5v-2q14 -8 24 -28l101 -200q7 -15 18 -19t32 -4h14v-62h-31q-44 0 -62 9.5t-35 43.5l-101 201q-14 27 -27.5 34.5t-43.5 7.5h-118v-296h-70zM177 358h156q63 0 99.5 38.5t36.5 104.5
q0 65 -36.5 102.5t-98.5 37.5h-157v-283zM248 752l-84 119h64l54 -80h2l54 80h63l-84 -119h-69z" />
    <glyph glyph-name="rcaron" unicode="&#x159;" horiz-adv-x="361" 
d="M87 0v422q0 22 -22 22h-42v59h70q61 0 61 -57v-34l-2 -38h2q19 60 60.5 97t98.5 37l27 -3v-67q-12 2 -25 2q-52 0 -90.5 -36t-55.5 -94q-14 -45 -14 -98v-212h-68zM151 584l-84 119h64l54 -80h2l54 80h63l-84 -119h-69z" />
    <glyph glyph-name="Sacute" unicode="&#x15a;" horiz-adv-x="518" 
d="M37 88l43 51q3 -3 8.5 -9t23.5 -21t38 -26t50.5 -20.5t61.5 -9.5q59 0 99 35t40 90q0 48 -35.5 82t-86.5 57l-102.5 47.5t-87 67.5t-35.5 103q0 75 60 127.5t155 52.5q40 0 80.5 -10t75 -39t34.5 -72v-50h-66v33q0 31 -36.5 52t-86.5 21q-66 0 -105 -33t-39 -80
q0 -29 15 -52.5t39.5 -39t55.5 -31.5t63.5 -29t63.5 -32t55.5 -40.5t39.5 -55t15 -75.5q0 -82 -58.5 -138t-154.5 -56q-40 0 -78 10.5t-63 25t-44.5 29t-28.5 25.5zM235 752l70 119h76l-87 -119h-59z" />
    <glyph glyph-name="sacute" unicode="&#x15b;" horiz-adv-x="440" 
d="M29 76l39 47q2 -3 6.5 -8t19.5 -18.5t31.5 -23.5t43 -18t54.5 -8q45 0 75.5 21t30.5 59q0 30 -29 52t-70.5 38t-83 34t-70.5 50.5t-29 77.5q0 66 50 101t129 35q22 0 46 -4.5t49 -14t41.5 -28.5t16.5 -44v-43h-64v24q0 25 -28 38t-59 13q-112 0 -112 -73q0 -31 29 -53
t70.5 -37.5t83 -33.5t70.5 -51t29 -79q0 -62 -50 -101.5t-126 -39.5q-37 0 -70 9t-54.5 22t-38 26t-23.5 22zM189 584l70 119h76l-87 -119h-59z" />
    <glyph glyph-name="Scircumflex" unicode="&#x15c;" horiz-adv-x="518" 
d="M37 88l43 51q3 -3 8.5 -9t23.5 -21t38 -26t50.5 -20.5t61.5 -9.5q59 0 99 35t40 90q0 48 -35.5 82t-86.5 57l-102.5 47.5t-87 67.5t-35.5 103q0 75 60 127.5t155 52.5q40 0 80.5 -10t75 -39t34.5 -72v-50h-66v33q0 31 -36.5 52t-86.5 21q-66 0 -105 -33t-39 -80
q0 -29 15 -52.5t39.5 -39t55.5 -31.5t63.5 -29t63.5 -32t55.5 -40.5t39.5 -55t15 -75.5q0 -82 -58.5 -138t-154.5 -56q-40 0 -78 10.5t-63 25t-44.5 29t-28.5 25.5zM147 752l83 119h70l83 -119h-63l-54 81h-2l-54 -81h-63z" />
    <glyph glyph-name="scircumflex" unicode="&#x15d;" horiz-adv-x="440" 
d="M29 76l39 47q2 -3 6.5 -8t19.5 -18.5t31.5 -23.5t43 -18t54.5 -8q45 0 75.5 21t30.5 59q0 30 -29 52t-70.5 38t-83 34t-70.5 50.5t-29 77.5q0 66 50 101t129 35q22 0 46 -4.5t49 -14t41.5 -28.5t16.5 -44v-43h-64v24q0 25 -28 38t-59 13q-112 0 -112 -73q0 -31 29 -53
t70.5 -37.5t83 -33.5t70.5 -51t29 -79q0 -62 -50 -101.5t-126 -39.5q-37 0 -70 9t-54.5 22t-38 26t-23.5 22zM101 584l83 119h70l83 -119h-63l-54 81h-2l-54 -81h-63z" />
    <glyph glyph-name="Scedilla" unicode="&#x15e;" horiz-adv-x="518" 
d="M37 88l43 51q3 -3 8.5 -9t23.5 -21t38 -26t50.5 -20.5t61.5 -9.5q59 0 99 35t40 90q0 48 -35.5 82t-86.5 57l-102.5 47.5t-87 67.5t-35.5 103q0 75 60 127.5t155 52.5q40 0 80.5 -10t75 -39t34.5 -72v-50h-66v33q0 31 -36.5 52t-86.5 21q-66 0 -105 -33t-39 -80
q0 -29 15 -52.5t39.5 -39t55.5 -31.5t63.5 -29t63.5 -32t55.5 -40.5t39.5 -55t15 -75.5q0 -78 -53.5 -133.5t-143.5 -60.5l-8 -43q32 -5 51 -23.5t19 -47.5q0 -41 -27.5 -60t-68.5 -19l-49 5v48q19 -6 41 -6q51 0 51 34t-57 34l-15 -1l19 81q-56 5 -104.5 29.5t-69.5 46.5z
" />
    <glyph glyph-name="scedilla" unicode="&#x15f;" horiz-adv-x="440" 
d="M29 76l39 47q2 -3 6.5 -8t19.5 -18.5t31.5 -23.5t43 -18t54.5 -8q45 0 75.5 21t30.5 59q0 30 -29 52t-70.5 38t-83 34t-70.5 50.5t-29 77.5q0 66 50 101t129 35q22 0 46 -4.5t49 -14t41.5 -28.5t16.5 -44v-43h-64v24q0 25 -28 38t-59 13q-112 0 -112 -73q0 -31 29 -53
t70.5 -37.5t83 -33.5t70.5 -51t29 -79q0 -61 -47.5 -99.5t-120.5 -41.5l-8 -43q32 -5 51 -23.5t19 -47.5q0 -41 -27.5 -60t-68.5 -19l-49 5v48q19 -6 41 -6q51 0 51 34t-57 34l-15 -1l19 82q-47 5 -86.5 26.5t-55.5 40.5z" />
    <glyph glyph-name="Scaron" unicode="&#x160;" horiz-adv-x="518" 
d="M37 88l43 51q3 -3 8.5 -9t23.5 -21t38 -26t50.5 -20.5t61.5 -9.5q59 0 99 35t40 90q0 48 -35.5 82t-86.5 57l-102.5 47.5t-87 67.5t-35.5 103q0 75 60 127.5t155 52.5q40 0 80.5 -10t75 -39t34.5 -72v-50h-66v33q0 31 -36.5 52t-86.5 21q-66 0 -105 -33t-39 -80
q0 -29 15 -52.5t39.5 -39t55.5 -31.5t63.5 -29t63.5 -32t55.5 -40.5t39.5 -55t15 -75.5q0 -82 -58.5 -138t-154.5 -56q-40 0 -78 10.5t-63 25t-44.5 29t-28.5 25.5zM231 752l-84 119h64l54 -80h2l54 80h63l-84 -119h-69z" />
    <glyph glyph-name="scaron" unicode="&#x161;" horiz-adv-x="440" 
d="M29 76l39 47q2 -3 6.5 -8t19.5 -18.5t31.5 -23.5t43 -18t54.5 -8q45 0 75.5 21t30.5 59q0 30 -29 52t-70.5 38t-83 34t-70.5 50.5t-29 77.5q0 66 50 101t129 35q22 0 46 -4.5t49 -14t41.5 -28.5t16.5 -44v-43h-64v24q0 25 -28 38t-59 13q-112 0 -112 -73q0 -31 29 -53
t70.5 -37.5t83 -33.5t70.5 -51t29 -79q0 -62 -50 -101.5t-126 -39.5q-37 0 -70 9t-54.5 22t-38 26t-23.5 22zM185 584l-84 119h64l54 -80h2l54 80h63l-84 -119h-69z" />
    <glyph glyph-name="Tcommaaccent" unicode="&#x162;" horiz-adv-x="620" 
d="M518 641h-173v-641h-14l-10 -55q32 -5 51 -23.5t19 -47.5q0 -41 -27.5 -60t-68.5 -19l-50 5v48q19 -6 42 -6q51 0 51 34t-57 34l-15 -1l21 91h-12v641h-174q-22 0 -22 -22v-47h-64v74q0 32 12.5 44.5t44.5 12.5h476q32 0 44.5 -12.5t12.5 -44.5v-74h-65v47q0 22 -22 22z
" />
    <glyph glyph-name="tcommaaccent" unicode="&#x163;" horiz-adv-x="335" 
d="M93 183v263h-66v57h67v139h67v-139h126v-57h-126v-256q0 -34 8.5 -59t20.5 -39t28 -22t29 -10.5t27 -2.5l23 2v-61q-12 -2 -29 -2q-25 0 -49 5l-10 -56q32 -5 51 -23.5t19 -47.5q0 -41 -27.5 -60t-68.5 -19l-49 5v48q19 -6 41 -6q51 0 51 34t-57 34l-15 -1l25 105
q-86 41 -86 169z" />
    <glyph glyph-name="Tcaron" unicode="&#x164;" horiz-adv-x="620" 
d="M275 0v641h-174q-22 0 -22 -22v-47h-64v74q0 32 12.5 44.5t44.5 12.5h476q32 0 44.5 -12.5t12.5 -44.5v-74h-65v47q0 22 -22 22h-173v-641h-70zM276 752l-84 119h64l54 -80h2l54 80h63l-84 -119h-69z" />
    <glyph glyph-name="tcaron" unicode="&#x165;" horiz-adv-x="348" 
d="M94 183v263h-66v57h67v139h67v-139h126v-57h-126v-256q0 -34 8.5 -59t20.5 -39t28 -22t29 -10.5t27 -2.5l23 2v-61q-12 -2 -29 -2q-21 0 -41 3t-45.5 14.5t-44 30.5t-31.5 55t-13 84zM230 703h62q7 -24 7 -48q0 -36 -24 -89h-53q19 48 19 80q0 28 -11 57z" />
    <glyph glyph-name="Tbar" unicode="&#x166;" horiz-adv-x="620" 
d="M275 0v324h-161v57h161v260h-174q-22 0 -22 -22v-47h-64v74q0 32 12.5 44.5t44.5 12.5h476q32 0 44.5 -12.5t12.5 -44.5v-74h-65v47q0 22 -22 22h-173v-260h165v-57h-165v-324h-70z" />
    <glyph glyph-name="tbar" unicode="&#x167;" horiz-adv-x="335" 
d="M93 183v95h-66v53h66v115h-66v57h67v139h67v-139h126v-57h-126v-115h126v-53h-126v-90q0 -40 12 -68.5t31 -41t35.5 -17t34.5 -4.5l23 2v-61q-12 -2 -29 -2q-21 0 -41 3t-45.5 14.5t-44 30.5t-31.5 55t-13 84z" />
    <glyph glyph-name="Utilde" unicode="&#x168;" horiz-adv-x="717" 
d="M99 241v378q0 22 -22 22h-43v62h74q32 0 46.5 -14.5t14.5 -46.5v-398q0 -88 51.5 -139t137.5 -51q87 0 138.5 51.5t51.5 140.5v396q0 32 14.5 46.5t46.5 14.5h74v-62h-43q-22 0 -22 -22v-378q0 -114 -71.5 -183.5t-187.5 -69.5t-188 69.5t-72 183.5zM202 755
q0 117 93 117q29 0 50.5 -18t39.5 -36t36 -18q40 0 40 69h53q0 -117 -93 -117q-29 0 -51 18t-39.5 35.5t-36.5 17.5q-40 0 -40 -68h-52z" />
    <glyph glyph-name="utilde" unicode="&#x169;" horiz-adv-x="603" 
d="M85 183v239q0 22 -22 22h-42v59h71q32 0 46.5 -14t14.5 -45v-243q0 -71 22 -110t88 -39q82 0 133.5 62.5t51.5 147.5v241h68v-422q0 -22 22 -22h42v-59h-69q-61 0 -61 56v23l2 36h-2q-19 -46 -70.5 -86.5t-125.5 -40.5q-88 0 -128.5 48t-40.5 147zM137 587q0 117 93 117
q29 0 50.5 -18t39.5 -36t36 -18q40 0 40 69h53q0 -117 -93 -117q-29 0 -51 18t-39.5 35.5t-36.5 17.5q-40 0 -40 -68h-52z" />
    <glyph glyph-name="Umacron" unicode="&#x16a;" horiz-adv-x="717" 
d="M99 241v378q0 22 -22 22h-43v62h74q32 0 46.5 -14.5t14.5 -46.5v-398q0 -88 51.5 -139t137.5 -51q87 0 138.5 51.5t51.5 140.5v396q0 32 14.5 46.5t46.5 14.5h74v-62h-43q-22 0 -22 -22v-378q0 -114 -71.5 -183.5t-187.5 -69.5t-188 69.5t-72 183.5zM237 785v54h246v-54
h-246z" />
    <glyph glyph-name="umacron" unicode="&#x16b;" horiz-adv-x="603" 
d="M85 183v239q0 22 -22 22h-42v59h71q32 0 46.5 -14t14.5 -45v-243q0 -71 22 -110t88 -39q82 0 133.5 62.5t51.5 147.5v241h68v-422q0 -22 22 -22h42v-59h-69q-61 0 -61 56v23l2 36h-2q-19 -46 -70.5 -86.5t-125.5 -40.5q-88 0 -128.5 48t-40.5 147zM172 617v54h246v-54
h-246z" />
    <glyph glyph-name="Ubreve" unicode="&#x16c;" horiz-adv-x="717" 
d="M99 241v378q0 22 -22 22h-43v62h74q32 0 46.5 -14.5t14.5 -46.5v-398q0 -88 51.5 -139t137.5 -51q87 0 138.5 51.5t51.5 140.5v396q0 32 14.5 46.5t46.5 14.5h74v-62h-43q-22 0 -22 -22v-378q0 -114 -71.5 -183.5t-187.5 -69.5t-188 69.5t-72 183.5zM360 749
q-46 0 -80 28.5t-34 78.5v15h52v-13q0 -31 17.5 -46.5t44.5 -15.5q26 0 43.5 15.5t17.5 46.5v13h52v-15q0 -50 -33.5 -78.5t-79.5 -28.5z" />
    <glyph glyph-name="ubreve" unicode="&#x16d;" horiz-adv-x="603" 
d="M85 183v239q0 22 -22 22h-42v59h71q32 0 46.5 -14t14.5 -45v-243q0 -71 22 -110t88 -39q82 0 133.5 62.5t51.5 147.5v241h68v-422q0 -22 22 -22h42v-59h-69q-61 0 -61 56v23l2 36h-2q-19 -46 -70.5 -86.5t-125.5 -40.5q-88 0 -128.5 48t-40.5 147zM295 581
q-46 0 -80 28.5t-34 78.5v15h52v-13q0 -31 17.5 -46.5t44.5 -15.5q26 0 43.5 15.5t17.5 46.5v13h52v-15q0 -50 -33.5 -78.5t-79.5 -28.5z" />
    <glyph glyph-name="Uring" unicode="&#x16e;" horiz-adv-x="717" 
d="M99 241v378q0 22 -22 22h-43v62h74q32 0 46.5 -14.5t14.5 -46.5v-398q0 -88 51.5 -139t137.5 -51q87 0 138.5 51.5t51.5 140.5v396q0 32 14.5 46.5t46.5 14.5h74v-62h-43q-22 0 -22 -22v-378q0 -114 -71.5 -183.5t-187.5 -69.5t-188 69.5t-72 183.5zM360 741
q-31 0 -52.5 20t-21.5 51t21.5 51t52.5 20t52.5 -20t21.5 -51t-21.5 -51t-52.5 -20zM360 779q14 0 23.5 9.5t9.5 23.5q0 15 -9.5 24.5t-23.5 9.5t-23.5 -9.5t-9.5 -24.5q0 -14 9 -23.5t24 -9.5z" />
    <glyph glyph-name="uring" unicode="&#x16f;" horiz-adv-x="603" 
d="M85 183v239q0 22 -22 22h-42v59h71q32 0 46.5 -14t14.5 -45v-243q0 -71 22 -110t88 -39q82 0 133.5 62.5t51.5 147.5v241h68v-422q0 -22 22 -22h42v-59h-69q-61 0 -61 56v23l2 36h-2q-19 -46 -70.5 -86.5t-125.5 -40.5q-88 0 -128.5 48t-40.5 147zM295 573
q-31 0 -52.5 20t-21.5 51t21.5 51t52.5 20t52.5 -20t21.5 -51t-21.5 -51t-52.5 -20zM295 611q14 0 23.5 9.5t9.5 23.5q0 15 -9.5 24.5t-23.5 9.5t-23.5 -9.5t-9.5 -24.5q0 -14 9 -23.5t24 -9.5z" />
    <glyph glyph-name="Uhungarumlaut" unicode="&#x170;" horiz-adv-x="717" 
d="M99 241v378q0 22 -22 22h-43v62h74q32 0 46.5 -14.5t14.5 -46.5v-398q0 -88 51.5 -139t137.5 -51q87 0 138.5 51.5t51.5 140.5v396q0 32 14.5 46.5t46.5 14.5h74v-62h-43q-22 0 -22 -22v-378q0 -114 -71.5 -183.5t-187.5 -69.5t-188 69.5t-72 183.5zM395 752l70 119h76
l-87 -119h-59zM262 752l66 119h65l-67 -119h-64z" />
    <glyph glyph-name="uhungarumlaut" unicode="&#x171;" horiz-adv-x="603" 
d="M85 183v239q0 22 -22 22h-42v59h71q32 0 46.5 -14t14.5 -45v-243q0 -71 22 -110t88 -39q82 0 133.5 62.5t51.5 147.5v241h68v-422q0 -22 22 -22h42v-59h-69q-61 0 -61 56v23l2 36h-2q-19 -46 -70.5 -86.5t-125.5 -40.5q-88 0 -128.5 48t-40.5 147zM330 584l70 119h76
l-87 -119h-59zM197 584l66 119h65l-67 -119h-64z" />
    <glyph glyph-name="Uogonek" unicode="&#x172;" horiz-adv-x="717" 
d="M99 241v378q0 22 -22 22h-43v62h74q32 0 46.5 -14.5t14.5 -46.5v-398q0 -88 51.5 -139t137.5 -51q87 0 138.5 51.5t51.5 140.5v396q0 32 14.5 46.5t46.5 14.5h74v-62h-43q-22 0 -22 -22v-384q0 -146 -136 -222q-95 -55 -95 -112q0 -20 15.5 -32.5t31.5 -14.5l15 -3
l-16 -56q-4 0 -11.5 1t-26.5 7t-33.5 15t-26.5 27t-12 42q0 53 52 101v2q-11 -1 -20 -1q-114 0 -185 70t-71 182z" />
    <glyph glyph-name="uogonek" unicode="&#x173;" horiz-adv-x="603" 
d="M254 -12q-88 0 -128.5 48t-40.5 147v239q0 22 -22 22h-42v59h71q39 0 50 -18.5t11 -68.5v-215q0 -71 22 -110t88 -39q82 0 133.5 62.5t51.5 147.5v241h68v-422q0 -22 22 -22h42v-59q-72 -58 -72 -99q0 -20 15.5 -32.5t30.5 -14.5l16 -3l-15 -56q-4 0 -11.5 1t-26.5 7
t-33.5 15t-26.5 27t-12 42q0 64 67 112v2h-11q-51 0 -51 55v23l2 35h-3q-2 -5 -6 -13.5t-20.5 -30.5t-36.5 -38.5t-55.5 -30t-76.5 -13.5z" />
    <glyph glyph-name="Wcircumflex" unicode="&#x174;" horiz-adv-x="945" 
d="M227 0l-161 619q-6 22 -37 22h-12v62h31q40 0 58 -11.5t27 -46.5l122 -485l15 -75h2q9 39 19 75l155 540h69l141 -540l16 -75h2q7 39 16 75l122 485q9 35 27 46.5t58 11.5h31v-62h-11q-31 0 -37 -22l-162 -619h-83l-131 489l-23 104h-2q-12 -58 -25 -103l-144 -490h-83z
M362 752l83 119h70l83 -119h-63l-54 81h-2l-54 -81h-63z" />
    <glyph glyph-name="wcircumflex" unicode="&#x175;" horiz-adv-x="834" 
d="M202 0l-144 421q-8 23 -35 23h-13v59h35q37 0 52.5 -10.5t26.5 -45.5l103 -319l15 -54h2q8 30 16 54l123 373h68l123 -373l16 -54h2q6 29 14 54l104 319q11 35 26.5 45.5t52.5 10.5h35v-59h-14q-27 0 -35 -23l-144 -421h-75l-123 358l-15 54h-2q-7 -29 -16 -54l-122 -358
h-76zM299 584l83 119h70l83 -119h-63l-54 81h-2l-54 -81h-63z" />
    <glyph glyph-name="Ycircumflex" unicode="&#x176;" horiz-adv-x="592" 
d="M261 0v306l-188 309q-16 26 -47 26h-16v62h27q37 0 55.5 -10t40.5 -46l119 -199l43 -79h2q21 42 43 79l119 199q22 36 40.5 46t55.5 10h27v-62h-16q-31 0 -46 -26l-189 -309v-306h-70zM179 752l83 119h70l83 -119h-63l-54 81h-2l-54 -81h-63z" />
    <glyph glyph-name="ycircumflex" unicode="&#x177;" horiz-adv-x="539" 
d="M40 -111q0 -2 9 -10.5t28 -18t38 -9.5q59 0 93 82l30 69l-177 419q-10 23 -35 23h-10v59h31q34 0 48.5 -10.5t28.5 -44.5l129 -314l18 -54h2q7 29 17 54l124 314q13 34 28 44.5t50 10.5h31v-59h-10q-26 0 -35 -23l-217 -526q-20 -49 -57.5 -77t-86.5 -28q-31 0 -58.5 12
t-38.5 24l-12 13zM150 584l83 119h70l83 -119h-63l-54 81h-2l-54 -81h-63z" />
    <glyph glyph-name="Ydieresis" unicode="&#x178;" horiz-adv-x="592" 
d="M261 0v306l-188 309q-16 26 -47 26h-16v62h27q37 0 55.5 -10t40.5 -46l119 -199l43 -79h2q21 42 43 79l119 199q22 36 40.5 46t55.5 10h27v-62h-16q-31 0 -46 -26l-189 -309v-306h-70zM343 785v86h59v-86h-59zM193 785v86h59v-86h-59z" />
    <glyph glyph-name="Zacute" unicode="&#x179;" horiz-adv-x="575" 
d="M19 0v49l377 528l24.5 32t19.5 24l7 8v2q-17 -2 -51 -2h-280q-22 0 -22 -22v-47h-65v70q0 32 14.5 46.5t46.5 14.5h443v-49l-376 -528l-25 -32l-20 -24l-7 -8v-2q17 2 52 2h303q22 0 22 22v47h65v-70q0 -32 -14.5 -46.5t-46.5 -14.5h-467zM262 752l70 119h76l-87 -119
h-59z" />
    <glyph glyph-name="zacute" unicode="&#x17a;" horiz-adv-x="499" 
d="M39 0v44l283 353l40 46v2q-17 -2 -50 -2h-184q-22 0 -22 -22v-39h-64v60q0 32 14.5 46.5t46.5 14.5h349v-45l-282 -352l-42 -46v-2q18 2 51 2h208q22 0 22 22v39h64v-60q0 -32 -14.5 -46.5t-46.5 -14.5h-373zM228 584l70 119h76l-87 -119h-59z" />
    <glyph glyph-name="Zdotaccent" unicode="&#x17b;" horiz-adv-x="575" 
d="M19 0v49l377 528l24.5 32t19.5 24l7 8v2q-17 -2 -51 -2h-280q-22 0 -22 -22v-47h-65v70q0 32 14.5 46.5t46.5 14.5h443v-49l-376 -528l-25 -32l-20 -24l-7 -8v-2q17 2 52 2h303q22 0 22 22v47h65v-70q0 -32 -14.5 -46.5t-46.5 -14.5h-467zM259 785v86h66v-86h-66z" />
    <glyph glyph-name="zdotaccent" unicode="&#x17c;" horiz-adv-x="499" 
d="M39 0v44l283 353l40 46v2q-17 -2 -50 -2h-184q-22 0 -22 -22v-39h-64v60q0 32 14.5 46.5t46.5 14.5h349v-45l-282 -352l-42 -46v-2q18 2 51 2h208q22 0 22 22v39h64v-60q0 -32 -14.5 -46.5t-46.5 -14.5h-373zM225 617v86h66v-86h-66z" />
    <glyph glyph-name="Zcaron" unicode="&#x17d;" horiz-adv-x="575" 
d="M19 0v49l377 528l24.5 32t19.5 24l7 8v2q-17 -2 -51 -2h-280q-22 0 -22 -22v-47h-65v70q0 32 14.5 46.5t46.5 14.5h443v-49l-376 -528l-25 -32l-20 -24l-7 -8v-2q17 2 52 2h303q22 0 22 22v47h65v-70q0 -32 -14.5 -46.5t-46.5 -14.5h-467zM258 752l-84 119h64l54 -80h2
l54 80h63l-84 -119h-69z" />
    <glyph glyph-name="zcaron" unicode="&#x17e;" horiz-adv-x="499" 
d="M39 0v44l283 353l40 46v2q-17 -2 -50 -2h-184q-22 0 -22 -22v-39h-64v60q0 32 14.5 46.5t46.5 14.5h349v-45l-282 -352l-42 -46v-2q18 2 51 2h208q22 0 22 22v39h64v-60q0 -32 -14.5 -46.5t-46.5 -14.5h-373zM223 584l-84 119h64l54 -80h2l54 80h63l-84 -119h-69z" />
    <glyph glyph-name="longs" unicode="&#x17f;" horiz-adv-x="305" 
d="M88 0v446h-63v57h63v18q0 58 18.5 98.5t48 58t55 24t51.5 6.5l31 -2v-61q-9 2 -24 2q-18 0 -34 -4.5t-35.5 -16t-31 -39t-11.5 -66.5v-521h-68z" />
    <glyph glyph-name="florin" unicode="&#x192;" horiz-adv-x="346" 
d="M-23 -56l-30 2l6 60q9 -2 23 -2t27 2.5t30 10.5t29.5 21t23 37.5t13.5 57.5l20 231h-79v58h85l9 99q4 47 20 83t36 55t46 30.5t46 15t41 3.5l31 -2l-6 -61q-9 2 -23 2q-19 0 -35.5 -4.5t-36.5 -16.5t-34 -39.5t-18 -68.5l-9 -96h109v-58h-114l-20 -234q-4 -47 -20 -82.5
t-36.5 -54.5t-47 -31t-46 -15t-40.5 -3z" />
    <glyph glyph-name="Scommaaccent" unicode="&#x218;" horiz-adv-x="518" 
d="M37 88l43 51q3 -3 8.5 -9t23.5 -21t38 -26t50.5 -20.5t61.5 -9.5q59 0 99 35t40 90q0 48 -35.5 82t-86.5 57l-102.5 47.5t-87 67.5t-35.5 103q0 75 60 127.5t155 52.5q40 0 80.5 -10t75 -39t34.5 -72v-50h-66v33q0 31 -36.5 52t-86.5 21q-66 0 -105 -33t-39 -80
q0 -29 15 -52.5t39.5 -39t55.5 -31.5t63.5 -29t63.5 -32t55.5 -40.5t39.5 -55t15 -75.5q0 -82 -58.5 -138t-154.5 -56q-40 0 -78 10.5t-63 25t-44.5 29t-28.5 25.5zM229 -63h62q7 -24 7 -48q0 -36 -24 -89h-53q19 48 19 80q0 28 -11 57z" />
    <glyph glyph-name="scommaaccent" unicode="&#x219;" horiz-adv-x="440" 
d="M29 76l39 47q2 -3 6.5 -8t19.5 -18.5t31.5 -23.5t43 -18t54.5 -8q45 0 75.5 21t30.5 59q0 30 -29 52t-70.5 38t-83 34t-70.5 50.5t-29 77.5q0 66 50 101t129 35q22 0 46 -4.5t49 -14t41.5 -28.5t16.5 -44v-43h-64v24q0 25 -28 38t-59 13q-112 0 -112 -73q0 -31 29 -53
t70.5 -37.5t83 -33.5t70.5 -51t29 -79q0 -62 -50 -101.5t-126 -39.5q-37 0 -70 9t-54.5 22t-38 26t-23.5 22zM187 -63h62q7 -24 7 -48q0 -36 -24 -89h-53q19 48 19 80q0 28 -11 57z" />
    <glyph glyph-name="uni021A" unicode="&#x21a;" horiz-adv-x="620" 
d="M275 0v641h-174q-22 0 -22 -22v-47h-64v74q0 32 12.5 44.5t44.5 12.5h476q32 0 44.5 -12.5t12.5 -44.5v-74h-65v47q0 22 -22 22h-173v-641h-70zM277 -63h62q7 -24 7 -48q0 -36 -24 -89h-53q19 48 19 80q0 28 -11 57z" />
    <glyph glyph-name="uni021B" unicode="&#x21b;" horiz-adv-x="335" 
d="M93 183v263h-66v57h67v139h67v-139h126v-57h-126v-256q0 -34 8.5 -59t20.5 -39t28 -22t29 -10.5t27 -2.5l23 2v-61q-12 -2 -29 -2q-21 0 -41 3t-45.5 14.5t-44 30.5t-31.5 55t-13 84zM160 -63h62q7 -24 7 -48q0 -36 -24 -89h-53q19 48 19 80q0 28 -11 57z" />
    <glyph glyph-name="circumflex" unicode="&#x2c6;" horiz-adv-x="470" 
d="M117 752l83 119h70l83 -119h-63l-54 81h-2l-54 -81h-63z" />
    <glyph glyph-name="caron" unicode="&#x2c7;" horiz-adv-x="474" 
d="M200 752l-84 119h64l54 -80h2l54 80h63l-84 -119h-69z" />
    <glyph glyph-name="breve" unicode="&#x2d8;" horiz-adv-x="485" 
d="M233 749q-46 0 -80 28.5t-34 78.5v15h52v-13q0 -31 17.5 -46.5t44.5 -15.5q26 0 43.5 15.5t17.5 46.5v13h52v-15q0 -50 -33.5 -78.5t-79.5 -28.5z" />
    <glyph glyph-name="dotaccent" unicode="&#x2d9;" horiz-adv-x="223" 
d="M78 785v86h66v-86h-66z" />
    <glyph glyph-name="ring" unicode="&#x2da;" horiz-adv-x="376" 
d="M188 741q-31 0 -52.5 20t-21.5 51t21.5 51t52.5 20t52.5 -20t21.5 -51t-21.5 -51t-52.5 -20zM188 779q14 0 23.5 9.5t9.5 23.5q0 15 -9.5 24.5t-23.5 9.5t-23.5 -9.5t-9.5 -24.5q0 -14 9 -23.5t24 -9.5z" />
    <glyph glyph-name="ogonek" unicode="&#x2db;" horiz-adv-x="343" 
d="M105 -113q0 35 23.5 68t46.5 49l23 15l53 -11q-9 -6 -23 -17t-37 -39t-23 -51q0 -20 15.5 -32.5t30.5 -14.5l16 -3l-15 -56q-4 0 -11.5 1t-26.5 7t-33.5 15t-26.5 27t-12 42z" />
    <glyph glyph-name="tilde" unicode="&#x2dc;" horiz-adv-x="492" 
d="M89 755q0 117 93 117q29 0 50.5 -18t39.5 -36t36 -18q40 0 40 69h53q0 -117 -93 -117q-29 0 -51 18t-39.5 35.5t-36.5 17.5q-40 0 -40 -68h-52z" />
    <glyph glyph-name="hungarumlaut" unicode="&#x2dd;" horiz-adv-x="516" 
d="M238 752l70 119h76l-87 -119h-59zM105 752l66 119h65l-67 -119h-64z" />
    <glyph glyph-name="germandbls.case" unicode="&#x1e9e;" horiz-adv-x="621" 
d="M34 0v62h43q22 0 22 22v432q0 80 54 133.5t134 53.5h264v-48l-157 -223l-26 -35v-2h31q76 -3 128.5 -60.5t52.5 -134.5q0 -83 -59 -141.5t-142 -58.5h-95v62h91q58 0 95.5 40.5t37.5 97.5t-37 97t-94 40h-91v49l136 196q13 20 24 34.5t16 19.5l4 5v2q-7 -2 -43 -2h-131
q-54 0 -88.5 -35.5t-34.5 -88.5v-456q0 -32 -14.5 -46.5t-46.5 -14.5h-74z" />
    <glyph glyph-name="endash" unicode="&#x2013;" horiz-adv-x="642" 
d="M71 255v58h500v-58h-500z" />
    <glyph glyph-name="emdash" unicode="&#x2014;" horiz-adv-x="842" 
d="M71 255v58h700v-58h-700z" />
    <glyph glyph-name="quoteleft" unicode="&#x2018;" horiz-adv-x="212" 
d="M51 540l56 172h54l-39 -172h-71z" />
    <glyph glyph-name="quoteright" unicode="&#x2019;" horiz-adv-x="212" 
d="M51 541l39 172h71l-56 -172h-54z" />
    <glyph glyph-name="quotesinglbase" unicode="&#x201a;" horiz-adv-x="212" 
d="M90 82h71l-56 -172h-54z" />
    <glyph glyph-name="quotedblleft" unicode="&#x201c;" horiz-adv-x="330" 
d="M169 540l56 172h54l-39 -172h-71zM51 540l56 172h54l-39 -172h-71z" />
    <glyph glyph-name="quotedblright" unicode="&#x201d;" horiz-adv-x="330" 
d="M169 541l39 172h71l-56 -172h-54zM51 541l39 172h71l-56 -172h-54z" />
    <glyph glyph-name="quotedblbase" unicode="&#x201e;" horiz-adv-x="330" 
d="M169 -90l39 172h71l-56 -172h-54zM90 82h71l-56 -172h-54z" />
    <glyph glyph-name="dagger" unicode="&#x2020;" horiz-adv-x="363" 
d="M146 -50v495h-117v58h117v200h67v-200h121v-58h-121v-495h-67z" />
    <glyph glyph-name="daggerdbl" unicode="&#x2021;" horiz-adv-x="363" 
d="M146 -50v229h-117v58h117v208h-117v58h117v200h67v-200h121v-58h-121v-208h121v-58h-121v-229h-67z" />
    <glyph glyph-name="bullet" unicode="&#x2022;" horiz-adv-x="439" 
d="M220 148q-59 0 -101 42t-42 101t42 101t101 42t100.5 -42t41.5 -101t-41.5 -101t-100.5 -42z" />
    <glyph glyph-name="ellipsis" unicode="&#x2026;" horiz-adv-x="817" 
d="M605 0v80h77v-80h-77zM370 0v80h77v-80h-77zM135 0v80h77v-80h-77z" />
    <glyph glyph-name="perthousand" unicode="&#x2030;" horiz-adv-x="1057" 
d="M202 437q-58 0 -99 40.5t-41 98.5q0 57 41 98t99 41t99.5 -41t41.5 -98q0 -58 -41 -98.5t-100 -40.5zM68 0l536 703h71l-535 -703h-72zM202 493q34 0 58 24t24 59q0 34 -24 58.5t-58 24.5t-57.5 -24.5t-23.5 -58.5q0 -35 23.5 -59t57.5 -24zM736 126q0 58 41 99t99 41
t99.5 -41t41.5 -99q0 -57 -41.5 -97.5t-99.5 -40.5t-99 40.5t-41 97.5zM400 126q0 58 41 99t99 41t99.5 -41t41.5 -99q0 -57 -41.5 -97.5t-99.5 -40.5t-99 40.5t-41 97.5zM796 127q0 -35 23 -59t57 -24t58 24t24 59q0 34 -24 58.5t-58 24.5t-57 -24.5t-23 -58.5zM460 127
q0 -35 23 -59t57 -24t58 24t24 59q0 34 -24 58.5t-58 24.5t-57 -24.5t-23 -58.5z" />
    <glyph glyph-name="guilsinglleft" unicode="&#x2039;" horiz-adv-x="343" 
d="M202 77l-164 205l164 206h73l-164 -206l164 -205h-73z" />
    <glyph glyph-name="guilsinglright" unicode="&#x203a;" horiz-adv-x="343" 
d="M66 77l164 205l-164 206h74l164 -206l-164 -205h-74z" />
    <glyph glyph-name="fraction" unicode="&#x2044;" horiz-adv-x="416" 
d="M28 0l297 703h63l-297 -703h-63z" />
    <glyph glyph-name="Euro" unicode="&#x20ac;" horiz-adv-x="590" 
d="M39 266v51h57q-2 18 -2 35l2 46h-57v51h66q30 118 122 192t214 74q24 0 47 -3t34 -6l11 -3l-16 -65q-36 11 -77 11q-95 0 -164.5 -54.5t-95.5 -145.5h303l-10 -51h-304q-4 -20 -4 -44l2 -37h291l-9 -51h-270q23 -95 94.5 -153.5t168.5 -58.5q23 0 45.5 3.5t33.5 6.5l11 4
l16 -64q-46 -16 -107 -16q-126 0 -218.5 77.5t-119.5 200.5h-64z" />
    <glyph glyph-name="trademark" unicode="&#x2122;" horiz-adv-x="976" 
d="M419 265v51h25q10 0 11 10l29 377h52l115 -251l14 -41h2q5 22 14 41l115 251h52l29 -377q1 -10 11 -10h25v-51h-43q-27 0 -36.5 9.5t-11.5 36.5l-20 251l1 29h-2l-112 -244h-46l-112 244h-2l1 -29l-20 -251q-2 -27 -11.5 -36.5t-36.5 -9.5h-43zM199 265v386h-94
q-10 0 -10 -10v-30h-52v46q0 26 10 36t37 10h276q27 0 37 -10t10 -36v-46h-52v30q0 10 -10 10h-95v-386h-57z" />
    <glyph glyph-name="minus" unicode="&#x2212;" 
d="M50 255v58h506v-58h-506z" />
    <glyph glyph-name="infinity" unicode="&#x221e;" horiz-adv-x="499" 
d="M250 176q-71 0 -122 51t-51 122q0 72 50.5 122t122.5 50t122 -50t50 -122t-50 -122.5t-122 -50.5z" />
    <glyph glyph-name="approxequal" unicode="&#x2248;" 
d="M91 321l-33 44q69 69 146 69q50 0 107.5 -35t90.5 -35q61 0 113 56l33 -44q-67 -69 -146 -69q-50 0 -107.5 35t-90.5 35q-57 0 -113 -56zM91 147l-33 44q69 69 146 69q50 0 107.5 -35t90.5 -35q59 0 113 56l33 -44q-67 -69 -146 -69q-50 0 -107.5 35t-90.5 35
q-57 0 -113 -56z" />
    <glyph glyph-name="notequal" unicode="&#x2260;" 
d="M126 83l62 85h-118v58h159l86 116h-245v58h285l86 117l42 -30l-65 -87h118v-58h-158l-86 -116h244v-58h-284l-84 -114z" />
    <glyph glyph-name="lessequal" unicode="&#x2264;" 
d="M69 259v50l452 202v-67l-367 -159v-2l367 -159v-67zM70 -104h451v-58h-451v58z" />
    <glyph glyph-name="greaterequal" unicode="&#x2265;" 
d="M85 57v67l368 159v2l-368 159v67l452 -202v-50zM85 -104h451v-58h-451v58z" />
    <glyph glyph-name="T.R" horiz-adv-x="600" 
d="M277 0v641h-175q-22 0 -22 -22v-47h-65v75q0 32 12 44t44 12h503v-62h-227v-641h-70z" />
    <glyph glyph-name="T.L" horiz-adv-x="600" 
d="M253 0v641h-227v62h503q32 0 44 -12t12 -44v-75h-66v47q0 22 -22 22h-174v-641h-70z" />
    <glyph glyph-name="T.cut_mid" horiz-adv-x="600" 
d="M265 0v641h-235v62h540v-62h-235v-641h-70z" />
    <glyph glyph-name="commaaccent" horiz-adv-x="335" 
d="M137 -63h62q7 -24 7 -48q0 -36 -24 -89h-53q19 48 19 80q0 28 -11 57z" />
    <glyph glyph-name="apple" horiz-adv-x="1130" 
d="M42 128v278l126 71v151l265 142l134 -71l132 71l265 -142v-151l124 -71v-278l-124 -72v-152l-265 -141l-132 71l-134 -71l-265 141v152zM94 142l114 -64v-139l238 -126l121 66l118 -66l238 126v139l114 64v249l-114 66v136l-238 126l-118 -64l-121 64l-238 -126v-136
l-114 -66v-249zM143 154v225l99 58v123l215 114l110 -59l107 59l214 -114v-123l100 -58v-225l-100 -60v-121l-214 -114l-107 58l-110 -58l-215 114v121zM443 0h60v217h218v53h-218v179h176q16 0 21.5 -6t5.5 -21v-38h56v64q0 29 -12.5 42t-43.5 13h-325v-54h62v-449z" />
    <glyph glyph-name="zero.tnum" horiz-adv-x="568" 
d="M284 -12q-242 0 -242 364q0 363 242 363q88 0 144 -50t77.5 -128t21.5 -185q0 -364 -243 -364zM284 53q171 0 171 299q0 298 -171 298t-171 -298q0 -299 171 -299z" />
    <glyph glyph-name="one.tnum" horiz-adv-x="560" 
d="M100 0v62h157v516l1 39h-2q-7 -15 -35 -42l-75 -75l-44 45l159 158h66v-641h154v-62h-381z" />
    <glyph glyph-name="two.tnum" horiz-adv-x="560" 
d="M45 69q0 72 38.5 125.5t93 86l109 63t93 73.5t38.5 100t-39.5 94.5t-104.5 37.5q-52 0 -88.5 -23t-36.5 -53v-33h-66v52q0 32 19.5 56.5t50 38.5t62.5 21t61 7q98 0 156 -56.5t58 -140.5q0 -68 -38.5 -120t-93 -85l-109 -63.5t-93 -72.5t-38.5 -95q0 -20 23 -20h294
q22 0 22 22v47h65v-70q0 -32 -14.5 -46.5t-46.5 -14.5h-352q-35 0 -49 16t-14 53z" />
    <glyph glyph-name="three.tnum" horiz-adv-x="560" 
d="M43 86l42 52q3 -3 8.5 -9t24 -20.5t38.5 -25.5t51 -20t62 -9q64 0 111.5 43t47.5 109q0 68 -50 108t-121 40h-49l-16 41l173 208q8 10 17 20t14 15l5 4v2q-20 -3 -57 -3h-183q-22 0 -22 -22v-47h-65v70q0 33 13.5 47t45.5 14h357v-46l-207 -243q36 -2 71.5 -13.5
t69.5 -34.5t55 -64t21 -95q0 -90 -66.5 -154.5t-165.5 -64.5q-39 0 -76.5 10t-63 24.5t-46 29t-30.5 24.5z" />
    <glyph glyph-name="four.tnum" horiz-adv-x="560" 
d="M14 194v46l342 463h75v-447h112v-62h-112v-194h-70v194h-347zM362 256v287l3 68h-2q-17 -29 -36 -54l-195 -258l-37 -44v-2q28 3 58 3h209z" />
    <glyph glyph-name="five.tnum" horiz-adv-x="560" 
d="M48 88l44 49q2 -3 6.5 -9t19.5 -20t32 -25t45.5 -20t59.5 -9q75 0 125 47t50 117q0 72 -52.5 118.5t-129.5 46.5q-35 0 -69 -9.5t-50 -19.5l-16 -10l-36 15l30 283q3 33 16.5 47t44.5 14h231q32 0 46 -14.5t14 -46.5v-70h-65v47q0 22 -22 22h-178q-19 0 -22 -22l-18 -159
l-6 -40h2q44 26 106 26q106 0 176 -66.5t70 -162.5q0 -95 -70.5 -162t-176.5 -67q-39 0 -75 10.5t-59 25t-40.5 29t-24.5 25.5z" />
    <glyph glyph-name="six.tnum" horiz-adv-x="560" 
d="M297 -12q-113 0 -183.5 90.5t-70.5 230.5q0 55 11 111t35.5 109.5t59.5 94.5t87.5 66t115.5 25q34 0 66.5 -7.5t47.5 -14.5l15 -7l-26 -61q-44 25 -102 25q-70 0 -122.5 -43.5t-79 -107t-33.5 -138.5h2q24 40 73 62.5t106 22.5q96 0 157.5 -62.5t61.5 -160.5
q0 -107 -63 -171t-158 -64zM118 264q0 -75 52 -143t126 -68q70 0 110.5 47.5t40.5 121.5q0 73 -43.5 117.5t-115.5 44.5q-68 0 -119 -38t-51 -82z" />
    <glyph glyph-name="seven.tnum" horiz-adv-x="560" 
d="M96 0l306 576l39 65v2q-18 -2 -53 -2h-253q-22 0 -22 -22v-47h-66v70q0 32 14 46.5t46 14.5h415v-48l-348 -655h-78z" />
    <glyph glyph-name="eight.tnum" horiz-adv-x="560" 
d="M40 198q0 34 13 66t31 53t36.5 37t31.5 23l13 7v2l-10.5 5.5t-23 16.5t-29 28.5t-23 41t-10.5 53.5q0 77 57 130.5t155 53.5t156.5 -52t58.5 -135q0 -30 -9.5 -59t-23.5 -49t-28 -35.5t-23 -22.5l-10 -8v-2q55 -28 84 -65.5t29 -95.5q0 -83 -68.5 -143t-167.5 -60
q-98 0 -168.5 57t-70.5 153zM274 403q51 -19 63 -19q22 0 55.5 46t33.5 96q0 56 -40.5 90t-104.5 34q-65 0 -103.5 -34t-38.5 -85q0 -50 33.5 -76.5t101.5 -51.5zM112 201q0 -66 49.5 -107t117.5 -41q65 0 114.5 39.5t49.5 99.5q0 50 -33 77.5t-101 54.5q-66 28 -82 28
q-27 0 -71 -46.5t-44 -104.5z" />
    <glyph glyph-name="nine.tnum" horiz-adv-x="560" 
d="M79 17l26 61q44 -25 102 -25q70 0 123 44t79.5 107.5t32.5 138.5h-2q-24 -40 -73.5 -63t-105.5 -23q-96 0 -157 62.5t-61 160.5q0 107 62.5 171t157.5 64q113 0 183.5 -90.5t70.5 -230.5q0 -70 -18.5 -139.5t-54 -130.5t-97 -98.5t-139.5 -37.5q-34 0 -66.5 7t-47.5 15z
M272 319q68 0 119 38t51 82q0 75 -52 143t-126 68q-70 0 -110.5 -47.5t-40.5 -121.5q0 -73 43.5 -117.5t115.5 -44.5z" />
    <glyph glyph-name="T_h" horiz-adv-x="1113" 
d="M279 0v641h-178q-22 0 -22 -22v-47h-64v74q0 32 12.5 44.5t44.5 12.5h526q32 0 46.5 -14t14.5 -45v-213l-2 -41h2q16 41 67.5 83t132.5 42q90 0 129.5 -49t39.5 -146v-239q0 -22 22 -22h42v-59h-71q-32 0 -46.5 14.5t-14.5 46.5v241q0 34 -3.5 57.5t-14.5 46t-34 34
t-58 11.5q-83 0 -137 -60.5t-54 -149.5v-241h-68v619q0 22 -22 22h-220v-641h-70z" />
    <glyph glyph-name="T.alt" horiz-adv-x="609" 
d="M278 0v641h-177q-22 0 -22 -22v-47h-64v74q0 32 12.5 44.5t44.5 12.5h522v-62h-246v-641h-70z" />
    <glyph glyph-name="Tcommaaccent.alt" horiz-adv-x="609" 
d="M15 572v74q0 32 12.5 44.5t44.5 12.5h522v-62h-246v-641h-14l-11 -55q32 -5 51.5 -23.5t19.5 -47.5q0 -41 -27.5 -60t-68.5 -19l-50 5v48q19 -6 42 -6q51 0 51 34t-57 34l-15 -1l21 91h-12v641h-177q-22 0 -22 -22v-47h-64z" />
    <glyph glyph-name="Tcaron.alt" horiz-adv-x="609" 
d="M279 752l-83 119h63l54 -80h2l54 80h64l-84 -119h-70zM278 0v641h-177q-22 0 -22 -22v-47h-64v74q0 32 12.5 44.5t44.5 12.5h522v-62h-246v-641h-70z" />
    <glyph glyph-name="Tbar.alt" horiz-adv-x="609" 
d="M278 0v324h-159v57h159v260h-177q-22 0 -22 -22v-47h-64v74q0 32 12.5 44.5t44.5 12.5h522v-62h-246v-260h163v-57h-163v-324h-70z" />
    <glyph glyph-name="uni021A.alt" horiz-adv-x="609" 
d="M278 0v641h-177q-22 0 -22 -22v-47h-64v74q0 32 12.5 44.5t44.5 12.5h522v-62h-246v-641h-70zM280 -63h62q7 -24 7 -48q0 -36 -24 -89h-52q18 49 18 80q0 28 -11 57z" />
    <glyph glyph-name="hyphen.case" horiz-adv-x="432" 
d="M74 318v62h284v-62h-284z" />
    <glyph glyph-name="parenleft.case" horiz-adv-x="309" 
d="M85 362q0 225 108 398h64q-109 -184 -109 -393q0 -231 115 -432h-63q-115 188 -115 427z" />
    <glyph glyph-name="parenright.case" horiz-adv-x="309" 
d="M46 -65q115 201 115 432q0 209 -109 393h64q108 -176 108 -398q0 -239 -115 -427h-63z" />
    <glyph glyph-name="bracketleft.case" horiz-adv-x="303" 
d="M101 -4v703q0 32 14.5 46.5t46.5 14.5h74v-56h-50q-22 0 -22 -22v-669q0 -22 22 -22h50v-56h-74q-32 0 -46.5 14.5t-14.5 46.5z" />
    <glyph glyph-name="bracketright.case" horiz-adv-x="303" 
d="M67 -9h50q22 0 22 22v669q0 22 -22 22h-50v56h74q32 0 46.5 -14.5t14.5 -46.5v-703q0 -32 -14.5 -46.5t-46.5 -14.5h-74v56z" />
    <glyph glyph-name="braceleft.case" horiz-adv-x="326" 
d="M118 113v95q0 29 -9 51.5t-21 34t-24.5 18.5t-21.5 8l-9 2v62q3 0 9 1.5t20.5 9t26 18.5t20.5 34t9 52v82q0 47 12 82t28.5 53t39 28.5t38 13t31.5 2.5h15v-56h-9q-13 0 -25.5 -3.5t-29.5 -15t-27 -38.5t-10 -68v-98q0 -27 -8 -50.5t-20 -37t-24 -23t-20 -12.5l-8 -4v-2
q3 -1 8.5 -3.5t19.5 -12t24.5 -22.5t19 -36.5t8.5 -52.5v-110q0 -40 10.5 -67.5t27 -38.5t29 -15t25.5 -4h9v-56q-6 -1 -15 -1q-16 0 -31.5 2.5t-38 13.5t-39 29t-28.5 53t-12 82z" />
    <glyph glyph-name="braceright.case" horiz-adv-x="326" 
d="M44 -10h10q12 0 24.5 4t29 15t27 38.5t10.5 67.5v110q0 29 8 52.5t20 36.5t24 22.5t20 12.5l8 3v2q-3 1 -8.5 3.5t-19.5 13t-24.5 23.5t-19 36.5t-8.5 50.5v98q0 41 -10 68t-27 38.5t-29 15t-25 3.5h-10v56h16q15 0 30.5 -2.5t38 -13.5t39 -28.5t28.5 -52.5t12 -82v-82
q0 -29 9 -52t21 -34t24.5 -18.5t21.5 -8.5l9 -2v-62q-3 0 -9 -1.5t-20.5 -9t-26 -18.5t-20.5 -33.5t-9 -51.5v-95q0 -47 -12 -82t-28.5 -53t-39 -29t-38 -13.5t-30.5 -2.5l-16 1v56z" />
    <glyph glyph-name="at.case" horiz-adv-x="757" 
d="M41 351q0 153 104.5 260t251.5 107q126 0 185.5 -54t59.5 -135v-315h71v-56h-269q-85 0 -142.5 56.5t-57.5 135.5t57 135.5t143 56.5h130q-2 50 -45 83.5t-127 33.5q-122 0 -206.5 -90.5t-84.5 -217.5q0 -129 84.5 -217.5t211.5 -88.5v-60q-155 0 -260.5 106t-105.5 260z
M314 350q0 -57 39.5 -96.5t96.5 -39.5h124v275h-122q-59 0 -98.5 -40.5t-39.5 -98.5z" />
    <glyph glyph-name="guillemotleft.case" horiz-adv-x="522" 
d="M217 342l164 206h74l-164 -206l164 -205h-74zM202 137l-164 205l164 206h73l-164 -206l164 -205h-73z" />
    <glyph glyph-name="guillemotright.case" horiz-adv-x="522" 
d="M246 137l164 205l-164 206h74l164 -206l-164 -205h-74zM66 137l164 205l-164 206h74l164 -206l-164 -205h-74z" />
    <glyph glyph-name="guilsinglleft.case" horiz-adv-x="343" 
d="M202 137l-164 205l164 206h73l-164 -206l164 -205h-73z" />
    <glyph glyph-name="guilsinglright.case" horiz-adv-x="343" 
d="M66 137l164 205l-164 206h74l164 -206l-164 -205h-74z" />
    <glyph glyph-name="endash.case" horiz-adv-x="642" 
d="M71 315v58h500v-58h-500z" />
    <glyph glyph-name="emdash.case" horiz-adv-x="842" 
d="M71 315v58h700v-58h-700z" />
    <glyph glyph-name="periodcentered.case" horiz-adv-x="215" 
d="M69 306v80h77v-80h-77z" />
    <glyph glyph-name="questiondown.case" horiz-adv-x="431" 
d="M205 626v77h77v-77h-77zM31 165q0 46 18.5 82.5t44.5 61.5t52.5 48t45 53.5t18.5 66.5v42h67v-45q0 -44 -18 -80t-43.5 -60.5l-51 -48t-43.5 -53.5t-18 -64q0 -49 37 -82t94 -33q30 0 60.5 10.5t45.5 20.5l15 11l37 -50q-7 -6 -20 -15.5t-55 -25.5t-86 -16q-86 0 -143 50
t-57 127z" />
    <glyph glyph-name="exclamdown.case" horiz-adv-x="297" 
d="M109 626v77h77v-77h-77zM113 0l3 519h64l3 -519h-70z" />
    <glyph glyph-name="bullet.case" horiz-adv-x="439" 
d="M220 209q-59 0 -101 42t-42 101t42 101t101 42t100.5 -42t41.5 -101t-41.5 -101t-100.5 -42z" />
    </font>
</defs>
</svg>
